{"glyphs":{"0":{"ha":541,"x_min":24,"x_max":528,"o":"m 24 336 q 39 473 24 403 q 83 609 54 543 q 154 733 111 675 q 251 833 197 791 q 258 833 252 833 q 264 834 263 834 q 290 821 281 834 q 304 793 298 808 q 411 767 368 788 q 480 710 454 746 q 517 624 506 674 q 528 510 528 574 q 524 410 528 465 q 510 298 521 354 q 479 188 499 241 q 428 92 460 134 q 349 25 396 50 q 237 0 302 0 q 123 31 165 0 q 58 111 80 62 q 31 220 37 160 q 24 336 24 281 m 145 119 q 180 94 159 98 q 225 91 202 91 q 319 112 281 91 q 382 167 357 133 q 420 244 407 201 q 441 336 434 288 q 449 431 448 384 q 450 519 450 479 q 447 585 450 551 q 432 648 444 620 q 397 695 420 677 q 334 713 374 713 q 302 712 316 713 q 275 707 288 711 q 247 694 262 703 q 212 673 232 686 q 132 497 160 587 q 104 305 104 407 q 106 258 104 278 q 111 219 107 239 q 124 176 115 199 q 145 119 133 153 z "},"1":{"ha":172,"x_min":22,"x_max":149,"o":"m 149 705 q 141 538 149 620 q 122 373 133 456 q 106 208 111 290 q 106 39 100 125 q 22 -3 75 -3 q 22 35 22 8 q 24 91 23 61 q 26 147 26 121 q 27 184 27 174 q 32 285 28 229 q 40 397 35 340 q 51 512 45 454 q 66 620 57 570 q 91 684 73 662 q 149 705 109 705 z "},"2":{"ha":818,"x_min":26,"x_max":799,"o":"m 26 41 q 26 60 26 52 q 30 75 27 68 q 37 89 33 81 q 53 104 42 96 l 343 382 q 374 420 354 393 q 414 481 395 448 q 450 547 434 514 q 465 601 465 581 q 457 627 465 616 q 437 647 449 639 q 411 659 426 655 q 382 662 396 662 q 315 648 347 662 q 256 613 283 633 q 204 568 228 593 q 161 524 180 544 q 125 489 142 503 q 94 475 107 475 q 68 487 72 475 q 65 518 65 499 q 81 573 65 547 q 125 624 98 600 q 186 669 153 648 q 254 705 220 689 q 319 734 288 722 q 370 753 350 746 q 380 753 372 753 q 389 754 388 754 q 446 739 419 754 q 495 699 473 723 q 530 646 517 674 q 544 589 544 617 q 529 513 544 552 q 490 435 514 473 q 435 359 465 396 q 374 288 406 321 q 314 224 343 254 q 264 172 285 195 l 278 157 q 311 149 281 157 q 380 130 340 140 q 461 109 419 119 q 528 91 503 98 q 544 91 530 91 q 564 91 557 91 q 625 100 595 91 q 684 119 655 109 q 742 138 713 129 q 799 148 770 148 q 774 68 799 98 q 712 24 750 39 q 627 5 674 9 q 536 0 581 0 l 528 0 l 225 80 q 216 80 222 80 q 205 80 209 80 q 160 68 180 80 q 122 40 140 56 q 88 12 104 24 q 53 -1 72 -1 q 30 10 34 -1 q 26 41 26 22 z "},"3":{"ha":555,"x_min":26,"x_max":528,"o":"m 53 111 q 102 106 79 111 q 149 94 126 100 q 194 83 171 88 q 241 77 217 77 q 299 82 264 77 q 365 98 334 87 q 418 130 396 110 q 439 183 439 151 q 422 252 439 224 q 376 300 404 281 q 311 330 347 319 q 239 344 275 340 q 168 347 202 347 q 106 343 133 346 q 83 360 90 351 q 77 382 77 369 q 102 415 77 403 q 161 438 126 427 q 237 460 195 449 q 315 486 279 471 q 374 525 350 502 q 397 582 397 548 q 379 636 397 623 q 324 650 361 650 q 250 637 288 650 q 174 608 212 624 q 104 579 137 593 q 46 566 72 566 q 35 569 39 566 q 28 578 30 572 q 26 591 27 585 q 26 604 26 597 q 29 629 26 618 q 53 648 33 639 q 119 674 84 661 q 190 700 153 688 q 264 720 227 712 q 335 727 301 727 q 399 716 373 727 q 444 684 426 705 q 469 633 461 663 q 477 566 477 604 q 464 512 477 530 q 432 482 450 494 q 393 458 414 471 q 357 423 373 446 q 394 383 374 401 q 433 347 414 365 q 469 312 452 330 q 500 273 487 294 q 520 224 513 251 q 528 165 528 198 q 497 83 528 115 q 422 32 467 50 q 330 6 378 14 q 243 -1 281 -1 q 182 3 216 -1 q 120 18 149 7 q 72 52 91 30 q 53 111 53 73 z "},"4":{"ha":661,"x_min":26,"x_max":650,"o":"m 80 251 q 46 259 57 251 q 31 281 35 267 q 26 311 27 294 q 26 342 26 327 q 35 443 26 396 q 60 535 43 490 q 98 627 76 581 q 145 727 119 673 q 160 741 149 739 q 180 742 171 742 q 204 734 197 742 q 212 707 212 726 l 212 700 q 201 671 209 690 q 184 627 194 651 q 164 576 174 604 q 145 523 155 548 q 129 477 136 498 q 119 449 122 457 q 111 426 114 435 q 106 408 109 416 q 104 390 104 399 q 104 368 104 381 q 104 359 104 365 q 104 347 103 353 q 109 337 106 342 q 119 330 111 332 l 130 330 q 149 330 140 330 q 167 330 157 330 l 195 330 q 235 330 214 330 q 273 334 256 331 q 292 343 290 336 l 317 568 q 325 591 319 586 q 343 595 331 595 q 357 594 350 595 q 369 590 363 593 q 378 581 374 587 q 382 568 382 575 l 382 343 l 608 343 q 638 328 627 343 q 650 297 650 313 q 648 277 650 288 q 633 264 647 267 q 606 264 627 264 q 563 264 586 264 q 518 264 540 264 q 488 264 496 264 q 460 262 479 264 q 426 259 442 260 q 397 255 410 258 q 382 251 384 252 l 370 237 l 370 -8 q 353 -6 365 -8 q 331 0 342 -4 q 312 10 320 4 q 304 27 304 16 l 278 251 l 80 251 z "},"5":{"ha":925,"x_min":26,"x_max":901,"o":"m 80 160 q 119 145 96 160 q 176 113 142 130 q 252 80 209 95 q 349 65 296 65 q 395 65 368 65 q 453 68 423 65 q 513 77 483 71 q 568 95 544 84 q 608 124 593 106 q 623 168 623 142 q 601 258 623 218 q 543 325 579 297 q 461 368 506 353 q 370 382 416 382 q 290 372 328 382 q 213 349 251 362 q 137 326 175 336 q 60 316 99 316 q 33 323 39 316 q 26 350 26 331 q 41 408 26 373 q 77 484 57 444 q 116 560 96 524 q 145 620 136 597 q 152 628 146 623 q 157 633 157 633 q 118 634 132 627 q 104 667 104 642 q 106 686 104 675 q 119 700 107 697 q 370 734 244 727 q 624 742 495 742 l 696 742 q 762 741 728 742 q 828 736 795 739 q 898 727 861 734 q 899 718 898 726 q 901 707 901 709 q 899 683 901 693 q 886 661 897 673 q 830 662 867 662 l 549 662 q 465 661 503 662 q 410 661 426 661 q 380 659 403 661 q 332 656 357 658 q 285 652 308 654 q 251 648 262 650 q 228 633 239 646 q 208 602 217 620 q 193 563 199 585 q 181 520 186 541 q 174 482 176 499 q 172 456 172 465 l 172 449 l 178 442 q 184 437 183 437 l 198 437 q 212 442 202 437 q 225 449 221 448 q 261 454 235 450 q 317 459 288 457 q 373 463 347 461 q 410 463 399 464 q 522 431 469 457 q 615 364 575 406 q 679 269 655 323 q 703 156 703 216 q 686 92 703 121 q 642 43 669 64 q 581 11 614 22 q 515 0 548 0 l 237 0 q 178 14 206 0 q 127 52 149 28 q 93 104 106 75 q 80 160 80 133 z "},"6":{"ha":833,"x_min":12,"x_max":807,"o":"m 12 397 q 28 485 12 441 q 73 570 45 529 q 137 647 100 610 q 216 710 174 684 q 302 752 258 736 q 392 768 347 768 q 417 756 411 768 q 423 727 423 745 q 423 720 423 726 q 423 713 423 713 q 373 692 404 705 q 307 659 342 678 q 237 616 273 640 q 172 566 201 593 q 123 510 142 540 q 104 449 104 480 l 104 290 l 119 264 q 203 332 153 308 q 309 368 252 357 q 422 382 365 380 q 528 384 479 384 l 555 384 q 594 383 572 384 q 633 382 616 382 l 661 382 q 715 359 689 373 q 762 325 742 345 q 795 279 783 305 q 807 222 807 254 q 785 142 807 176 q 726 82 762 107 q 643 41 689 57 q 550 16 597 26 q 458 3 503 7 q 381 -1 414 -1 q 228 29 296 -1 q 113 114 160 60 q 39 241 65 168 q 12 397 12 313 m 184 193 q 206 136 184 159 q 260 101 228 114 q 326 83 292 88 q 387 77 361 77 q 446 79 411 77 q 517 85 480 80 q 592 101 555 91 q 661 127 629 111 q 713 167 692 142 q 741 225 734 191 q 730 262 743 247 q 694 289 718 278 q 641 305 670 300 q 585 314 612 311 q 535 318 557 317 q 503 319 513 319 q 455 315 486 319 q 389 306 425 312 q 317 290 354 300 q 251 267 281 281 q 203 234 221 252 q 184 193 184 216 z "},"7":{"ha":1097,"x_min":26,"x_max":1085,"o":"m 437 343 q 407 351 419 349 q 383 355 395 354 q 359 357 372 357 q 332 357 347 357 q 291 357 309 357 q 255 355 273 357 q 218 350 237 353 q 172 343 198 347 q 160 351 167 346 q 145 360 153 355 q 130 371 137 365 q 119 382 123 377 q 203 417 156 406 q 298 433 250 429 q 393 437 347 437 q 475 437 439 437 q 518 478 499 452 q 555 535 537 505 q 588 596 572 566 q 621 648 604 627 q 597 652 614 650 q 562 656 581 654 q 526 659 543 658 q 503 661 510 661 q 449 662 486 662 l 184 662 q 104 661 140 662 q 53 661 69 661 q 29 679 33 669 q 26 705 26 689 q 26 725 26 713 q 39 741 27 736 l 119 741 q 178 741 148 741 q 235 742 209 742 l 317 742 q 414 742 361 742 q 525 742 468 742 q 637 738 582 742 q 741 727 693 734 q 755 709 749 719 q 766 688 762 699 q 745 659 761 678 q 710 614 730 639 q 670 563 690 590 q 633 510 650 536 q 604 463 616 484 q 593 429 593 442 q 594 426 593 426 q 595 423 594 423 q 608 416 597 420 q 621 410 618 411 q 844 385 730 396 q 1070 357 959 373 q 1084 344 1082 354 q 1085 324 1085 334 q 1084 304 1085 315 q 1070 290 1082 294 l 1058 290 q 1041 290 1050 290 q 1023 289 1032 289 l 1010 289 q 898 296 955 289 q 786 310 841 302 q 675 323 731 317 q 562 330 618 330 l 541 330 q 515 258 524 296 q 499 184 506 221 q 486 112 492 146 q 467 52 480 77 q 432 10 454 26 q 370 -5 410 -5 q 380 84 370 42 q 404 168 391 126 q 427 252 416 210 q 437 336 437 293 l 437 343 z "},"8":{"ha":766,"x_min":12,"x_max":742,"o":"m 263 157 q 313 373 263 279 q 463 541 362 467 q 449 549 458 544 q 437 555 439 553 q 351 566 396 563 q 262 571 307 570 q 174 571 218 572 q 94 568 130 570 q 72 577 85 572 q 45 591 58 582 q 22 610 33 600 q 12 633 12 620 q 35 709 12 677 q 92 764 57 742 q 171 799 126 785 q 262 821 216 812 q 350 831 308 829 q 423 834 392 834 q 444 834 429 834 q 475 834 458 834 q 507 833 492 834 q 528 833 522 833 q 552 814 548 825 q 556 788 556 803 q 552 762 556 772 q 530 753 548 753 q 480 760 503 753 q 431 768 457 768 q 350 763 397 768 q 255 747 302 758 q 167 714 208 735 q 104 661 126 693 l 133 648 l 146 647 q 182 644 160 646 q 231 642 203 643 q 285 639 258 640 q 338 635 312 637 q 382 633 365 633 q 393 633 385 633 q 410 633 401 633 l 426 633 q 437 633 434 633 q 457 630 442 633 q 489 623 472 627 q 521 614 506 618 q 541 608 536 610 q 585 642 566 625 q 619 677 605 658 q 641 722 633 697 q 648 780 648 747 q 654 780 650 780 q 661 780 658 780 q 684 774 675 780 q 696 760 692 769 q 701 739 700 750 q 703 718 703 727 q 691 669 703 689 q 667 633 680 650 q 643 599 654 616 q 632 562 632 582 q 648 504 632 533 q 686 444 665 475 q 724 376 707 412 q 742 297 742 340 q 724 224 742 260 q 677 153 707 187 q 610 92 648 119 q 532 43 572 64 q 452 10 492 22 q 376 -1 411 -1 q 321 13 343 -1 q 286 50 298 27 q 268 101 273 73 q 263 157 263 129 m 330 104 q 363 81 343 85 q 404 77 382 77 q 485 96 444 77 q 563 143 526 114 q 629 208 600 172 q 673 278 658 243 q 674 283 673 279 q 675 290 675 288 q 670 325 675 304 q 655 370 665 346 q 633 417 646 393 q 606 460 620 441 q 574 492 591 480 q 541 503 557 503 q 484 486 511 503 q 433 439 457 468 q 391 375 410 411 q 357 302 372 339 q 336 230 343 264 q 330 172 330 195 l 330 157 q 330 138 330 149 q 330 119 330 127 l 330 104 z "},"9":{"ha":608,"x_min":-1,"x_max":582,"o":"m 463 19 q 471 216 463 122 q 488 410 479 309 l 488 423 q 483 437 488 427 q 475 449 477 448 q 472 449 475 449 l 471 449 l 469 450 q 467 450 468 450 q 463 449 465 449 q 416 434 449 444 q 345 414 382 425 q 273 394 307 403 q 225 382 239 385 q 218 382 224 382 q 203 381 212 381 q 185 381 194 381 q 171 381 176 381 q 109 387 140 381 q 53 409 77 393 q 14 450 28 425 q -1 514 -1 475 q 17 582 -1 552 q 65 634 35 612 q 133 672 95 656 q 210 696 171 688 q 288 709 250 705 q 354 713 326 713 q 428 708 388 713 q 502 687 468 703 q 559 642 536 671 q 582 568 582 613 q 577 432 582 499 q 566 298 572 365 q 556 164 560 232 q 555 27 552 96 q 531 5 545 12 q 503 -1 517 -1 q 490 -1 496 -1 q 477 2 483 0 q 467 7 472 4 q 463 19 463 11 m 80 510 q 91 478 80 488 q 117 465 102 468 q 150 461 133 461 q 180 461 167 461 q 224 463 195 461 q 288 471 254 465 q 359 486 323 476 q 424 510 395 495 q 471 545 453 525 q 490 595 490 566 q 485 618 490 610 q 463 633 480 627 q 444 633 457 633 q 416 634 431 633 q 388 635 401 635 q 370 636 374 636 q 324 635 353 636 q 264 629 296 633 q 199 615 232 624 q 139 593 165 606 q 96 558 113 579 q 80 510 80 537 z "}," ":{"ha":442,"x_min":0,"x_max":0,"o":""},"!":{"ha":225,"x_min":37,"x_max":212,"o":"m 66 382 q 71 498 71 448 q 67 589 71 548 q 58 669 64 631 q 48 748 53 707 q 40 840 43 789 q 37 955 37 890 l 37 964 q 37 981 37 972 q 38 997 38 989 l 38 1008 q 45 1017 39 1010 q 57 1029 50 1023 q 69 1040 64 1035 q 77 1047 75 1046 q 88 1042 79 1047 l 104 1034 l 118 1021 q 122 966 119 998 q 127 896 125 933 q 132 820 129 859 q 137 745 134 781 q 141 675 140 708 q 145 620 142 643 q 146 597 146 616 q 146 555 146 578 q 145 513 145 533 l 145 488 q 148 467 146 481 q 151 436 149 453 q 155 403 153 419 l 157 382 q 139 360 149 365 q 111 355 129 355 q 85 360 96 355 q 66 382 73 365 m 50 80 q 58 109 50 96 q 79 131 66 122 q 107 144 91 140 q 140 148 123 148 q 169 140 156 148 q 192 121 182 133 q 207 95 202 110 q 212 65 212 80 q 203 39 212 50 q 181 18 195 27 q 152 5 167 9 q 126 0 137 0 q 69 23 88 0 q 50 80 50 46 z "},"\"":{"ha":423,"x_min":42,"x_max":416,"o":"m 81 937 q 108 931 94 937 q 122 910 122 925 l 122 632 q 109 604 122 617 q 81 591 96 591 q 56 597 71 591 q 42 618 42 602 l 42 910 q 56 931 42 925 q 81 937 71 937 m 359 937 q 389 922 378 937 q 406 885 400 907 q 414 833 412 863 q 416 777 416 804 q 414 727 415 750 q 412 692 412 704 q 410 677 412 686 q 403 661 407 669 q 393 648 399 654 q 380 643 387 643 q 355 650 366 643 q 337 666 345 656 q 324 688 330 675 q 319 711 319 700 l 319 910 q 333 932 319 926 q 359 937 347 937 z "},"#":{"ha":1004,"x_min":-1,"x_max":979,"o":"m 475 12 q 475 28 475 18 q 474 50 475 38 q 473 71 473 61 q 472 85 472 80 q 480 174 472 130 q 498 262 488 218 q 517 349 509 305 q 525 437 525 392 l 382 437 q 362 427 374 437 q 343 410 350 418 q 334 380 340 400 q 322 336 328 361 q 309 285 316 312 q 294 233 301 258 q 283 187 288 208 q 278 157 279 167 q 277 121 274 146 q 279 72 281 96 q 268 29 278 47 q 231 11 258 11 q 197 26 209 11 q 184 65 184 42 q 190 119 184 88 q 202 181 195 149 q 218 245 209 213 q 235 307 227 278 q 252 359 244 336 q 264 396 260 382 l 264 419 q 205 415 235 419 q 148 407 176 411 q 90 399 119 403 q 30 396 60 396 q 5 408 11 396 q -1 437 -1 419 q 3 453 -1 449 q 27 463 7 457 l 290 515 q 300 533 293 517 q 313 570 307 549 q 324 610 319 591 q 330 633 330 628 q 325 643 330 637 q 317 648 320 648 q 277 640 294 643 q 243 635 259 637 q 212 633 228 633 q 178 633 197 633 l 145 633 q 141 641 142 635 q 138 653 140 647 q 134 665 136 659 q 133 673 133 671 q 138 681 133 675 q 145 688 142 686 q 195 707 165 700 q 253 719 224 715 q 308 724 282 723 q 343 727 334 726 q 376 765 365 738 q 393 825 388 792 q 402 896 399 859 q 413 964 406 933 q 435 1013 420 994 q 475 1032 449 1032 q 500 1018 496 1032 q 503 986 503 1004 q 496 922 503 952 q 478 861 488 891 q 460 802 468 831 q 453 741 453 772 l 620 741 l 688 925 q 685 954 682 937 q 695 985 688 970 q 715 1009 703 1000 q 742 1019 727 1019 q 756 1015 750 1019 q 764 1003 762 1010 q 767 987 766 996 q 768 972 768 979 q 762 916 768 945 q 748 859 757 887 q 730 803 739 830 q 713 753 720 776 l 727 741 l 952 713 q 967 707 962 712 q 975 696 972 703 q 979 682 978 689 q 979 669 979 675 q 979 648 979 659 q 964 633 978 637 q 901 647 929 642 q 849 655 873 652 q 800 660 825 658 q 746 662 776 662 q 737 662 743 662 q 724 662 731 662 q 709 661 716 662 q 700 661 703 661 q 671 604 684 633 q 659 541 659 575 q 660 528 659 538 q 661 515 661 518 q 703 513 674 513 q 765 511 731 513 q 836 507 799 510 q 902 494 872 503 q 951 468 932 486 q 970 423 970 450 l 633 423 q 608 405 618 423 q 591 357 598 387 q 578 288 583 327 q 567 210 572 250 q 555 133 562 171 q 541 65 549 95 q 522 17 533 35 q 495 -1 511 -1 l 491 -1 q 488 0 488 -1 q 482 6 487 1 q 475 12 477 11 m 381 541 q 381 534 381 538 q 383 526 381 530 q 388 518 385 521 q 396 515 391 515 l 555 515 q 564 521 559 515 q 572 534 568 526 q 582 555 576 544 q 591 580 586 564 q 600 611 595 595 q 606 637 604 627 q 608 648 609 648 l 595 661 l 449 661 l 423 648 q 416 637 422 648 q 405 611 411 627 q 393 580 399 595 q 382 555 387 564 q 382 549 382 553 q 381 541 381 544 z "},"$":{"ha":727,"x_min":11,"x_max":703,"o":"m 290 157 q 201 175 250 159 q 111 220 153 191 q 40 290 69 250 q 11 374 11 330 q 13 409 11 388 q 20 452 15 430 q 37 489 26 473 q 66 505 47 505 l 66 357 q 91 307 66 328 q 149 269 115 285 q 216 245 182 254 q 273 237 251 237 l 278 237 l 285 244 q 290 251 290 250 l 290 633 q 272 641 290 637 q 226 650 254 644 q 165 665 198 655 q 102 689 132 674 q 52 726 73 704 q 27 780 31 749 q 36 841 22 817 q 76 883 50 865 q 136 912 102 901 q 202 932 170 924 q 261 952 235 941 q 304 977 288 963 q 315 1011 311 983 q 323 1076 319 1039 q 332 1154 327 1112 q 345 1227 336 1195 q 366 1280 354 1260 q 396 1295 378 1299 q 410 1286 403 1294 q 422 1270 416 1279 q 433 1252 429 1261 q 437 1236 437 1242 q 432 1185 437 1211 q 422 1134 427 1160 q 412 1082 416 1108 q 408 1031 408 1057 q 409 1017 408 1025 q 410 998 410 1008 q 410 978 410 987 q 410 964 410 968 q 439 953 425 959 q 465 937 454 947 q 483 916 476 928 q 490 887 490 903 q 486 857 490 869 q 463 845 483 845 q 447 850 453 845 q 435 859 441 854 q 425 869 430 864 q 410 873 419 873 q 403 873 408 873 q 396 872 397 872 q 394 846 396 864 q 390 806 392 827 q 385 767 388 785 q 382 741 382 749 l 382 727 q 390 720 384 726 q 396 713 396 713 q 512 694 457 713 q 609 640 567 675 q 677 555 651 605 q 703 445 703 506 q 687 372 703 404 q 646 314 671 340 q 587 268 620 288 q 519 231 555 248 q 448 200 483 214 q 382 172 412 186 q 382 128 381 157 q 379 71 384 99 q 361 21 374 42 q 317 0 347 0 q 300 5 311 0 q 290 12 290 9 l 290 157 m 382 262 q 455 279 414 262 q 534 325 496 297 q 597 387 572 353 q 623 456 623 422 q 609 496 623 472 q 574 543 595 519 q 528 589 553 567 q 476 624 502 610 q 430 642 450 637 q 396 633 410 646 l 382 620 l 382 262 m 118 793 q 136 762 118 774 q 178 741 153 749 q 227 729 202 732 q 264 726 251 726 q 277 726 267 726 q 290 727 288 727 q 294 750 292 734 q 298 785 296 766 q 302 821 300 803 q 304 845 304 838 q 304 861 304 849 q 305 875 305 872 q 276 873 294 875 q 237 869 258 872 q 194 859 216 865 q 156 844 172 853 q 129 823 140 836 q 118 793 118 811 z "},"%":{"ha":633,"x_min":-1,"x_max":610,"o":"m -1 145 q -1 152 -1 146 q 0 157 0 157 q 5 177 1 165 q 13 201 8 189 q 22 224 18 214 q 27 237 26 235 l 437 964 q 460 989 449 972 q 480 1027 471 1006 q 500 1069 490 1048 q 524 1109 511 1090 q 551 1139 536 1127 q 587 1150 567 1150 q 589 1149 589 1150 q 593 1149 590 1149 l 595 1149 l 608 1137 q 609 1134 608 1135 q 610 1132 609 1133 q 610 1130 610 1131 l 609 1128 q 609 1126 609 1128 q 608 1123 608 1126 l 66 133 q 49 110 57 115 q 27 104 41 104 q 4 117 9 104 q -1 145 -1 130 m 264 119 q 273 153 264 138 q 291 178 281 167 q 309 202 301 190 q 317 231 317 214 l 317 237 q 315 243 317 239 l 309 251 q 305 260 307 256 q 304 264 304 264 q 330 298 312 286 q 368 314 347 309 q 410 319 388 319 q 450 319 433 319 q 507 309 479 319 q 559 282 536 300 q 596 238 582 264 q 610 180 610 212 q 591 106 610 140 q 543 50 572 73 q 475 12 513 26 q 400 -1 438 -1 q 347 5 372 -1 q 303 27 321 12 q 275 65 285 42 q 264 119 264 88 m 172 1077 q 183 1133 172 1103 q 212 1191 194 1164 q 254 1237 229 1218 q 305 1256 278 1256 q 372 1246 342 1256 q 426 1218 403 1237 q 462 1170 449 1199 q 475 1103 475 1141 q 458 1038 475 1065 q 413 994 441 1010 q 353 970 385 978 q 290 963 320 963 q 280 964 288 963 q 264 964 273 964 q 249 964 256 964 q 237 964 241 964 q 214 987 227 974 q 193 1014 202 1000 q 178 1044 184 1028 q 172 1077 172 1059 m 343 119 q 349 98 343 106 q 364 86 355 91 q 383 79 373 81 q 403 77 393 77 q 448 86 423 77 q 493 109 472 95 q 528 142 514 122 q 543 186 543 163 q 534 216 543 203 q 513 238 526 229 q 485 251 500 247 q 456 255 469 255 q 449 254 454 255 q 439 254 444 254 q 430 252 434 254 q 423 251 426 251 q 427 244 425 250 q 431 233 429 239 q 435 220 434 227 q 437 212 437 214 q 422 192 437 202 q 390 172 407 182 q 358 149 373 161 q 343 119 343 136 m 250 1078 q 266 1042 250 1053 q 311 1031 282 1031 q 344 1040 327 1031 q 376 1061 361 1048 q 401 1091 391 1074 q 411 1123 411 1108 q 397 1153 411 1142 q 365 1164 384 1164 q 328 1158 347 1164 q 290 1143 308 1153 q 261 1116 273 1133 q 250 1078 250 1099 z "},"&":{"ha":952,"x_min":11,"x_max":926,"o":"m 621 121 q 615 120 620 121 q 608 119 610 119 q 516 71 557 91 q 435 37 475 50 q 351 18 395 24 q 251 11 307 11 q 232 11 245 11 q 203 11 218 11 q 176 12 189 11 q 157 12 164 12 q 98 50 125 34 q 52 87 71 66 q 22 136 33 107 q 11 212 11 165 q 31 306 11 264 q 81 383 50 347 q 150 452 111 419 q 227 515 189 484 q 299 578 264 547 q 357 648 334 610 q 388 703 373 673 q 418 765 403 734 q 453 825 434 796 q 497 877 472 854 q 554 913 522 899 q 627 926 586 926 q 667 920 644 926 q 708 903 689 914 q 740 874 727 891 q 753 833 753 857 q 734 777 753 803 q 685 728 715 751 q 618 684 655 704 q 547 645 582 663 q 481 611 511 627 q 437 582 452 595 q 445 534 437 564 q 466 467 453 503 q 495 391 479 430 q 531 321 511 353 q 572 269 551 289 q 614 250 593 250 q 618 250 617 250 q 621 251 620 250 l 859 475 q 865 477 860 475 q 872 479 869 479 q 891 473 882 479 q 909 461 901 468 q 922 444 917 454 q 926 423 926 434 q 922 406 926 412 q 909 393 917 399 q 891 386 901 388 q 872 382 882 384 l 700 212 q 699 208 700 212 l 694 199 q 690 192 693 195 q 688 184 688 189 l 688 172 q 719 140 704 157 q 747 105 734 122 q 774 71 760 88 q 807 39 789 53 q 783 9 795 19 q 753 -1 772 -1 q 747 -1 751 -1 q 741 0 742 0 q 720 29 734 8 q 688 70 705 50 q 653 105 671 90 q 621 121 635 121 m 104 133 q 146 105 122 114 q 196 93 171 96 q 247 90 221 90 q 296 91 273 91 q 363 95 326 91 q 437 110 400 99 q 506 139 475 121 q 555 184 537 157 q 494 254 526 214 q 433 336 461 293 q 387 426 406 380 q 370 515 369 472 q 363 516 368 515 q 357 517 358 517 q 300 499 330 517 q 241 452 270 481 q 188 387 213 423 q 144 316 163 351 q 113 247 125 281 q 102 191 102 213 q 102 180 102 189 q 103 162 103 171 q 104 144 103 153 q 104 133 104 136 m 608 845 q 591 835 604 842 q 562 816 579 827 q 528 791 545 804 q 495 765 510 779 q 471 738 480 751 q 461 713 461 724 q 462 707 461 711 q 463 700 463 703 q 511 728 483 713 q 567 758 538 742 q 620 792 595 773 q 661 833 644 811 q 642 844 650 841 q 621 848 633 848 q 615 846 620 848 q 608 845 610 845 z "},"'":{"ha":104,"x_min":-3,"x_max":95,"o":"m -1 560 q -2 587 -1 568 q -1 629 -3 606 q 2 677 0 652 q 11 722 4 703 q 27 755 18 742 q 53 769 37 769 q 84 755 73 769 q 95 724 95 742 q 92 651 95 686 q 84 581 88 616 q 79 511 80 547 q 80 437 77 475 q 67 429 77 434 q 53 423 57 423 q 26 440 37 423 q 10 481 16 457 q 1 527 4 505 q -1 560 -1 549 z "},"(":{"ha":503,"x_min":11,"x_max":582,"o":"m 11 437 q 31 543 11 486 q 83 656 50 600 q 160 767 115 713 q 255 862 205 821 q 359 928 305 903 q 465 952 412 952 q 478 948 473 952 q 486 937 483 944 q 488 922 488 930 q 488 906 488 914 l 488 898 q 402 859 448 884 q 313 800 357 834 q 229 724 270 765 q 157 637 189 682 q 109 543 126 591 q 91 444 91 494 q 112 338 91 388 q 168 241 133 288 q 246 156 202 195 q 336 81 290 117 q 427 17 382 46 q 507 -36 472 -12 q 562 -79 541 -60 q 582 -113 582 -99 q 573 -130 582 -125 q 555 -134 564 -134 q 549 -134 553 -134 q 541 -133 544 -133 q 427 -69 488 -103 q 308 5 366 -35 q 196 90 250 45 q 101 189 142 136 q 35 304 60 243 q 11 437 11 366 z "},")":{"ha":463,"x_min":-41,"x_max":437,"o":"m -41 -331 q -22 -286 -41 -313 q 24 -228 -4 -259 q 87 -162 53 -197 q 153 -94 121 -127 q 211 -33 184 -61 q 250 12 237 -5 q 303 106 282 60 q 336 201 324 153 q 353 301 349 250 q 357 407 357 353 q 330 563 357 492 q 264 692 304 633 q 178 798 225 751 q 92 880 132 845 q 24 941 52 916 q -3 983 -3 967 q 3 1008 -3 998 q 27 1019 8 1019 q 33 1019 28 1019 q 39 1019 38 1019 q 162 925 104 972 q 269 824 220 878 q 357 707 319 770 q 422 568 396 644 q 421 520 419 545 q 426 469 423 495 l 434 418 q 437 368 437 392 q 427 254 437 316 q 398 132 418 193 q 349 15 378 71 q 278 -79 319 -41 l 0 -343 q -5 -345 -3 -345 l -12 -345 q -30 -343 -19 -345 q -41 -331 -41 -342 z "},"*":{"ha":528,"x_min":26,"x_max":517,"o":"m 212 727 q 208 728 210 727 q 205 728 206 728 q 172 715 189 728 q 137 685 155 701 q 99 655 119 669 q 53 642 79 642 q 74 715 53 682 q 133 766 95 747 l 133 783 q 106 781 123 783 q 71 779 88 779 q 39 786 53 780 q 26 811 26 792 l 26 819 q 27 833 26 826 q 31 846 28 841 q 39 852 34 852 l 157 852 l 119 876 q 90 899 103 887 q 71 923 77 910 q 65 956 65 936 q 68 980 65 967 q 85 993 71 993 q 106 985 94 993 q 130 968 118 978 q 154 950 142 959 q 172 939 165 941 q 174 937 172 937 q 179 936 176 936 q 182 937 180 936 q 184 939 184 939 q 187 961 186 949 q 193 982 189 972 q 205 998 198 991 q 225 1005 212 1005 q 250 992 244 1005 q 256 964 255 979 q 260 933 258 948 q 278 911 263 918 q 312 949 296 925 q 347 998 328 974 q 389 1041 366 1023 q 437 1059 411 1059 q 443 1058 438 1059 q 449 1057 448 1057 q 432 1010 444 1034 q 406 964 420 987 q 374 922 391 941 q 343 886 357 902 q 364 878 355 880 q 381 874 373 876 q 397 872 389 872 q 416 872 406 872 q 437 872 427 872 q 457 874 448 872 q 477 878 467 876 q 503 886 488 880 q 516 871 515 883 q 517 849 517 859 q 507 817 517 827 q 464 807 498 807 l 464 793 q 466 786 464 792 q 470 773 468 780 q 473 761 472 766 q 475 753 475 755 l 475 747 q 467 730 475 734 q 449 726 458 726 q 441 726 446 726 q 437 727 437 727 l 304 793 l 298 793 l 297 795 q 296 794 296 795 q 294 793 296 793 l 292 793 l 285 787 q 278 780 279 781 l 278 772 q 282 741 278 757 q 291 710 286 726 q 300 679 296 694 q 304 648 304 663 q 291 594 304 612 q 244 576 278 576 q 237 653 244 617 q 212 727 229 689 z "},"+":{"ha":661,"x_min":11,"x_max":650,"o":"m 237 27 q 233 71 236 39 q 225 139 229 103 q 217 207 221 175 q 212 251 213 239 q 209 268 212 258 q 204 287 206 278 q 199 304 202 296 l 198 311 l 27 311 q 16 317 19 311 q 12 332 14 324 q 11 347 11 340 l 11 357 q 11 365 11 358 q 12 378 11 372 q 16 391 12 385 q 27 396 19 396 l 201 396 q 199 428 201 407 q 199 474 198 449 q 202 525 199 499 q 211 573 205 551 q 229 609 217 595 q 258 623 240 623 q 286 612 281 623 q 292 578 292 602 q 283 507 292 541 q 275 434 275 472 q 279 407 275 418 q 301 396 283 396 q 431 404 368 396 q 562 411 495 411 l 583 411 q 612 408 598 411 q 638 398 627 406 q 650 376 650 391 l 648 374 q 648 373 648 374 q 648 370 648 372 q 641 362 644 368 q 633 353 637 357 q 626 347 629 350 q 621 343 623 343 l 304 317 q 294 313 297 317 q 290 304 292 309 q 289 294 289 298 l 289 285 q 297 204 289 243 q 305 123 305 165 q 306 98 305 119 q 304 56 307 77 q 295 16 302 34 q 271 -1 288 -1 l 267 -1 q 264 0 264 -1 q 259 5 263 1 q 251 12 255 8 q 243 21 247 16 q 237 27 239 26 z "},",":{"ha":290,"x_min":11,"x_max":264,"o":"m 94 -145 q 129 -104 115 -122 q 151 -66 142 -85 q 162 -26 159 -47 q 165 26 165 -4 q 162 26 164 26 q 157 27 160 27 q 146 24 156 26 q 125 20 136 22 q 106 15 115 18 q 94 12 96 12 l 84 12 q 59 20 72 12 q 36 41 46 28 q 18 66 26 53 q 11 91 11 80 q 24 136 11 119 q 58 165 38 153 q 100 181 77 176 q 144 186 123 186 q 195 172 172 186 q 233 136 217 157 q 256 87 248 114 q 264 33 264 60 q 256 -30 264 8 q 231 -102 248 -68 q 190 -161 214 -137 q 132 -186 165 -186 q 106 -177 114 -186 q 94 -145 99 -168 z "},"-":{"ha":408,"x_min":28,"x_max":372,"o":"m 39 317 q 28 343 24 332 q 51 361 33 354 q 98 372 69 368 q 159 378 126 376 q 227 379 193 380 q 290 377 260 378 q 340 373 319 376 q 368 368 361 370 q 370 351 368 361 q 372 334 372 342 q 368 321 372 327 q 354 316 365 316 l 39 317 z "},".":{"ha":317,"x_min":26,"x_max":293,"o":"m 26 140 q 45 174 26 160 q 92 197 65 189 q 144 208 118 205 q 184 212 171 212 q 224 198 205 212 q 258 165 243 184 q 283 123 274 145 q 293 85 293 102 q 292 60 293 73 q 288 35 292 46 q 276 14 285 23 q 251 0 267 4 q 241 -1 250 0 q 225 -2 233 -1 q 210 -3 217 -3 q 198 -3 202 -3 q 136 5 167 -3 q 81 30 104 12 q 41 75 57 47 q 26 140 26 102 z "},"/":{"ha":410,"x_min":-1,"x_max":384,"o":"m -1 39 q 7 100 -1 72 q 29 156 16 129 q 56 210 42 183 q 80 264 69 236 q 85 289 80 270 q 98 330 91 308 q 111 372 104 353 q 119 396 117 392 q 139 442 125 411 q 171 513 153 473 q 209 595 189 552 q 248 678 229 639 q 281 749 266 718 q 304 793 296 780 q 310 803 305 800 q 321 807 315 806 q 333 808 327 808 q 343 807 339 807 q 376 800 369 807 q 384 766 384 792 q 383 753 384 764 q 382 741 382 742 q 292 576 334 666 q 213 392 250 486 q 146 207 176 298 q 91 39 115 115 q 73 7 83 15 q 38 -1 64 -1 q 7 8 15 -1 q -1 39 -1 18 z "},":":{"ha":296,"x_min":45,"x_max":264,"o":"m 45 144 q 55 193 45 171 q 82 233 65 216 q 123 258 99 250 q 172 266 146 266 q 204 258 189 266 q 232 236 220 250 q 251 205 244 222 q 258 172 258 189 q 258 165 258 171 q 258 159 258 160 q 222 130 237 141 q 194 114 208 119 q 165 106 180 109 q 129 104 149 104 q 104 105 119 104 q 77 110 90 106 q 54 121 64 114 q 45 144 45 129 m 88 543 q 96 581 88 566 q 118 604 104 595 q 150 616 132 613 q 191 620 168 620 q 244 596 224 620 q 264 538 264 572 q 254 507 264 519 q 227 487 243 495 q 195 475 212 479 q 164 472 178 472 q 105 486 122 472 q 88 543 88 500 z "},";":{"ha":225,"x_min":-16,"x_max":225,"o":"m 39 -488 q 52 -431 39 -458 q 83 -374 65 -403 q 119 -319 102 -346 q 145 -264 136 -292 q 144 -256 145 -262 q 140 -243 142 -250 q 135 -232 137 -237 q 133 -225 133 -227 q 125 -216 132 -221 q 119 -212 119 -212 q 109 -214 117 -212 q 93 -218 102 -216 q 76 -222 84 -220 q 66 -225 68 -224 l 50 -225 q 3 -214 23 -225 q -16 -174 -16 -203 q -4 -134 -16 -148 q 25 -113 8 -119 q 64 -106 42 -107 q 104 -104 85 -104 l 115 -104 q 132 -105 123 -104 q 148 -106 140 -106 l 157 -106 q 188 -134 175 -118 q 209 -170 201 -151 q 221 -210 217 -189 q 225 -251 225 -231 q 212 -326 225 -290 q 179 -392 199 -361 q 132 -450 159 -423 q 79 -503 106 -477 q 73 -503 77 -503 q 66 -503 68 -503 q 50 -502 60 -503 q 39 -488 39 -500 m 11 324 q 18 363 11 346 q 39 395 26 381 q 71 416 53 410 q 111 423 90 423 q 143 414 126 423 q 176 392 160 406 q 201 362 191 378 q 212 330 212 346 q 199 300 212 312 q 168 279 186 288 q 130 267 149 271 q 96 263 110 263 q 68 267 83 263 q 40 277 53 270 q 19 297 27 285 q 11 324 11 309 z "},"<":{"ha":633,"x_min":-1,"x_max":610,"o":"m -1 423 q 5 446 -1 437 q 27 464 11 454 q 154 525 98 496 q 264 580 210 553 q 378 632 319 606 q 515 688 437 658 q 518 688 517 688 q 522 689 519 689 q 547 675 537 689 q 556 648 556 662 q 550 624 556 633 q 528 608 544 614 l 180 454 l 198 437 q 212 429 198 435 q 250 412 227 423 q 302 389 273 401 q 360 363 331 376 q 416 338 389 350 q 463 317 444 327 q 501 307 476 311 q 550 298 526 304 q 592 283 574 293 q 610 251 610 273 q 596 222 610 232 q 564 212 582 212 q 513 219 547 212 q 437 239 480 227 q 345 270 395 252 q 247 305 296 288 q 153 342 198 323 q 74 376 109 361 q 19 404 39 392 q -1 423 -1 416 z "},"=":{"ha":633,"x_min":22,"x_max":600,"o":"m 39 449 q 67 452 49 450 q 109 457 85 454 q 159 463 133 460 q 208 469 184 465 q 250 473 232 472 q 278 476 269 475 l 304 476 q 333 475 312 476 q 380 473 354 473 q 436 470 407 472 q 491 467 465 468 q 537 465 517 465 q 568 464 557 465 q 586 444 576 457 q 595 423 595 431 q 593 416 595 420 q 589 408 591 412 q 585 401 587 404 q 582 396 582 397 q 433 397 503 399 q 296 391 363 395 q 161 383 228 387 q 22 380 95 380 q 22 391 22 382 q 24 408 23 399 q 26 426 26 418 q 27 437 27 434 q 33 444 27 439 q 39 449 38 449 m 65 264 q 92 300 65 288 q 161 321 119 313 q 252 332 202 330 q 351 334 302 334 q 437 333 399 334 q 495 332 476 332 q 538 331 519 332 q 572 322 557 330 q 593 300 586 315 q 600 258 600 285 q 471 254 534 258 q 344 246 407 250 q 217 240 281 243 q 91 237 153 237 q 65 264 65 237 z "},">":{"ha":741,"x_min":11,"x_max":715,"o":"m 144 160 l 144 201 q 146 214 144 209 q 155 224 149 218 q 172 236 160 229 l 515 475 q 543 488 532 477 q 555 515 553 499 q 526 524 545 518 q 481 536 506 529 q 429 553 457 544 q 376 568 401 562 l 332 583 q 304 594 312 590 q 284 603 298 595 q 249 619 270 610 q 204 640 228 628 q 157 663 180 651 q 112 684 133 674 q 80 700 91 693 q 57 712 69 705 q 35 728 45 719 q 18 749 26 738 q 11 772 11 760 q 13 788 11 780 q 20 804 15 796 q 30 816 24 811 q 46 821 35 821 q 47 820 46 821 q 50 819 49 819 q 53 818 52 818 q 60 814 56 818 q 68 807 64 811 q 75 799 72 803 q 80 792 79 795 q 224 722 153 750 q 368 671 296 693 q 511 627 439 648 q 661 581 583 606 q 699 555 684 572 q 715 513 715 538 q 711 495 715 503 q 688 488 707 487 l 184 133 q 180 132 183 132 l 174 132 q 155 136 161 132 q 146 146 149 140 q 144 160 144 152 z "},"?":{"ha":555,"x_min":-1,"x_max":517,"o":"m 50 365 q 79 446 50 410 q 151 515 109 481 q 244 577 194 548 q 337 636 294 606 q 408 696 380 666 q 437 762 437 727 q 418 810 437 791 q 374 840 400 829 q 318 857 347 852 q 269 863 289 863 q 186 844 227 863 q 111 802 145 825 q 53 761 77 780 q 19 742 28 742 q 7 746 11 742 q 1 757 3 750 q -1 770 -1 764 l -1 784 q 14 830 -1 808 q 54 871 28 852 q 110 905 79 890 q 172 931 141 921 q 230 947 202 941 q 278 954 258 954 q 356 939 313 954 q 434 898 399 924 q 493 836 469 872 q 517 761 517 800 q 488 675 517 713 q 417 602 460 636 q 324 539 374 568 q 231 480 274 510 q 160 421 189 450 q 132 357 132 392 q 138 332 132 343 q 151 310 144 320 q 165 290 159 300 q 172 266 172 279 q 161 253 172 255 q 145 251 151 251 q 106 262 123 251 q 76 290 88 273 q 57 327 64 307 q 50 365 50 347 m 38 60 q 47 87 38 76 q 68 106 56 99 q 96 117 80 114 q 126 119 111 119 q 174 100 160 119 q 187 50 187 80 q 170 8 187 19 q 123 -3 153 -3 q 96 1 111 -3 q 68 11 80 4 q 47 30 56 18 q 38 60 38 42 z "},"@":{"ha":1360,"x_min":26,"x_max":1350,"o":"m 26 456 q 60 625 26 551 q 153 755 95 700 q 288 848 212 810 q 449 909 365 886 q 621 942 533 932 q 788 952 708 952 q 906 945 842 952 q 1032 923 970 939 q 1152 881 1095 907 q 1253 815 1208 854 q 1323 723 1297 776 q 1350 601 1350 670 q 1330 492 1350 534 q 1276 421 1310 450 q 1200 369 1242 392 q 1111 317 1157 346 l 1095 317 q 1070 317 1084 317 q 1046 316 1057 316 l 1031 316 q 974 325 1001 316 q 924 344 947 334 q 882 363 901 354 q 848 372 863 372 q 802 364 825 372 q 756 349 780 357 q 709 336 732 342 q 659 330 685 330 q 597 338 627 330 q 547 364 568 347 q 514 408 526 381 q 502 469 502 434 q 515 525 502 499 q 550 570 528 551 q 601 605 572 590 q 659 630 629 620 q 719 645 689 640 q 772 650 749 650 q 790 649 777 650 q 807 648 803 648 q 863 602 845 628 q 888 547 880 575 q 902 492 897 519 q 920 444 907 465 q 957 409 932 422 q 1032 396 982 396 q 1126 408 1082 396 q 1201 444 1169 419 q 1251 506 1233 468 q 1270 595 1270 544 q 1246 697 1270 652 q 1181 774 1222 742 q 1090 827 1141 806 q 983 862 1039 849 q 873 881 928 875 q 772 887 818 887 q 630 877 705 887 q 481 846 555 867 q 339 790 407 825 q 219 707 271 755 q 136 593 167 658 q 104 446 104 528 q 141 307 104 366 q 237 205 178 247 q 371 136 296 163 q 523 93 446 109 q 671 71 600 77 q 796 65 743 65 q 942 73 869 65 q 1088 80 1015 80 q 1101 80 1093 80 q 1114 78 1108 80 q 1123 71 1120 76 q 1123 53 1126 65 q 1093 29 1119 39 q 1027 14 1066 19 q 942 5 987 8 q 855 0 897 1 q 781 -1 814 -1 l 738 -1 q 587 7 667 -1 q 427 37 506 16 q 275 92 347 57 q 146 176 202 126 q 58 296 91 227 q 26 456 26 365 m 581 463 q 588 433 581 444 q 607 417 595 423 q 633 410 618 411 q 662 408 648 408 q 701 410 677 408 q 749 419 726 412 q 789 437 772 426 q 807 467 807 449 q 805 499 807 481 q 798 532 803 517 q 783 558 793 548 q 755 568 772 568 q 705 562 734 568 q 647 541 675 555 q 600 507 618 526 q 581 463 581 488 z "},"A":{"ha":608,"x_min":11,"x_max":595,"o":"m 488 12 q 479 59 483 30 q 471 123 475 88 q 462 193 467 157 q 452 262 457 229 q 440 319 448 294 q 423 357 433 345 l 410 357 q 390 357 400 357 q 370 357 380 357 l 357 357 q 305 357 328 357 q 260 353 282 357 q 214 345 239 350 q 157 330 190 340 q 142 315 149 327 q 131 288 136 302 q 123 260 126 274 q 119 237 119 247 q 117 203 119 228 q 113 152 115 179 q 109 100 111 125 q 104 66 106 75 q 77 38 95 50 q 39 26 60 26 q 16 34 22 26 q 11 60 11 42 q 12 69 11 61 q 12 80 12 77 q 84 444 33 264 q 212 793 136 623 q 215 799 212 795 q 223 807 218 803 q 232 814 228 811 q 237 818 236 818 q 241 819 240 818 q 243 819 243 819 l 244 821 q 304 798 275 821 q 361 742 334 776 q 410 665 388 708 q 448 582 431 623 q 475 505 465 541 q 488 449 486 469 q 519 436 503 441 q 549 425 534 431 q 576 410 564 419 q 595 382 587 401 q 595 377 595 381 q 591 369 594 373 q 587 361 589 365 q 582 357 585 357 q 569 353 579 355 q 549 348 559 350 q 528 345 538 346 q 515 343 518 343 l 515 336 q 526 207 515 274 q 555 80 537 140 q 557 75 555 79 q 562 66 559 71 q 566 58 564 62 q 568 53 567 53 l 568 46 q 551 11 568 23 q 515 -1 534 -1 q 499 1 506 -1 q 488 12 492 3 m 172 419 q 233 422 198 419 q 302 431 267 426 q 366 441 336 437 q 410 449 396 446 q 401 480 408 457 q 385 529 393 503 q 369 577 377 555 q 357 608 361 600 q 345 627 354 613 q 325 655 336 642 q 300 679 313 669 q 278 689 288 689 q 263 688 270 689 q 251 673 256 686 l 172 449 l 172 419 z "},"B":{"ha":648,"x_min":11,"x_max":610,"o":"m 27 582 q 13 592 15 586 q 11 608 11 598 q 31 657 11 637 q 79 689 50 677 q 144 707 107 701 q 215 715 180 712 q 281 717 250 718 q 330 716 312 716 q 354 715 336 716 q 391 714 372 715 q 426 713 410 713 q 449 713 442 713 q 492 698 467 705 q 540 680 517 690 q 579 651 563 669 q 595 608 595 633 q 581 561 595 581 q 545 526 567 541 q 497 500 524 511 q 445 477 471 488 q 399 453 419 465 q 370 423 380 441 q 449 397 407 414 q 527 357 491 381 q 587 299 563 334 q 610 218 610 264 q 585 120 610 161 q 520 52 560 79 q 429 13 480 26 q 324 0 378 0 l 317 0 q 304 3 312 1 q 287 6 296 4 q 271 9 278 8 q 264 12 264 11 l 53 133 q 45 144 50 134 q 39 157 41 153 q 29 262 33 206 q 24 374 26 317 q 24 484 23 430 q 27 582 26 537 m 103 362 q 121 245 103 298 q 175 156 140 193 q 262 98 210 119 q 382 77 315 77 q 431 86 406 77 q 479 111 457 95 q 516 148 502 126 q 530 195 530 170 q 507 274 530 243 q 446 323 483 305 q 361 350 408 342 q 266 361 313 358 q 176 363 218 365 q 103 362 133 362 m 304 650 q 197 640 236 650 q 136 606 157 631 q 109 538 115 581 q 102 431 102 495 q 158 439 121 431 q 240 459 195 446 q 332 489 285 472 q 416 524 378 506 q 479 562 454 543 q 503 601 503 582 q 491 618 503 610 q 458 632 479 627 q 414 641 438 637 q 367 646 389 644 q 328 649 345 648 q 304 650 311 650 z "},"C":{"ha":713,"x_min":11,"x_max":689,"o":"m 11 271 q 38 365 11 324 q 107 436 65 406 q 203 487 149 467 q 312 519 258 507 q 417 536 366 532 q 505 541 468 541 q 532 530 519 541 q 544 503 544 519 q 541 477 544 488 q 528 449 537 465 q 456 453 499 453 q 366 448 412 453 q 273 429 319 442 q 189 394 227 416 q 127 340 151 372 q 104 264 104 309 q 118 195 104 224 q 155 144 132 165 q 208 111 178 123 q 271 90 237 98 q 338 80 304 83 q 403 77 372 77 q 473 79 438 77 q 540 84 507 80 q 606 96 572 88 q 673 119 640 103 q 688 105 688 115 q 689 84 689 95 q 672 42 689 58 q 627 16 655 26 q 566 3 600 7 q 499 -2 532 -1 q 439 -2 467 -3 q 396 -1 411 -1 q 310 5 355 -1 q 222 23 264 11 q 142 56 180 35 q 75 107 103 77 q 28 178 46 137 q 11 271 11 218 z "},"D":{"ha":595,"x_min":24,"x_max":568,"o":"m 27 201 q 27 288 27 243 q 31 380 27 334 q 43 469 35 426 q 66 555 50 513 q 42 552 50 549 q 30 562 34 555 q 25 577 26 568 q 24 593 24 586 q 30 618 24 610 q 45 630 35 627 q 67 634 54 633 q 94 635 80 635 q 196 627 142 635 q 302 602 250 618 q 403 558 355 585 q 488 494 450 532 q 547 411 525 457 q 568 305 568 365 q 540 176 568 233 q 463 81 511 119 q 351 20 415 42 q 220 -1 288 -1 q 140 14 176 -1 q 79 55 104 28 q 40 119 53 81 q 27 201 27 157 m 119 119 q 146 95 129 103 q 183 83 164 87 q 222 78 202 79 q 258 77 241 77 q 347 94 304 77 q 422 141 389 111 q 473 212 454 171 q 491 301 491 254 q 475 372 491 339 q 432 434 458 406 q 371 485 406 463 q 298 523 336 507 q 222 547 260 538 q 149 555 184 555 l 145 555 q 116 500 125 534 q 105 427 107 465 q 104 351 103 388 q 106 290 106 313 l 106 264 q 108 235 106 256 q 111 191 110 214 q 115 146 113 167 q 119 119 118 126 z "},"E":{"ha":633,"x_min":11,"x_max":595,"o":"m 11 190 q 20 347 11 264 q 39 503 30 429 q 66 547 42 529 q 127 578 91 566 q 208 597 164 590 q 295 606 252 604 q 376 610 338 609 q 437 610 414 610 q 460 610 445 610 q 492 611 475 610 q 529 610 510 612 q 562 604 548 609 q 586 590 576 600 q 595 566 595 581 q 591 549 595 556 q 568 541 586 541 q 340 538 454 555 q 119 488 227 521 q 119 475 119 486 l 119 437 q 119 423 119 426 q 117 413 119 420 q 112 397 114 406 q 107 380 110 388 q 104 370 104 372 q 110 363 104 368 q 119 357 115 358 l 133 357 q 164 359 140 357 q 221 364 189 361 q 290 370 254 368 q 359 376 327 373 q 417 380 392 378 q 449 382 442 381 l 454 382 q 466 383 460 382 q 476 384 472 384 l 486 384 q 520 379 510 384 q 530 349 530 374 q 511 318 530 327 q 462 306 492 309 q 392 303 431 302 q 312 304 353 304 q 231 302 271 305 q 161 290 191 300 q 112 260 130 281 q 94 205 94 240 q 111 129 94 157 q 159 85 129 100 q 227 64 189 69 q 304 59 264 58 q 385 62 345 60 q 461 65 426 65 q 520 73 494 65 q 575 80 547 80 q 588 75 583 80 q 594 64 593 71 q 595 50 595 57 l 595 38 q 593 11 595 22 q 568 0 590 0 l 184 0 q 106 14 140 0 q 53 54 73 28 q 22 115 33 80 q 11 190 11 149 z "},"F":{"ha":608,"x_min":26,"x_max":582,"o":"m 66 237 q 35 254 45 244 q 26 285 26 264 q 30 302 26 297 q 40 311 34 308 q 53 318 46 315 q 66 330 60 321 q 69 362 66 339 q 73 410 72 385 q 77 457 75 434 q 80 488 79 480 q 79 494 80 490 q 79 505 79 499 q 78 514 79 510 q 77 519 77 518 q 64 518 73 519 q 47 517 56 517 q 33 520 39 517 q 27 534 27 524 q 35 562 27 548 q 53 582 42 575 q 170 605 111 597 q 290 616 229 613 q 409 620 350 620 q 526 620 468 620 q 565 614 548 620 q 582 582 582 608 q 577 558 582 567 q 555 541 572 549 q 498 542 538 541 q 410 543 457 543 q 322 542 363 543 q 264 541 281 541 q 234 539 252 541 q 199 536 216 537 q 170 532 182 534 q 157 528 157 529 l 157 319 l 475 290 q 490 281 484 289 q 501 266 496 274 q 508 247 506 258 q 510 231 510 236 l 145 231 l 145 -11 q 99 2 117 -11 q 73 36 81 15 q 61 84 64 57 q 59 138 58 111 q 62 192 60 165 q 66 237 65 218 z "},"G":{"ha":727,"x_min":11,"x_max":700,"o":"m 595 39 q 515 11 548 22 q 454 -5 481 0 q 397 -12 426 -11 q 330 -14 369 -14 q 214 3 271 -14 q 112 52 157 19 q 39 137 66 85 q 11 258 11 189 q 37 358 11 313 q 106 435 64 403 q 203 492 149 468 q 315 529 258 515 q 426 549 372 543 q 522 556 480 556 l 534 556 q 551 555 541 556 q 570 555 562 555 l 582 555 q 587 551 583 555 q 595 543 591 548 q 603 534 600 538 q 608 528 606 530 q 609 526 608 526 l 609 524 l 610 522 q 610 520 610 521 q 609 518 609 519 q 608 515 608 517 q 603 509 606 513 q 595 500 600 505 q 587 492 591 495 q 582 488 583 488 q 499 483 548 487 q 397 469 450 479 q 292 443 345 458 q 199 403 240 427 q 131 344 157 378 q 104 260 104 309 q 120 182 104 218 q 162 119 136 146 q 225 74 189 91 q 304 53 262 57 q 371 54 332 50 q 449 66 410 57 q 523 88 488 75 q 582 119 557 102 q 596 138 589 126 q 612 160 604 149 q 629 180 620 171 q 648 189 637 189 q 677 176 666 189 q 700 145 688 164 l 700 140 q 699 55 700 92 q 695 -16 697 18 q 691 -80 693 -49 q 688 -146 689 -111 q 686 -222 686 -180 q 688 -317 686 -264 q 674 -330 684 -326 q 654 -338 665 -335 q 633 -342 643 -342 q 621 -343 624 -343 q 606 -339 616 -343 q 595 -331 595 -335 l 595 39 z "},"H":{"ha":648,"x_min":11,"x_max":624,"o":"m 94 251 q 96 231 94 247 q 100 198 98 216 q 103 165 102 180 q 104 145 104 149 l 104 129 q 100 115 104 119 q 89 108 96 111 q 74 104 81 104 q 60 104 66 104 q 26 119 34 104 q 12 157 19 133 l 12 180 q 12 217 12 198 q 11 254 11 236 l 11 278 q 12 359 11 323 q 14 432 12 396 q 18 506 15 468 q 27 595 22 544 q 28 611 26 605 q 35 619 30 617 q 46 622 39 621 q 58 623 53 623 q 77 621 66 623 q 94 608 88 620 q 105 496 102 551 q 104 382 109 441 l 119 370 l 499 370 q 500 416 499 399 q 503 446 502 434 q 503 467 503 457 q 502 489 503 476 q 498 519 500 502 q 488 568 495 537 q 503 581 492 581 q 524 582 514 582 q 549 562 537 582 q 570 507 560 541 q 587 426 579 472 q 601 330 595 380 q 611 231 606 281 q 618 136 616 180 q 623 55 621 91 q 624 0 624 19 l 568 0 q 561 15 566 0 q 550 51 556 30 q 538 94 544 72 q 528 133 532 117 q 525 157 526 137 q 522 198 524 176 q 518 239 519 220 q 515 264 517 259 q 509 280 514 270 q 503 290 503 290 l 104 290 q 100 280 104 290 q 94 264 95 270 l 94 251 z "},"I":{"ha":172,"x_min":9,"x_max":149,"o":"m 11 457 q 11 495 11 473 q 15 536 11 517 q 29 569 19 556 q 62 582 39 582 q 81 563 73 582 q 92 513 88 544 q 99 446 96 483 q 102 376 102 410 q 104 315 103 342 q 104 278 104 288 q 115 207 107 243 q 130 134 122 171 q 143 62 137 98 q 149 -5 149 27 q 73 15 102 -5 q 31 69 45 35 q 12 147 16 103 q 9 237 8 191 q 13 328 11 282 q 12 410 15 373 l 12 416 q 12 430 12 423 q 11 444 11 437 l 11 457 z "},"J":{"ha":766,"x_min":22,"x_max":742,"o":"m 106 184 q 109 208 106 193 q 117 236 111 222 q 131 260 122 250 q 153 271 140 271 q 162 191 153 228 q 191 125 171 153 q 245 80 212 96 q 330 64 279 64 q 367 66 349 64 q 403 74 385 68 q 435 91 420 80 q 464 119 450 102 q 465 135 464 123 q 465 159 465 146 q 466 182 465 171 q 467 198 467 194 q 464 271 467 239 q 454 334 461 302 q 433 398 446 365 q 396 475 419 431 l 396 528 l 22 528 l 22 540 q 24 556 22 548 q 29 572 26 564 q 39 582 33 581 q 68 586 47 582 q 111 594 88 590 q 155 602 134 598 q 184 608 176 606 l 212 608 q 271 606 231 606 q 363 604 312 605 q 470 602 414 604 q 576 598 526 600 q 667 596 627 597 q 727 595 708 595 q 740 583 738 590 q 742 568 742 576 q 729 541 742 555 q 700 528 716 528 l 503 528 q 478 519 481 528 q 475 495 475 511 q 486 419 475 457 q 512 343 498 381 q 539 266 526 305 q 555 184 552 227 q 537 98 557 133 q 482 41 517 62 q 404 9 448 19 q 317 -1 359 -1 q 241 12 278 -1 q 173 49 203 24 q 124 108 142 73 q 106 184 106 142 z "},"K":{"ha":727,"x_min":12,"x_max":715,"o":"m 12 503 q 13 528 12 513 q 17 559 14 544 q 28 585 20 574 q 53 595 37 595 q 79 587 71 595 q 91 567 88 579 q 93 541 94 555 q 94 515 92 526 q 95 478 94 505 q 98 422 96 452 q 102 367 100 393 q 104 330 104 340 l 119 330 l 330 437 q 361 467 343 453 q 395 496 378 481 q 430 524 412 510 q 463 555 448 538 l 503 555 l 503 503 q 486 478 503 495 q 446 442 468 461 q 401 406 423 423 q 370 382 380 388 q 341 367 362 378 q 297 342 320 355 q 254 319 274 330 q 225 304 233 308 l 595 104 q 621 103 601 104 q 661 96 640 102 q 699 81 682 91 q 715 53 715 71 q 713 38 715 45 q 700 27 711 31 q 688 26 696 27 q 671 26 680 26 q 653 26 662 26 q 642 26 644 26 q 551 40 594 26 q 467 77 509 54 q 387 125 426 99 q 308 173 349 151 q 224 211 267 195 q 133 227 180 227 q 125 226 130 227 q 119 225 119 225 q 118 192 117 213 q 119 146 119 171 q 117 94 119 121 q 109 47 115 68 q 91 12 103 26 q 58 -3 79 -3 q 34 4 39 -3 q 27 39 28 11 q 26 59 27 45 q 26 92 26 73 l 26 133 q 26 172 26 153 q 27 205 27 191 l 27 225 q 26 253 27 232 q 22 302 24 274 q 19 363 20 331 q 16 425 18 396 q 14 474 15 453 q 12 503 12 495 z "},"L":{"ha":766,"x_min":26,"x_max":753,"o":"m 27 66 l 27 98 q 26 148 27 122 q 26 198 26 174 l 26 273 q 26 328 26 301 q 27 373 27 354 l 27 435 q 29 477 27 457 q 37 517 31 498 q 53 555 42 537 q 64 566 60 564 q 80 568 68 568 q 96 566 85 568 q 106 555 106 564 l 106 133 q 121 99 106 110 q 157 84 136 88 q 199 80 178 80 l 236 80 q 357 84 296 80 q 477 93 418 88 q 597 101 537 98 q 719 104 658 104 l 734 104 q 745 102 742 104 q 751 91 749 99 q 753 66 753 83 q 747 58 753 62 q 734 50 741 53 q 713 39 724 45 q 657 35 696 38 q 570 27 618 31 q 469 19 522 23 q 368 11 416 15 q 281 4 319 7 q 225 0 243 1 l 157 0 q 104 5 129 0 q 58 25 79 11 q 27 66 38 39 z "},"M":{"ha":806,"x_min":11,"x_max":795,"o":"m 688 39 q 684 77 686 52 q 680 133 682 102 q 675 199 678 164 q 669 264 673 233 q 664 320 666 296 q 661 357 662 345 q 659 371 661 361 q 654 393 658 381 q 644 414 651 404 q 627 423 637 423 q 578 415 606 423 q 519 397 549 407 q 459 381 488 388 q 406 374 430 374 q 319 392 357 374 q 246 430 281 410 q 176 468 212 450 q 95 486 140 486 q 101 330 95 406 q 107 176 107 254 q 106 159 107 170 q 106 141 106 149 q 104 119 104 130 l 39 80 l 27 91 q 25 107 26 92 q 23 146 24 122 q 20 201 22 171 q 17 261 19 231 q 14 321 15 292 q 12 370 14 350 l 12 387 q 12 420 12 401 q 11 457 11 438 l 11 513 q 12 549 11 530 q 12 585 12 568 l 12 608 q 26 621 15 620 q 46 623 37 623 q 56 621 47 623 q 66 620 65 620 q 154 557 113 587 q 238 505 195 528 q 327 469 281 483 q 430 456 373 456 q 491 456 458 446 q 555 485 524 467 q 614 524 586 503 q 661 556 642 544 q 686 548 674 556 q 707 528 697 540 q 721 502 716 515 q 727 475 726 488 q 730 433 727 461 q 738 370 734 406 l 754 222 q 762 160 758 189 q 766 119 765 132 q 772 95 768 106 l 781 71 q 791 47 787 60 q 795 26 795 35 q 787 9 795 15 q 771 1 780 4 q 750 -1 762 -1 l 732 -1 q 703 9 712 -1 q 688 39 694 19 z "},"N":{"ha":845,"x_min":12,"x_max":821,"o":"m 12 264 q 26 300 19 277 q 37 351 33 323 q 49 409 42 380 q 63 463 56 438 q 81 502 71 487 q 104 517 91 517 q 113 516 107 517 q 119 515 118 515 q 397 315 250 404 q 700 157 544 227 q 707 157 703 157 q 713 157 711 157 q 728 159 722 157 q 741 172 735 160 q 709 262 723 212 q 684 363 694 312 q 666 463 673 415 q 659 548 659 511 q 661 563 659 553 q 666 583 663 572 q 674 600 669 593 q 688 608 680 608 q 704 606 693 608 q 726 598 715 604 q 746 585 738 593 q 754 568 754 578 q 747 539 754 553 q 741 510 741 525 l 741 503 q 743 487 741 499 q 747 462 745 475 q 750 437 749 449 q 753 423 751 426 l 753 410 q 774 338 762 377 q 797 257 787 298 q 814 173 807 216 q 821 91 821 130 q 819 66 821 77 q 813 45 818 54 q 799 31 808 35 q 774 26 789 26 q 742 31 758 26 q 711 47 726 37 q 684 68 696 57 q 661 91 671 80 l 145 370 l 140 370 l 140 372 q 125 359 132 372 q 115 331 119 346 q 107 304 110 316 q 104 290 104 292 q 106 271 104 285 q 109 238 107 258 q 111 197 110 218 q 114 157 113 176 q 117 124 115 138 q 119 104 119 110 l 119 12 q 111 3 117 5 q 97 -1 104 0 q 82 -2 90 -3 q 73 -1 75 -1 q 56 -1 68 -1 q 39 0 43 0 l 12 264 z "},"O":{"ha":673,"x_min":12,"x_max":650,"o":"m 12 278 q 28 352 12 316 q 70 419 43 388 q 131 475 96 450 q 203 518 165 500 q 279 546 241 536 q 351 556 317 556 q 479 531 425 556 q 572 463 534 506 q 630 359 610 419 q 650 229 650 300 q 583 56 650 113 q 392 -1 515 -1 q 315 7 357 -1 q 231 33 273 16 q 149 73 189 49 q 80 127 110 96 q 31 195 50 157 q 12 278 12 233 m 104 275 q 135 193 104 229 q 210 130 165 156 q 302 91 254 104 q 387 77 350 77 q 467 85 430 77 q 530 111 503 92 q 574 160 557 129 q 595 237 590 191 q 581 336 600 292 q 529 411 563 380 q 450 458 495 442 q 357 475 406 475 q 274 460 319 475 q 192 418 229 445 q 130 355 155 392 q 104 275 104 319 z "},"P":{"ha":541,"x_min":9,"x_max":517,"o":"m 11 228 q 12 269 11 241 q 16 328 12 296 q 23 393 19 359 q 35 454 27 426 q 55 499 42 481 q 85 517 68 517 q 87 517 87 517 q 90 517 88 517 q 94 515 91 515 q 99 511 95 514 q 107 503 103 507 q 115 494 111 499 q 119 488 118 490 q 102 447 107 463 q 94 420 96 431 q 92 402 91 410 q 95 385 94 395 q 98 359 96 374 q 99 319 99 343 q 157 323 122 319 q 229 334 191 327 q 303 354 266 342 q 370 385 340 366 q 418 427 400 403 q 437 486 437 452 q 412 521 437 506 q 350 545 388 536 q 267 559 312 555 q 178 566 221 564 q 101 568 136 568 q 53 568 66 568 q 40 580 42 572 q 38 595 38 587 q 44 618 38 610 q 66 633 50 627 q 81 633 71 633 q 102 633 91 633 q 124 634 114 633 q 140 635 134 635 q 208 634 178 635 q 267 630 237 633 q 331 622 297 627 q 410 608 365 617 q 454 584 434 593 q 488 564 473 575 q 510 534 503 552 q 517 480 517 515 q 494 400 517 434 q 437 341 472 366 q 356 299 401 316 q 263 271 311 282 q 171 251 216 259 q 94 237 126 243 l 94 191 q 94 149 94 167 q 96 113 95 132 q 99 75 96 95 q 104 27 102 54 q 85 7 98 15 q 60 0 73 0 q 33 14 42 0 q 18 51 23 28 q 11 100 12 73 q 10 152 9 126 q 11 198 11 178 q 11 228 11 218 z "},"Q":{"ha":700,"x_min":26,"x_max":689,"o":"m 396 -27 q 273 -11 338 -23 q 153 29 209 1 q 62 102 98 57 q 26 218 26 148 q 38 308 26 266 q 73 388 50 350 q 128 457 96 426 q 198 515 160 488 q 208 520 201 517 q 225 529 216 524 q 241 537 235 534 l 251 541 q 258 548 254 543 q 264 555 263 553 l 285 555 q 317 555 301 555 q 350 556 334 556 l 370 556 q 511 540 450 556 q 610 487 571 524 q 669 391 650 450 q 689 243 689 331 q 677 147 689 186 q 639 80 665 109 q 576 31 613 52 q 488 -12 538 9 q 505 -55 495 -35 q 526 -94 515 -75 q 548 -132 537 -113 q 568 -172 559 -151 q 549 -184 557 -182 q 526 -186 540 -186 q 482 -165 499 -186 q 452 -117 465 -144 q 426 -64 438 -90 q 396 -27 414 -38 m 104 202 q 134 127 104 157 q 205 81 163 98 q 292 58 247 65 q 372 50 338 50 q 364 127 372 90 q 357 205 357 165 l 357 213 q 357 228 357 220 q 357 241 357 236 l 357 251 q 361 258 357 254 q 369 267 365 262 q 376 274 373 271 q 382 278 380 277 q 412 267 403 281 q 425 231 420 254 q 432 178 430 208 q 437 125 434 149 q 448 83 441 100 q 468 66 454 66 q 538 85 510 66 q 585 132 567 103 q 612 195 604 160 q 621 264 621 229 q 606 377 621 331 q 561 451 591 423 q 485 491 530 479 q 378 503 439 503 q 273 476 323 503 q 186 406 222 449 q 127 308 149 362 q 104 202 104 254 z "},"R":{"ha":818,"x_min":26,"x_max":810,"o":"m 111 212 l 111 66 q 106 60 111 65 q 95 48 102 54 q 80 35 88 42 q 66 27 72 28 q 61 26 64 26 q 57 26 60 26 l 53 26 q 38 27 45 26 q 27 39 31 28 l 27 60 q 26 93 27 76 q 26 125 26 110 l 26 145 q 42 344 26 258 q 104 492 58 430 q 229 591 149 555 q 437 633 309 627 q 471 617 456 628 q 496 591 486 606 q 511 558 506 575 q 517 522 517 541 q 498 456 517 487 q 451 399 479 426 q 390 349 423 372 q 329 309 357 327 q 282 277 301 292 q 263 251 263 262 q 275 217 263 235 q 308 183 288 199 q 353 153 328 167 q 401 126 377 138 q 445 105 425 114 q 475 91 465 96 l 499 91 q 536 91 517 91 q 571 91 555 91 l 595 91 q 650 94 624 91 q 703 100 677 96 q 755 106 728 103 q 810 109 781 109 q 794 61 810 80 q 754 30 779 42 q 699 11 730 18 q 640 2 669 4 q 582 0 610 0 l 541 0 q 432 18 486 0 q 329 65 378 35 q 236 133 279 95 q 157 212 193 171 l 111 212 m 132 342 q 144 321 132 326 q 172 316 157 316 q 218 325 191 316 q 274 347 245 334 q 330 380 302 361 q 378 421 357 399 q 412 468 399 444 q 426 515 426 492 q 419 545 426 534 q 389 555 412 555 q 299 541 345 555 q 216 499 254 526 q 155 432 179 472 q 132 342 132 392 z "},"S":{"ha":673,"x_min":26,"x_max":650,"o":"m 26 152 q 27 176 26 167 q 39 198 28 186 q 78 165 65 182 q 99 135 91 149 q 117 109 107 121 q 148 87 126 96 q 208 72 170 77 q 311 66 245 66 q 349 66 324 66 q 402 70 373 66 q 461 79 431 73 q 515 97 491 85 q 555 125 540 109 q 571 167 571 142 q 570 177 571 171 q 568 184 568 183 l 503 251 l 66 370 q 48 380 54 373 q 39 395 42 387 q 37 412 37 403 l 37 431 q 62 495 37 468 q 125 540 87 522 q 212 569 164 557 q 307 587 260 581 q 394 594 354 593 q 456 595 434 595 l 471 595 q 492 595 480 595 q 513 595 503 595 l 528 595 q 543 581 541 591 q 544 562 544 571 q 519 534 544 543 q 455 520 494 525 q 368 511 416 515 q 273 500 319 507 q 190 477 228 492 q 133 437 152 463 l 157 423 l 541 317 q 585 292 564 311 q 619 250 605 274 q 642 200 633 227 q 650 152 650 174 q 635 94 650 119 q 597 52 620 69 q 544 25 574 35 q 483 9 514 15 q 421 1 452 3 q 366 -1 391 -1 q 304 -1 340 -1 q 231 4 269 0 q 156 17 193 8 q 90 43 119 26 q 43 85 61 60 q 26 152 26 111 z "},"T":{"ha":859,"x_min":26,"x_max":848,"o":"m 396 503 q 380 503 395 503 q 349 503 366 503 q 313 504 331 503 q 288 505 296 505 q 163 496 222 505 q 45 488 104 488 q 28 500 31 488 q 26 522 26 511 q 41 557 26 544 q 80 576 57 570 q 132 585 103 583 q 187 587 160 587 q 237 584 214 586 q 271 582 259 582 q 545 572 406 582 q 819 555 685 562 q 825 551 821 555 q 833 543 829 548 q 842 534 838 538 q 845 528 845 530 q 846 526 845 526 l 846 524 l 848 522 q 847 520 848 521 q 846 518 846 519 q 845 515 845 517 q 840 508 844 513 q 831 499 836 503 q 824 492 827 495 q 819 488 821 488 l 510 488 q 504 437 510 461 q 490 391 498 414 q 474 343 481 368 q 464 290 467 319 l 464 278 q 462 248 463 267 q 459 203 461 228 q 456 152 457 179 q 454 100 456 125 q 451 55 452 75 q 449 27 450 35 q 419 -2 441 4 q 378 -8 397 -8 q 375 115 378 50 q 376 246 372 180 q 395 374 380 312 q 449 488 411 437 l 396 503 z "},"U":{"ha":633,"x_min":11,"x_max":610,"o":"m 11 426 l 11 456 q 13 496 11 475 q 19 541 15 518 q 31 581 23 563 q 50 611 38 600 q 80 623 62 623 q 96 616 91 623 q 104 600 102 610 q 107 581 107 590 l 107 563 q 106 537 107 548 q 104 515 106 526 q 100 491 103 503 q 94 463 98 479 q 102 373 98 419 q 115 284 107 327 q 137 204 123 241 q 174 139 151 167 q 235 94 198 111 q 324 77 271 77 q 381 81 350 77 q 442 94 412 84 q 496 122 472 103 q 528 172 519 141 q 528 193 528 178 q 529 224 529 208 q 530 256 529 241 q 530 278 530 271 q 524 342 530 311 q 509 405 517 374 q 494 465 500 435 q 488 528 488 495 q 492 557 488 545 q 515 568 495 568 q 556 549 540 568 q 583 500 572 530 q 599 434 594 471 q 607 362 604 397 q 610 298 610 327 l 610 258 q 587 138 610 187 q 522 58 563 88 q 422 14 480 27 q 297 0 365 0 q 199 18 241 0 q 125 68 157 37 q 72 142 94 100 q 37 233 50 184 q 17 330 23 281 q 11 426 11 380 z "},"V":{"ha":661,"x_min":11,"x_max":650,"o":"m 53 449 q 39 469 46 457 q 26 493 33 480 q 15 519 19 506 q 11 541 11 532 q 39 568 11 568 q 98 541 73 568 q 144 469 123 513 q 182 374 164 426 q 217 275 199 323 q 256 187 235 227 q 304 133 277 148 l 410 330 l 423 343 q 444 370 430 351 q 473 412 457 388 q 508 463 490 437 q 544 511 526 488 q 574 553 562 534 q 595 582 587 572 q 601 582 595 582 q 608 582 606 582 q 639 568 628 582 q 650 534 650 555 q 649 525 650 533 q 648 515 648 517 q 629 489 642 506 q 602 449 617 472 q 568 402 586 426 q 535 356 551 378 q 507 316 519 334 q 488 290 495 298 q 483 283 488 288 q 475 278 477 279 l 343 27 q 336 22 343 26 q 321 15 330 19 q 304 6 313 11 q 290 0 296 1 q 283 -1 289 0 q 274 -1 278 -1 l 269 -1 q 264 0 266 -1 l 53 449 z "},"W":{"ha":990,"x_min":26,"x_max":979,"o":"m 39 528 q 27 551 28 541 q 26 575 26 560 q 31 600 26 590 q 53 610 35 610 q 72 605 64 610 q 87 591 80 600 q 99 573 95 582 q 106 555 103 564 q 134 454 122 499 q 155 364 146 410 q 171 269 164 319 q 184 157 178 220 l 198 133 q 220 142 209 136 q 237 157 231 149 q 258 188 244 167 q 291 235 273 209 q 330 290 309 262 q 368 345 350 319 q 401 392 387 372 q 423 423 416 412 q 441 444 434 438 q 464 450 448 450 q 498 429 477 450 q 546 375 519 408 q 600 302 572 342 q 653 225 627 262 q 702 159 680 189 q 741 119 724 129 q 743 119 742 119 q 746 118 745 118 l 750 118 q 753 119 751 118 l 766 133 l 911 633 q 920 656 917 651 q 936 662 922 662 q 957 656 949 662 q 970 641 964 650 q 977 621 975 632 q 979 600 979 610 q 973 550 979 585 q 957 471 967 515 q 932 372 947 426 q 901 267 918 319 q 865 168 883 216 q 827 81 846 119 q 789 21 808 43 q 753 -1 770 -1 q 747 -1 751 -1 q 741 0 742 0 q 665 73 700 35 q 600 151 631 111 q 538 232 568 191 q 475 317 507 273 q 469 324 473 319 q 464 330 465 330 q 460 331 461 330 q 457 332 457 331 q 456 332 457 332 q 417 307 438 332 q 373 245 396 282 q 323 165 350 209 q 270 86 297 122 q 215 25 243 50 q 157 0 187 0 q 153 3 157 0 q 146 10 149 5 q 138 20 142 15 q 133 27 134 24 q 132 33 132 28 q 133 39 132 38 l 39 528 z "},"X":{"ha":700,"x_min":12,"x_max":675,"o":"m 26 41 q 41 88 26 62 q 77 140 56 114 q 123 192 98 167 q 170 237 149 217 q 203 272 191 258 q 212 290 216 286 l 27 488 q 22 496 26 490 q 17 508 19 502 q 14 520 15 514 q 12 528 12 526 q 16 534 12 530 q 24 543 19 538 q 33 551 28 548 q 39 555 37 555 q 47 553 42 555 q 60 551 53 552 q 72 547 66 549 q 80 541 77 544 l 264 357 l 290 357 q 358 429 319 388 q 443 507 397 469 q 536 570 488 544 q 627 595 583 595 q 642 595 633 595 q 658 592 651 595 q 670 584 665 589 q 675 568 675 579 q 673 549 675 557 q 661 528 670 540 q 616 507 646 524 q 552 469 587 491 q 479 421 517 448 q 412 370 442 395 q 362 323 381 345 q 343 290 343 302 l 343 278 q 357 256 343 271 q 393 221 372 240 q 440 181 414 202 q 492 143 467 160 q 540 115 518 126 q 575 104 562 104 q 590 107 585 104 q 601 113 595 110 q 612 117 606 115 q 629 119 618 119 q 656 108 650 119 q 662 77 662 96 q 652 50 662 60 q 626 34 642 39 q 593 27 610 28 q 564 26 576 26 q 514 37 541 26 q 458 66 487 49 q 403 106 430 84 q 352 151 376 129 q 309 193 328 174 q 278 225 289 212 q 180 130 227 176 q 94 27 133 84 q 85 10 87 16 q 81 2 83 4 q 77 -1 80 0 q 61 -1 73 -1 q 31 7 37 -1 q 26 41 26 16 z "},"Y":{"ha":568,"x_min":0,"x_max":555,"o":"m 132 46 q 132 62 132 50 q 133 80 133 75 q 147 108 137 88 q 171 153 157 127 q 199 205 184 178 q 227 256 213 232 q 250 300 240 281 q 264 330 260 320 q 270 343 266 334 q 278 363 274 353 q 286 382 282 373 q 290 396 289 392 q 245 440 273 419 q 184 484 217 461 q 119 530 152 506 q 60 581 87 555 q 17 637 34 608 q 0 700 0 666 q 6 734 0 726 q 33 743 12 743 q 42 743 34 743 q 53 741 50 742 q 83 693 65 720 q 123 636 102 666 q 170 578 145 606 q 221 526 195 549 q 275 489 247 503 q 330 475 302 475 q 337 475 332 475 q 343 475 342 475 q 360 507 349 484 q 384 555 372 530 q 408 603 396 581 q 423 633 419 625 q 431 660 426 642 q 443 699 437 678 q 457 741 449 719 q 475 780 465 762 q 496 809 484 798 q 522 821 507 821 l 524 819 l 526 819 q 528 818 526 818 q 534 814 530 818 q 543 807 538 811 q 551 799 548 803 q 555 793 555 795 q 492 598 529 694 q 410 410 456 502 l 410 382 q 378 338 400 372 q 331 262 357 305 q 277 174 305 220 q 225 89 250 127 q 183 24 201 50 q 160 -1 165 -1 q 134 12 137 -1 q 132 46 132 26 z "},"Z":{"ha":990,"x_min":12,"x_max":966,"o":"m 12 53 q 16 60 12 56 l 24 72 q 33 83 28 79 q 39 91 37 88 l 370 396 q 396 413 380 403 q 432 437 412 423 q 472 468 452 452 q 508 499 492 484 q 534 527 524 514 q 544 548 544 540 q 543 551 544 549 q 541 555 541 553 q 466 555 513 557 q 365 551 419 553 q 257 551 311 549 q 159 562 203 552 q 88 592 115 572 q 61 650 61 612 q 77 649 65 650 q 103 648 90 648 q 129 648 117 648 q 145 648 141 648 q 205 647 164 648 q 296 644 245 646 q 404 642 347 643 q 511 639 460 640 q 602 635 562 637 q 661 633 642 633 q 684 618 678 627 q 689 595 689 610 q 670 549 689 575 q 620 492 651 524 q 548 426 589 461 q 462 355 507 391 q 370 283 416 319 q 280 212 323 247 q 202 147 237 178 q 145 91 167 117 l 184 91 q 365 100 274 91 q 547 119 456 109 q 728 137 637 129 q 905 145 818 145 q 966 91 966 145 q 932 71 966 80 q 844 54 899 62 q 715 39 788 46 q 566 25 643 31 q 410 14 488 19 q 264 6 331 9 q 146 1 197 3 q 73 -1 96 -1 l 64 -1 q 50 -1 57 -1 q 35 0 42 0 l 27 0 q 22 9 26 3 q 17 25 19 16 q 14 42 15 34 q 12 53 12 50 z "},"[":{"ha":503,"x_min":11,"x_max":490,"o":"m 11 85 q 18 141 11 115 q 27 198 26 167 q 29 238 27 209 q 33 308 31 267 q 39 397 35 349 q 46 495 42 445 q 54 594 50 545 q 59 684 57 643 q 63 753 61 724 q 66 793 65 783 q 66 803 66 796 q 66 815 65 810 q 69 826 66 821 q 80 833 72 831 l 382 872 q 391 868 385 872 q 403 858 396 864 q 415 845 410 852 q 423 833 420 838 q 420 816 426 825 q 404 800 414 807 q 385 786 395 792 q 370 780 374 780 q 351 781 365 780 q 317 782 336 781 q 274 782 297 783 q 229 780 251 781 q 189 775 208 779 q 157 766 170 772 q 151 735 155 765 q 142 658 146 705 q 134 550 138 610 q 125 427 129 490 q 117 304 121 365 q 111 197 114 244 q 106 121 109 151 q 104 91 104 92 l 115 91 q 132 91 123 91 q 148 91 140 91 l 157 91 q 231 100 195 91 q 303 118 267 109 q 374 136 339 127 q 442 145 408 145 q 475 134 460 145 q 490 104 490 122 q 484 77 490 88 q 463 53 477 66 q 362 27 406 38 q 279 10 319 16 q 200 1 240 4 q 111 -3 160 -3 q 98 -3 109 -3 q 76 -2 88 -3 q 53 -1 64 -1 q 39 0 42 0 q 23 15 28 4 q 14 38 18 26 q 11 64 11 50 l 11 85 z "},"\\":{"ha":555,"x_min":0,"x_max":555,"o":"m 12 688 q 9 694 11 689 q 5 707 7 700 q 1 719 3 713 q 0 727 0 724 q 3 738 0 731 q 11 751 5 745 q 22 762 16 757 q 33 766 27 766 l 39 766 q 53 760 42 765 l 66 753 q 81 729 72 745 q 104 694 91 713 q 132 654 118 675 q 159 612 146 632 l 182 578 q 198 555 193 562 q 204 548 198 553 q 212 541 210 543 l 449 212 q 472 168 457 189 q 502 125 487 146 q 531 84 517 104 q 555 39 545 64 q 542 31 551 37 q 522 19 533 26 q 502 7 511 12 q 488 0 492 1 q 486 -1 488 -1 l 481 -1 q 451 19 468 -1 q 420 64 434 39 q 397 113 407 88 q 382 145 387 137 l 12 688 z "},"]":{"ha":449,"x_min":-1,"x_max":423,"o":"m -1 47 q 18 71 -1 62 q 66 86 37 80 q 130 96 95 92 q 193 104 164 99 q 243 115 222 109 q 264 133 263 121 q 284 280 274 203 q 302 435 294 357 q 313 591 309 514 q 317 741 317 669 l 317 753 q 250 760 288 760 q 172 761 212 760 q 97 768 133 762 q 39 793 61 773 q 41 814 41 803 q 46 836 42 826 q 58 853 50 846 q 77 860 65 860 q 160 856 117 860 q 247 846 203 852 q 332 838 290 841 q 410 833 374 834 q 421 810 419 821 q 423 787 423 800 q 421 757 423 769 q 410 727 419 745 q 387 578 399 662 q 366 407 376 495 q 353 230 357 319 q 357 66 350 141 q 302 28 339 42 q 222 9 264 15 q 140 1 180 3 q 73 -1 99 -1 l 64 -1 q 50 -1 57 -1 q 35 0 42 0 l 27 0 q 7 20 15 7 q -1 47 -1 34 z "},"^":{"ha":423,"x_min":11,"x_max":410,"o":"m 11 608 q 19 665 11 631 q 40 735 27 699 q 72 808 53 772 q 113 874 91 845 q 161 921 136 903 q 214 939 187 939 q 232 939 222 939 q 251 937 241 940 q 267 930 260 935 q 278 911 274 925 q 298 832 285 872 q 329 753 311 792 q 368 678 347 715 q 410 608 388 642 q 387 576 396 587 q 358 566 377 566 q 324 586 340 566 q 294 635 308 606 q 268 699 281 665 q 244 764 255 734 q 223 814 233 795 q 205 834 213 834 q 166 814 180 834 q 143 762 152 793 q 127 694 134 731 q 110 627 119 658 q 83 575 100 595 q 39 555 66 555 q 28 562 33 555 q 19 577 23 568 q 13 595 15 586 q 11 608 11 604 z "},"_":{"ha":582,"x_min":26,"x_max":555,"o":"m 39 12 q 30 20 33 14 q 26 33 27 26 q 26 46 26 39 q 26 57 26 53 q 39 85 26 77 q 73 96 53 94 q 113 96 92 98 q 145 95 133 95 q 241 93 195 95 q 332 90 286 91 q 425 85 377 88 q 528 80 472 81 q 536 76 530 79 q 545 68 541 73 q 551 60 548 64 q 555 53 555 56 q 550 41 555 50 q 541 27 545 31 q 536 20 541 26 q 528 12 530 14 q 484 5 503 8 q 448 1 465 3 q 412 0 430 0 l 372 0 q 288 3 330 0 l 205 8 q 122 13 164 11 q 39 12 80 15 z "},"`":{"ha":738,"x_min":91,"x_max":648,"o":"m 648 572 q 584 564 621 563 q 505 572 547 564 q 421 591 464 579 q 342 614 378 602 q 277 637 305 627 q 236 652 250 648 q 224 657 229 655 q 210 663 218 659 q 189 673 202 667 l 157 689 q 136 701 148 694 q 114 717 125 708 q 97 737 103 726 q 91 762 91 749 q 93 777 91 769 q 99 793 95 785 q 109 805 103 800 q 125 810 115 810 q 126 809 126 810 q 129 808 126 808 q 133 807 130 807 q 138 804 134 807 q 146 795 142 800 q 153 787 149 791 q 157 780 157 783 q 245 736 208 753 q 313 710 282 720 q 374 694 345 700 q 434 682 403 688 q 503 666 465 675 q 593 639 541 656 q 633 614 617 632 q 648 572 648 597 z "},"a":{"ha":690,"x_min":11,"x_max":709,"o":"m 403 66 q 357 60 381 66 q 311 46 334 54 q 262 32 288 38 q 212 26 237 26 q 136 38 172 26 q 71 75 99 50 q 27 134 43 99 q 11 212 11 168 q 35 282 11 250 q 94 336 58 315 q 170 370 129 358 q 243 382 210 382 q 280 380 258 382 q 329 374 302 378 q 382 361 355 369 q 432 342 410 354 q 470 314 454 330 q 488 278 486 298 q 486 254 488 271 q 481 218 483 237 q 478 182 480 199 q 475 157 476 165 l 475 149 q 488 104 475 119 q 522 83 502 90 q 563 77 541 77 l 606 77 q 632 78 627 77 q 640 79 637 79 q 646 79 642 79 q 673 80 651 80 q 700 73 690 80 q 709 45 709 66 q 694 12 709 22 q 659 -1 680 3 q 618 -3 639 -4 q 587 -1 598 -1 q 528 9 556 -1 q 477 33 500 20 q 435 56 454 46 q 403 66 416 66 m 91 198 q 105 146 91 165 q 140 117 119 126 q 187 106 161 109 q 237 104 213 104 q 269 106 247 104 q 316 112 292 107 q 360 125 340 117 q 382 145 380 133 l 410 251 q 404 270 412 262 q 382 283 396 278 q 351 293 368 289 q 317 300 334 297 q 288 304 301 302 q 273 305 275 305 q 216 300 248 305 q 157 284 184 296 q 110 252 129 273 q 91 198 91 232 z "},"b":{"ha":620,"x_min":26,"x_max":608,"o":"m 119 12 q 102 31 109 19 q 91 56 95 42 q 83 83 87 69 q 80 104 80 96 q 73 151 77 119 q 64 223 69 182 q 53 311 58 264 q 42 399 47 357 q 33 476 37 442 q 27 528 28 510 q 26 538 27 530 q 26 549 26 547 q 34 576 26 570 q 62 582 42 582 q 98 564 87 582 q 113 517 109 545 q 119 456 118 488 q 123 395 119 423 q 134 348 126 366 q 163 330 142 330 q 222 334 193 330 q 282 344 252 338 q 342 353 312 350 q 403 357 373 357 l 416 357 q 439 357 427 357 q 461 357 450 357 l 475 357 q 528 315 506 340 q 566 261 551 290 q 591 199 582 232 q 608 133 601 165 q 580 80 601 102 q 530 43 559 58 q 468 20 502 28 q 399 6 434 11 q 334 0 365 1 q 278 -1 302 -1 q 237 -1 255 -1 q 201 1 218 0 q 163 5 183 3 q 119 12 144 8 m 157 191 q 180 105 157 133 q 263 77 203 77 q 300 78 275 77 q 352 81 324 79 q 410 89 380 84 q 463 102 439 94 q 502 124 487 111 q 517 157 517 137 q 506 210 517 187 q 476 248 495 232 q 433 271 457 263 q 381 279 408 279 q 323 277 353 279 q 264 269 294 274 q 208 253 235 264 q 157 225 180 241 q 157 208 157 220 q 157 191 157 195 z "},"c":{"ha":620,"x_min":11,"x_max":612,"o":"m 11 209 q 42 304 11 267 q 119 362 73 342 q 218 390 164 382 q 317 397 271 397 l 334 397 q 356 397 343 397 q 380 396 369 396 l 396 396 q 431 380 423 392 q 439 351 439 369 q 425 316 439 330 q 389 302 411 302 q 371 307 376 302 q 363 317 366 312 q 354 328 359 323 q 334 332 349 332 q 288 330 313 332 q 235 321 262 327 q 182 307 208 316 q 136 282 156 297 q 103 246 115 267 q 91 195 91 225 q 105 151 91 171 q 142 117 119 132 q 195 92 165 102 q 252 76 224 81 q 307 68 281 71 q 350 65 334 65 q 420 77 388 65 q 485 102 453 88 q 548 126 517 115 q 612 137 579 137 q 584 60 612 88 q 514 18 556 31 q 425 1 472 4 q 338 -1 377 -1 q 268 2 305 -1 q 194 14 231 5 q 125 38 157 23 q 67 77 92 53 q 26 133 42 100 q 11 209 11 165 z "},"d":{"ha":648,"x_min":11,"x_max":610,"o":"m 499 41 q 412 33 454 41 q 326 26 369 26 q 261 26 296 26 q 192 32 227 27 q 125 47 157 37 q 67 75 92 57 q 26 121 42 94 q 11 189 11 148 q 37 273 11 237 q 102 329 64 308 q 188 360 141 350 q 278 370 235 370 q 394 352 335 370 q 503 304 453 334 l 503 555 q 509 577 503 572 q 526 582 515 582 q 559 545 545 582 q 582 449 572 507 q 597 320 591 391 q 606 184 604 250 q 610 68 609 119 q 610 -4 610 18 q 573 3 589 -4 q 546 19 557 11 q 524 34 534 27 q 499 41 513 41 m 91 189 q 106 144 91 161 q 145 117 121 127 q 199 100 170 106 q 259 93 229 95 q 316 91 289 91 l 361 91 q 386 90 363 91 q 434 90 408 88 q 481 98 460 92 q 503 119 503 104 l 503 264 q 477 243 488 250 q 448 236 465 236 q 433 245 446 236 q 397 264 419 254 q 345 283 374 274 q 282 292 316 292 q 227 287 259 292 q 163 271 194 282 q 112 239 133 259 q 91 189 91 218 z "},"e":{"ha":661,"x_min":26,"x_max":640,"o":"m 26 239 q 52 328 26 285 q 117 404 77 372 q 205 456 157 437 q 297 475 254 475 q 367 466 332 475 q 429 438 401 457 q 473 391 456 419 q 490 326 490 363 q 488 298 490 308 q 479 280 486 288 q 462 267 472 273 q 437 251 452 260 q 412 245 429 250 q 375 235 396 240 q 331 224 354 229 q 287 213 308 218 q 250 203 266 208 q 225 198 233 199 q 208 195 221 197 q 178 192 194 194 q 149 188 163 190 q 133 184 136 186 q 124 178 129 183 q 119 172 119 174 q 134 127 119 145 q 172 96 149 109 q 224 78 195 84 q 282 68 254 72 q 335 65 311 65 q 374 65 359 65 q 507 73 442 65 q 640 80 572 80 l 640 69 q 638 52 640 61 q 632 36 636 43 q 621 27 628 28 q 530 10 570 16 q 454 2 490 4 q 381 -1 419 0 q 297 -1 343 -1 l 274 -1 q 241 -1 259 -1 q 208 0 224 0 l 184 0 q 112 35 142 11 q 62 91 81 58 q 35 161 43 123 q 26 239 26 199 m 330 399 q 290 395 312 399 q 243 385 267 392 q 197 366 220 377 q 156 338 174 354 q 127 304 138 323 q 115 262 115 285 l 171 262 q 232 264 201 262 q 293 273 263 267 q 345 292 323 279 q 382 326 368 305 q 396 376 396 346 l 396 382 l 382 396 q 372 397 380 396 q 357 398 365 397 q 341 399 349 399 q 330 399 334 399 z "},"f":{"ha":488,"x_min":26,"x_max":477,"o":"m 26 423 q 28 524 26 473 q 41 623 31 575 q 67 711 50 670 q 113 782 84 751 q 186 830 142 812 q 289 848 229 848 q 360 839 327 848 q 419 812 393 830 q 461 764 445 793 q 477 694 477 735 q 475 669 477 684 q 467 641 472 655 q 452 616 461 627 q 430 606 444 606 q 426 606 427 606 q 423 608 425 606 l 416 614 q 410 621 411 620 q 413 637 411 627 q 417 661 415 648 q 420 684 419 673 q 423 700 422 696 l 423 715 q 408 749 423 736 q 371 770 392 762 q 328 780 350 777 q 292 783 305 783 q 208 765 241 783 q 154 718 175 747 q 121 649 133 688 q 103 569 109 610 q 96 486 98 528 q 94 410 95 445 q 103 388 98 399 q 119 370 109 377 q 271 371 191 373 q 423 357 350 369 q 433 349 430 355 q 439 335 437 343 q 441 319 441 327 q 442 309 442 312 q 414 309 434 309 q 370 307 395 308 q 319 306 346 307 q 269 305 293 305 q 225 304 244 305 q 198 304 206 304 l 180 304 q 155 301 170 304 q 125 293 140 298 q 106 278 111 288 l 106 264 l 172 -119 q 170 -136 174 -129 q 157 -149 165 -144 q 141 -157 149 -155 q 126 -159 133 -159 q 85 -123 102 -159 q 58 -33 69 -88 q 41 90 47 22 q 31 222 34 157 q 26 340 27 286 q 26 423 26 395 z "},"g":{"ha":582,"x_min":23,"x_max":610,"o":"m 23 -328 q 54 -344 39 -328 q 81 -380 68 -359 q 107 -421 95 -400 q 133 -450 119 -442 q 197 -488 161 -473 q 271 -512 233 -503 q 348 -526 309 -521 q 423 -530 387 -530 q 433 -530 426 -530 q 449 -529 441 -529 q 465 -528 457 -529 q 475 -528 472 -528 q 507 -503 495 -518 q 523 -469 518 -487 q 529 -430 528 -450 q 530 -389 530 -410 q 528 -338 530 -374 q 522 -254 526 -302 q 512 -153 518 -206 q 496 -53 506 -100 q 471 30 486 -5 q 437 79 456 65 q 410 50 423 64 q 379 24 396 35 q 345 7 362 14 q 305 0 327 0 q 213 9 262 0 q 122 42 164 19 q 53 101 80 65 q 26 191 26 137 q 53 276 26 241 q 120 332 80 311 q 208 362 160 353 q 297 372 255 372 q 330 371 311 372 q 370 368 350 370 q 408 359 391 365 q 437 343 426 354 q 440 329 438 340 q 444 304 442 317 q 448 278 446 290 q 449 264 449 266 q 465 218 454 240 q 487 172 475 195 q 510 125 499 148 q 528 79 521 102 q 587 -153 564 -38 q 610 -391 610 -269 q 610 -410 610 -396 q 609 -440 609 -425 q 608 -470 609 -456 q 608 -490 608 -484 q 586 -549 606 -525 q 536 -585 566 -572 q 474 -604 507 -598 q 415 -610 441 -610 q 325 -603 372 -610 q 235 -581 278 -595 q 153 -543 191 -566 q 85 -490 114 -521 q 40 -419 57 -458 q 23 -328 23 -380 m 104 183 q 121 136 104 156 q 161 102 137 115 q 213 83 186 90 q 260 77 240 77 q 368 116 338 77 q 397 229 397 155 q 389 264 397 251 q 368 282 381 277 q 336 290 354 288 q 301 292 319 292 q 243 287 277 292 q 178 270 209 282 q 126 237 148 258 q 104 183 104 216 z "},"h":{"ha":700,"x_min":11,"x_max":689,"o":"m 426 292 q 356 277 385 292 q 304 240 327 262 q 264 192 281 218 q 232 143 248 165 q 198 106 216 121 q 157 91 180 91 q 132 104 141 91 q 119 133 123 118 q 83 258 102 191 q 49 395 65 326 q 22 534 33 464 q 11 667 11 604 l 11 675 q 12 690 11 682 q 12 703 12 697 l 12 713 q 26 726 15 726 q 46 727 37 727 q 56 727 47 727 q 66 727 65 727 q 76 665 69 707 q 93 571 83 623 q 115 465 103 519 q 139 365 126 410 q 165 292 152 320 q 191 263 179 263 q 239 279 212 263 q 296 316 266 296 q 361 354 327 336 q 434 372 396 372 q 456 371 442 372 q 484 369 469 370 q 511 365 498 368 q 528 357 524 362 l 648 237 q 667 198 659 227 q 681 137 675 170 q 688 75 686 104 q 689 30 689 46 q 677 5 689 11 q 648 -1 665 -1 q 617 20 627 -1 q 600 75 608 42 q 583 146 593 109 q 556 216 574 183 q 508 271 538 250 q 426 292 477 292 z "},"i":{"ha":159,"x_min":27,"x_max":136,"o":"m 66 12 q 50 71 57 39 q 37 137 42 103 q 30 203 33 171 q 27 264 27 236 q 28 280 27 269 q 32 304 30 292 q 37 328 34 316 q 41 343 39 339 q 53 346 42 345 q 66 347 64 347 q 95 328 84 347 q 114 279 106 309 q 125 214 122 250 q 132 144 129 178 q 134 85 134 111 q 134 50 134 60 q 135 37 134 46 q 134 20 136 28 q 128 5 133 11 q 113 0 123 0 l 107 0 q 99 2 104 0 q 87 6 94 4 q 75 9 80 8 q 66 12 69 11 m 52 610 q 95 661 52 644 q 112 658 104 665 q 124 640 119 651 q 131 618 129 629 q 133 601 133 606 q 129 588 133 593 q 119 582 125 583 q 106 581 113 581 l 95 581 q 64 585 76 581 q 52 610 52 589 z "},"j":{"ha":212,"x_min":-345,"x_max":198,"o":"m -345 -311 q -343 -261 -345 -282 q -331 -212 -342 -240 q -328 -211 -330 -212 q -324 -210 -326 -210 q -323 -211 -324 -210 q -320 -212 -321 -212 q -317 -212 -319 -212 q -311 -218 -316 -213 l -304 -225 q -252 -424 -316 -358 q -58 -490 -189 -490 q 39 -465 1 -490 q 97 -399 76 -439 q 125 -307 118 -358 q 133 -205 133 -256 q 121 -79 133 -141 q 95 45 110 -16 q 64 168 80 107 q 39 290 49 228 q 43 305 39 298 q 52 318 46 312 q 65 328 57 324 q 80 331 73 331 q 112 311 98 331 q 138 260 126 292 q 157 189 149 228 q 173 111 165 149 q 186 40 180 73 q 198 -12 191 7 l 198 -45 q 198 -93 198 -68 q 198 -141 198 -118 l 198 -172 q 197 -267 198 -220 q 186 -356 195 -313 q 161 -435 178 -399 q 117 -499 145 -472 q 47 -541 88 -526 q -53 -556 5 -556 q -168 -542 -115 -556 q -260 -498 -221 -528 q -322 -422 -300 -469 q -345 -311 -345 -376 m -1 534 q 12 559 -1 551 q 39 568 26 568 q 67 555 54 568 q 80 528 80 543 q 66 500 80 513 q 38 488 53 488 q 9 503 19 488 q -1 534 -1 518 z "},"k":{"ha":780,"x_min":27,"x_max":769,"o":"m 184 227 q 168 224 178 227 q 157 212 157 222 l 157 27 q 148 20 157 26 q 133 12 138 15 l 119 12 q 98 22 107 19 q 85 31 91 27 q 80 39 80 35 l 80 198 q 68 203 77 198 q 51 216 60 209 q 35 230 42 222 q 27 244 27 237 q 41 278 27 260 q 66 304 54 296 l 66 323 q 66 354 66 338 q 66 384 66 370 l 66 403 q 66 474 66 442 q 64 535 66 506 q 56 597 61 564 q 39 673 50 631 q 43 686 39 678 q 53 701 47 693 q 66 713 58 708 q 80 713 73 718 q 107 681 95 707 q 127 618 119 655 q 141 539 136 582 q 150 458 146 496 q 155 388 153 419 q 157 343 157 357 q 203 372 179 361 q 253 395 228 384 q 301 418 278 406 q 343 449 324 430 q 361 473 351 457 q 380 504 370 488 q 401 530 389 519 q 430 541 414 541 q 443 538 438 541 q 449 528 448 534 q 450 515 450 522 l 450 503 q 431 439 450 468 q 385 387 412 411 q 324 345 357 363 q 264 317 292 327 q 368 210 319 254 q 470 136 416 167 q 589 86 524 106 q 741 53 654 66 q 763 46 757 53 q 769 27 769 39 q 768 20 769 26 q 766 12 766 14 q 723 1 742 4 q 680 -1 704 -1 q 613 1 648 -1 q 542 10 578 4 q 473 26 506 16 q 410 53 439 37 q 355 98 380 69 q 306 155 331 126 q 252 205 281 184 q 184 227 222 227 z "},"l":{"ha":357,"x_min":11,"x_max":419,"o":"m 11 227 q 17 362 11 298 q 29 491 23 426 q 39 623 35 556 q 39 766 42 689 q 43 779 41 772 q 51 791 46 785 q 61 802 56 798 q 73 807 66 807 q 100 790 90 807 q 116 747 111 773 q 122 689 121 720 q 123 629 123 658 q 121 578 122 600 q 119 548 119 556 q 112 390 119 468 q 104 231 104 312 l 104 209 q 104 175 104 193 q 104 141 104 157 l 104 119 q 114 97 106 106 q 132 82 122 88 q 153 72 142 76 q 172 66 164 68 q 191 66 178 66 q 218 65 203 65 q 246 65 233 65 q 264 65 259 65 q 302 66 288 65 q 325 68 316 66 q 342 71 334 69 q 359 74 350 73 q 382 76 369 75 q 419 77 396 77 q 401 15 419 33 q 356 -6 384 -3 q 295 -5 328 -9 q 231 -1 262 -1 l 212 -1 q 182 -1 198 -1 q 151 0 165 0 l 133 0 q 66 31 91 8 q 31 85 42 53 q 15 153 19 117 q 11 227 11 190 z "},"m":{"ha":1057,"x_min":26,"x_max":1046,"o":"m 799 305 q 729 288 758 305 q 675 246 700 271 q 631 191 651 221 q 588 136 610 161 q 540 94 566 111 q 480 77 514 77 q 479 136 480 103 q 472 202 477 168 q 457 269 467 236 q 430 328 448 302 q 386 368 412 353 q 323 384 359 384 q 243 362 277 384 q 188 307 210 340 q 155 231 165 273 q 144 149 144 190 q 117 146 126 149 q 100 138 109 142 q 82 130 91 134 q 57 126 73 126 q 52 193 57 160 q 41 259 46 227 q 31 324 35 292 q 26 389 26 357 l 26 399 q 26 413 26 406 q 27 426 27 420 l 27 437 q 38 449 31 448 q 53 450 45 450 q 80 437 71 450 q 95 405 90 423 q 102 368 100 387 q 106 343 104 350 l 119 343 q 220 433 163 403 q 350 463 278 463 q 432 441 399 463 q 488 387 465 419 q 526 314 511 354 q 555 237 541 274 l 568 237 q 630 292 598 264 q 695 338 662 319 q 766 371 728 358 q 848 384 803 384 q 908 363 880 384 q 958 308 936 342 q 997 233 981 274 q 1024 148 1013 191 q 1040 65 1035 104 q 1046 -4 1046 26 q 972 19 996 -4 q 939 77 949 42 q 924 151 928 111 q 909 225 920 191 q 873 282 898 259 q 799 305 849 305 z "},"n":{"ha":608,"x_min":22,"x_max":595,"o":"m 354 292 q 271 275 307 292 q 206 231 235 258 q 159 173 178 203 q 125 115 140 142 q 104 71 111 88 q 94 53 96 53 q 42 72 57 53 q 23 119 27 91 q 22 177 19 146 q 26 231 26 208 l 26 254 q 26 288 26 270 q 27 320 27 305 l 27 343 q 38 355 31 354 q 53 357 45 357 q 73 342 65 357 q 88 308 81 328 q 99 268 95 288 q 106 237 103 248 q 136 251 122 240 q 163 277 149 262 q 194 308 178 292 q 232 338 210 324 q 283 362 254 353 q 350 372 312 372 q 475 338 426 372 q 550 252 524 305 q 586 131 576 198 q 595 -5 595 64 q 532 7 555 -5 q 500 41 510 20 q 490 89 491 62 q 488 143 488 115 q 485 198 488 171 q 469 245 481 225 q 429 279 456 266 q 354 292 403 292 z "},"o":{"ha":568,"x_min":26,"x_max":530,"o":"m 26 160 q 42 255 26 206 q 89 345 58 304 q 161 411 119 385 q 258 437 203 437 q 385 422 334 437 q 469 376 437 407 q 516 298 502 346 q 530 184 530 250 q 530 169 530 180 q 529 145 529 157 q 528 121 529 133 q 528 104 528 110 q 492 50 518 71 q 431 18 465 28 q 359 3 396 7 q 292 -1 321 -1 q 203 4 250 -1 q 117 26 157 9 q 52 75 77 43 q 26 160 26 107 m 94 178 q 115 120 94 142 q 165 85 136 98 q 230 69 195 73 q 289 65 264 65 q 332 65 313 65 q 368 69 350 65 q 404 81 385 73 q 449 104 423 90 q 464 147 463 126 q 465 191 465 168 q 448 273 465 237 q 400 330 430 308 q 329 359 370 351 q 237 357 288 366 q 191 332 217 353 q 144 285 165 312 q 108 229 122 258 q 94 178 94 199 z "},"p":{"ha":574,"x_min":37,"x_max":548,"o":"m 49 -457 q 62 -203 64 -320 q 53 12 60 -85 q 39 186 46 109 q 37 319 33 263 q 62 411 42 374 q 132 462 83 448 q 261 471 180 476 q 468 437 342 465 q 513 402 496 420 q 536 361 529 384 q 546 312 544 339 q 548 254 548 285 q 524 191 548 218 q 461 145 499 164 q 376 112 423 126 q 284 89 330 98 q 199 75 239 80 q 137 66 160 69 q 129 29 132 57 q 126 -38 126 1 q 127 -121 126 -77 q 131 -208 129 -165 q 133 -285 133 -250 q 132 -339 133 -320 q 127 -372 129 -351 q 123 -412 126 -393 q 119 -444 121 -431 l 118 -457 l 49 -457 m 327 388 q 200 396 256 403 q 114 360 144 389 q 85 277 84 331 q 129 138 85 222 q 187 140 153 138 q 258 149 221 142 q 334 167 296 156 q 402 195 372 178 q 451 235 433 212 q 469 288 469 258 q 468 336 476 319 q 439 363 460 354 q 390 378 419 373 q 327 388 361 384 z "},"q":{"ha":528,"x_min":27,"x_max":640,"o":"m 290 -467 q 291 -458 290 -464 q 292 -452 292 -453 l 372 11 l 372 62 q 315 56 342 62 q 258 50 288 50 q 184 54 225 50 q 109 71 144 57 q 50 110 73 84 q 27 179 27 136 q 56 256 27 222 q 127 311 85 289 q 216 345 170 334 q 296 357 262 357 q 361 351 327 357 q 425 330 396 345 q 473 292 454 316 q 492 229 492 267 l 492 218 q 492 203 492 212 q 490 190 491 195 q 488 182 490 184 l 372 -317 q 467 -214 426 -258 q 540 -146 507 -171 q 596 -117 572 -121 q 640 -134 620 -113 q 626 -156 640 -140 q 591 -195 612 -172 q 543 -245 570 -218 q 491 -300 517 -273 q 444 -353 465 -327 q 411 -400 423 -380 q 389 -441 396 -425 q 375 -469 382 -458 q 354 -486 368 -480 q 311 -491 340 -491 q 294 -484 298 -491 q 290 -467 290 -476 m 104 184 q 112 162 104 171 q 130 148 119 153 q 153 138 141 142 q 172 129 164 133 q 189 129 178 129 q 213 129 199 129 q 237 128 227 129 q 252 127 248 127 q 319 130 289 127 q 369 142 349 132 q 400 177 389 153 q 411 243 411 201 q 401 271 411 262 q 378 284 392 281 q 345 288 363 288 q 311 288 327 288 q 257 283 292 288 q 189 265 222 278 q 130 232 156 252 q 104 184 104 212 z "},"r":{"ha":620,"x_min":26,"x_max":610,"o":"m 39 264 q 33 269 38 264 q 27 278 27 274 q 26 281 26 278 l 26 288 q 27 290 26 289 q 52 312 42 305 q 80 319 62 319 q 90 316 85 319 q 98 311 95 313 q 104 305 100 308 q 111 302 107 302 q 127 315 115 302 q 160 347 140 328 q 210 389 180 366 q 277 430 240 411 q 359 462 315 449 q 456 475 403 475 l 464 475 q 486 470 469 473 q 522 462 503 467 q 558 454 541 457 q 582 449 575 450 q 587 444 583 448 q 595 437 591 441 q 603 430 600 434 q 608 423 606 426 q 609 419 608 422 q 610 418 609 419 q 610 416 610 416 l 609 414 q 609 412 609 414 q 608 410 608 411 q 601 401 606 406 q 595 396 595 396 l 357 396 q 292 379 327 396 q 227 336 258 362 q 177 276 197 309 q 157 212 157 243 l 157 19 q 136 16 142 19 q 124 8 129 12 q 114 1 119 4 q 99 -1 109 -1 l 96 -1 q 94 0 95 -1 q 84 6 88 1 q 80 12 80 11 l 39 264 z "},"s":{"ha":620,"x_min":0,"x_max":582,"o":"m 144 83 l 144 111 q 146 145 144 129 q 157 174 149 161 q 180 186 165 186 l 180 184 l 184 184 l 212 80 q 217 72 212 75 q 229 67 222 69 q 241 65 235 65 q 251 65 247 65 q 258 66 254 65 q 264 66 263 66 q 296 74 273 68 q 344 85 319 80 q 391 97 369 91 q 423 104 414 103 q 444 124 430 115 q 471 141 457 133 q 494 159 484 149 q 503 183 503 168 q 486 237 503 217 q 443 268 469 258 q 387 282 416 278 q 330 290 357 286 q 295 295 319 292 q 241 302 271 298 q 179 311 212 307 q 116 319 146 316 q 62 326 85 323 q 27 330 38 328 q 9 349 19 335 q 0 370 0 362 q 25 413 0 393 q 88 449 50 433 q 174 477 126 465 q 269 499 222 490 q 356 513 316 509 q 418 517 396 517 q 448 506 434 517 q 463 475 463 495 q 454 451 463 458 q 432 441 445 444 q 406 439 419 439 q 382 437 393 438 q 328 426 361 433 q 262 412 294 419 q 208 401 229 406 l 184 396 l 184 381 q 250 380 210 381 q 334 373 289 378 q 422 356 378 368 q 502 325 467 345 q 559 276 537 305 q 582 205 582 247 q 551 109 582 148 q 472 45 519 69 q 369 9 425 20 q 266 -1 313 -1 q 225 2 247 -1 q 185 15 203 5 q 155 41 167 24 q 144 83 144 57 z "},"t":{"ha":700,"x_min":27,"x_max":675,"o":"m 190 354 q 120 348 152 354 q 50 342 88 342 q 31 353 35 342 q 27 376 27 365 l 27 382 q 36 396 30 388 q 49 412 42 404 q 60 425 56 419 q 66 430 65 430 l 191 430 l 191 633 q 195 642 191 639 q 205 646 199 644 q 217 649 212 648 q 225 650 222 650 q 257 634 247 650 q 271 595 267 618 q 273 545 274 572 q 273 495 273 518 q 276 455 273 472 q 292 437 279 438 q 333 432 302 435 q 397 424 363 429 q 460 415 430 419 q 503 410 490 411 q 513 408 506 410 q 530 404 521 406 q 545 400 538 403 q 555 396 552 397 q 563 391 557 396 q 568 382 568 385 q 563 365 568 373 q 549 352 557 357 q 532 345 541 347 q 515 343 524 343 q 500 345 513 343 q 475 350 488 347 q 451 355 463 353 q 437 357 439 357 l 423 357 q 397 357 411 357 q 370 357 384 357 l 334 357 q 315 357 324 357 q 298 357 305 357 l 292 357 l 278 343 q 278 334 278 342 q 277 315 278 326 q 275 292 275 304 q 274 274 274 281 q 289 159 274 201 q 336 96 304 117 q 417 70 368 75 q 538 65 467 65 q 560 65 547 65 q 587 65 574 65 q 610 66 601 65 q 621 66 620 66 q 628 68 623 66 q 641 73 633 71 q 653 77 648 75 q 661 80 658 80 q 669 75 666 80 q 674 64 673 71 q 675 52 675 57 l 675 42 q 666 11 675 20 q 621 0 656 1 l 598 0 q 565 -1 582 0 q 530 -1 548 -1 l 510 -1 q 378 5 433 -1 q 289 25 324 11 q 233 64 254 39 q 204 127 213 88 q 193 222 195 167 q 190 354 190 278 z "},"u":{"ha":833,"x_min":11,"x_max":807,"o":"m 469 119 q 399 102 434 119 q 328 64 365 85 q 252 25 292 42 q 172 8 213 8 q 156 9 167 8 q 132 10 145 9 q 109 11 119 11 q 94 12 98 11 q 52 47 68 27 q 28 92 37 68 q 15 141 19 115 q 11 193 11 167 l 11 231 q 13 283 11 255 q 18 342 15 312 q 28 397 22 372 q 47 439 35 422 q 80 463 60 457 q 96 458 88 465 q 109 443 104 452 q 117 424 114 434 q 119 410 119 414 q 115 392 119 406 q 106 363 111 378 q 98 334 102 347 q 94 317 94 320 q 93 306 94 316 q 92 283 92 296 q 91 257 91 271 q 91 235 91 243 q 90 195 91 217 q 92 151 88 172 q 103 110 95 129 q 133 80 111 91 q 142 79 134 80 q 158 79 149 79 q 174 78 167 79 q 184 77 182 77 q 323 110 258 77 q 437 198 388 142 q 435 229 435 206 q 434 277 434 252 q 435 325 434 302 q 437 357 435 347 q 439 374 437 365 q 446 391 442 382 q 458 404 450 399 q 475 410 465 410 q 503 395 495 410 q 515 355 511 380 q 520 299 518 331 q 529 235 522 267 q 552 170 536 202 q 600 113 568 138 q 681 71 631 88 q 807 53 731 54 q 807 46 807 50 q 807 39 807 42 q 789 10 807 19 q 747 -1 772 1 q 697 -3 722 -4 q 661 -1 673 -1 q 587 18 620 -1 q 529 59 555 37 q 488 100 503 81 q 469 119 472 119 z "},"v":{"ha":582,"x_min":0,"x_max":556,"o":"m 0 396 q 1 418 -3 408 q 13 435 5 429 q 31 446 20 442 q 53 449 42 450 q 90 409 71 437 q 127 348 109 381 q 163 278 146 315 q 196 212 180 241 q 224 163 212 182 q 244 144 236 144 q 265 170 250 144 q 304 234 281 195 q 353 317 327 273 q 409 401 380 362 q 469 465 438 439 q 528 490 499 490 q 547 486 538 490 q 556 469 556 481 q 555 467 556 468 q 555 463 555 465 q 464 372 509 426 q 381 258 419 319 q 315 134 343 198 q 278 12 288 71 q 240 2 254 4 q 205 0 227 0 l 184 0 q 168 55 178 22 q 146 125 157 88 q 121 202 134 163 q 89 277 107 241 q 49 345 71 313 q 0 396 27 376 z "},"w":{"ha":833,"x_min":26,"x_max":795,"o":"m 26 370 q 36 406 26 388 q 66 423 46 423 q 102 403 92 423 q 116 355 113 382 q 118 298 119 327 q 119 251 117 269 q 123 219 119 241 q 130 172 126 197 q 138 123 134 146 q 145 91 142 100 q 155 90 146 91 q 165 88 164 88 q 209 104 191 88 q 238 142 227 119 q 258 191 250 164 q 277 241 267 218 q 302 278 288 263 q 336 293 316 293 q 385 277 365 293 q 422 237 404 260 q 456 185 441 213 q 492 134 472 157 q 534 94 511 110 q 587 77 557 77 q 597 79 589 77 q 608 80 606 80 q 632 132 620 98 q 657 205 644 165 q 683 286 670 245 q 709 361 696 327 q 735 416 722 396 q 760 437 749 437 q 762 437 761 437 q 765 437 762 437 l 766 437 q 772 432 769 435 q 781 424 776 429 q 789 415 785 419 q 793 410 792 411 l 793 407 q 794 404 793 406 q 795 403 795 403 q 794 400 795 403 q 793 396 793 397 q 783 361 789 385 q 766 308 776 338 q 747 245 757 278 q 728 180 738 212 q 711 126 719 149 q 700 91 703 103 q 681 52 690 69 q 664 24 673 37 q 648 12 655 12 l 515 12 q 482 24 499 12 q 450 55 465 37 q 418 96 434 73 q 389 138 403 118 q 363 175 376 159 q 343 198 351 191 q 298 160 315 180 q 271 117 282 140 q 251 74 260 95 q 227 36 241 53 q 188 9 212 19 q 123 0 164 0 q 97 24 110 0 q 73 85 84 49 q 54 167 62 122 q 39 253 45 212 q 29 326 33 294 q 26 370 26 357 z "},"x":{"ha":673,"x_min":24,"x_max":665,"o":"m 212 225 q 189 270 208 244 q 150 321 171 296 q 109 369 129 346 q 80 410 88 392 q 79 416 80 411 q 77 423 77 420 q 87 446 77 441 q 111 450 96 450 q 122 450 114 450 q 133 449 130 449 q 146 427 136 442 q 170 395 157 412 q 195 363 183 378 q 212 343 206 349 q 229 325 218 336 q 250 303 240 313 q 269 286 260 293 q 278 278 277 278 l 292 278 q 308 290 296 281 q 336 309 320 298 q 369 330 351 319 q 402 353 387 342 q 430 372 418 363 q 449 382 442 380 q 491 406 465 392 q 541 431 517 419 q 585 453 566 444 q 608 463 605 463 l 642 463 q 624 416 642 438 q 578 372 606 393 q 515 330 549 350 q 446 291 480 311 q 385 252 412 271 q 343 212 357 232 q 392 179 365 198 q 448 144 419 160 q 507 116 476 127 q 568 104 537 104 q 603 112 589 104 q 635 119 617 119 q 648 118 642 119 q 660 113 655 117 q 665 100 665 109 q 661 80 665 92 q 654 70 659 76 q 644 57 650 64 q 631 45 637 50 q 621 39 625 41 q 610 38 618 39 q 591 36 601 37 q 573 35 582 35 q 562 35 564 35 q 485 53 519 35 q 418 91 450 71 q 352 129 385 111 q 283 146 319 146 q 250 140 264 146 q 222 122 236 133 q 197 100 209 111 q 172 80 184 88 q 143 57 160 71 q 109 31 126 43 q 79 8 91 19 l 66 0 l 24 0 q 45 69 24 39 q 94 125 65 99 q 156 174 123 151 q 212 225 189 198 z "},"y":{"ha":528,"x_min":-106,"x_max":555,"o":"m -106 -458 q -104 -419 -106 -442 q -96 -374 -103 -396 q -75 -336 -88 -353 q -39 -317 -61 -320 q -39 -323 -39 -319 q -38 -331 -38 -328 q -46 -366 -38 -350 q -54 -404 -54 -381 q -39 -473 -54 -442 q 0 -529 -24 -505 q 56 -571 24 -553 q 124 -600 88 -589 q 197 -617 160 -612 q 264 -623 233 -623 q 340 -608 309 -623 q 394 -568 372 -593 q 430 -509 416 -543 q 451 -440 444 -476 q 462 -368 458 -404 q 465 -298 465 -331 q 464 -265 465 -293 q 460 -200 463 -237 q 453 -121 457 -163 q 442 -42 449 -79 q 426 18 435 -5 q 404 41 416 41 q 353 34 378 41 q 304 19 328 27 q 253 4 279 11 q 198 -3 227 -3 q 180 -3 193 -3 q 152 -2 167 -3 q 124 -1 137 -1 q 106 0 111 0 q 59 33 77 11 q 30 82 41 54 q 15 140 19 110 q 11 197 11 171 q 13 265 11 235 q 27 330 15 296 q 37 333 28 332 q 46 334 45 334 q 79 313 71 334 q 88 263 87 293 q 90 199 90 233 q 100 134 91 164 q 132 85 110 104 q 201 65 155 65 q 298 80 263 65 q 351 125 334 95 q 372 200 369 156 q 370 304 374 244 q 377 327 369 321 q 396 332 385 332 q 425 302 410 332 q 454 227 441 273 q 481 127 468 180 q 505 24 495 73 q 520 -60 514 -24 q 528 -106 526 -96 q 532 -127 529 -111 q 536 -165 534 -142 q 541 -211 538 -187 q 547 -257 544 -235 q 552 -296 549 -279 q 555 -317 555 -312 l 555 -324 q 538 -460 555 -395 q 485 -576 521 -525 q 394 -657 449 -627 q 262 -688 339 -688 q 189 -682 229 -688 q 109 -665 149 -677 q 29 -636 68 -654 q -39 -592 -9 -618 q -87 -533 -69 -566 q -106 -458 -106 -500 z "},"z":{"ha":806,"x_min":7,"x_max":795,"o":"m 106 27 q 138 95 115 64 q 190 153 160 126 q 255 205 220 180 l 326 254 q 393 303 361 278 q 449 357 425 328 q 380 352 423 354 q 288 350 336 350 q 189 353 239 350 q 98 370 138 357 q 32 404 57 382 q 7 463 7 426 l 119 463 q 125 455 119 460 q 133 449 130 450 q 151 446 137 448 q 179 441 164 444 q 206 438 194 439 q 225 437 218 437 q 267 436 239 437 q 330 435 296 435 q 404 435 365 435 q 477 435 442 434 q 541 435 513 435 q 582 437 568 435 q 585 429 582 434 q 589 417 587 423 q 593 405 591 411 q 595 396 595 399 q 593 389 595 395 q 589 376 591 382 q 585 364 587 370 q 582 357 582 358 q 509 288 549 319 q 427 225 468 256 q 348 161 387 194 q 278 91 309 129 l 780 91 q 785 82 780 91 q 793 66 791 73 l 793 64 q 794 61 793 62 q 795 60 795 60 q 780 25 795 35 q 745 12 765 15 q 704 11 724 9 q 673 12 684 12 q 641 11 665 11 q 585 9 617 11 q 515 6 552 8 q 446 3 479 4 q 389 1 414 1 q 357 0 365 0 l 335 0 q 219 3 278 0 q 106 27 160 5 z "},"{":{"ha":382,"x_min":12,"x_max":490,"o":"m 104 80 q 121 129 104 109 q 158 165 138 149 q 195 200 178 182 q 212 244 212 218 q 191 279 212 267 q 142 297 170 292 q 90 303 115 302 q 53 304 64 304 q 43 311 46 305 q 38 321 39 316 q 37 333 37 327 q 38 343 38 339 q 50 382 38 368 q 82 406 62 396 q 125 420 102 415 q 172 437 149 426 l 172 449 q 104 508 134 479 q 54 570 75 537 q 23 642 34 604 q 12 727 12 680 q 31 783 12 751 q 79 848 50 815 q 144 911 109 880 q 216 966 180 941 q 281 1004 251 990 q 330 1019 312 1019 q 361 1008 350 1019 q 382 979 372 998 q 337 932 365 952 q 278 895 309 913 q 216 857 247 876 q 161 814 186 838 q 120 762 136 791 q 104 694 104 734 q 108 648 104 670 q 133 608 111 627 l 278 476 q 279 471 278 475 q 281 463 281 468 q 281 453 281 457 q 281 448 281 449 q 273 401 281 422 q 237 370 266 381 q 264 347 250 359 q 290 318 278 334 q 311 285 302 302 q 319 251 319 267 q 304 197 319 222 q 269 146 289 171 q 225 102 248 122 q 184 66 202 81 q 184 63 184 65 q 184 60 184 61 q 207 5 184 26 q 263 -28 229 -15 q 337 -47 297 -41 q 411 -59 377 -53 q 467 -75 445 -65 q 490 -100 490 -84 q 489 -113 490 -106 q 486 -124 488 -119 q 478 -132 484 -129 q 463 -133 472 -134 q 446 -134 457 -133 q 422 -134 435 -134 q 399 -135 410 -134 q 382 -136 388 -136 q 284 -123 334 -136 q 195 -82 235 -110 q 130 -14 155 -54 q 104 80 104 26 z "},"|":{"ha":172,"x_min":22,"x_max":149,"o":"m 149 705 q 141 538 149 620 q 122 373 133 456 q 106 208 111 290 q 106 39 100 125 q 22 -3 75 -3 q 22 35 22 8 q 24 91 23 61 q 26 147 26 121 q 27 184 27 174 q 32 285 28 229 q 40 397 35 340 q 51 512 45 454 q 66 620 57 570 q 91 684 73 662 q 149 705 109 705 z "},"}":{"ha":528,"x_min":12,"x_max":492,"o":"m 65 -151 q 90 -127 65 -132 q 154 -121 115 -122 q 237 -118 193 -119 q 319 -104 281 -117 q 384 -66 358 -92 q 410 11 410 -39 q 399 83 410 50 q 372 147 388 117 q 336 207 355 178 q 300 266 316 236 q 273 328 283 296 q 262 396 262 359 l 262 425 q 264 452 262 438 q 273 477 267 465 q 290 503 278 490 q 267 530 281 519 q 237 547 254 540 q 205 562 221 555 q 175 582 189 568 q 153 616 161 595 q 145 673 145 637 q 155 725 145 703 q 180 766 165 747 q 212 802 195 785 q 243 838 229 819 q 268 880 258 857 q 278 932 278 903 q 264 980 278 959 q 226 1015 250 1001 q 172 1038 202 1029 q 113 1052 142 1047 q 58 1058 84 1057 q 12 1059 31 1059 l 12 1111 q 22 1114 12 1111 q 44 1122 31 1118 q 71 1130 57 1126 q 94 1135 84 1134 q 102 1137 95 1135 q 111 1138 109 1138 q 201 1120 157 1138 q 279 1071 244 1101 q 336 999 315 1040 q 358 911 358 958 q 339 844 358 873 q 297 787 320 814 q 255 731 274 760 q 236 667 236 703 q 238 644 236 654 q 251 620 240 633 q 286 610 264 614 q 332 600 308 605 q 383 589 357 595 q 430 572 410 582 q 464 549 450 563 q 477 515 477 534 q 476 502 477 511 q 475 488 475 492 q 433 475 454 481 q 395 458 412 468 q 368 431 378 448 q 357 389 357 415 q 366 330 357 358 q 391 275 376 302 q 425 220 407 247 q 457 164 442 193 q 482 104 472 136 q 492 39 492 73 q 492 23 492 35 q 491 -1 492 11 q 489 -24 490 -12 q 488 -41 488 -35 q 441 -124 469 -91 q 378 -177 414 -157 q 298 -205 342 -197 q 203 -213 255 -213 q 164 -212 189 -213 q 118 -205 140 -212 q 81 -186 96 -199 q 65 -151 65 -174 z "},"~":{"ha":648,"x_min":26,"x_max":633,"o":"m 205 713 q 167 705 182 713 q 140 682 152 696 q 120 653 129 669 q 102 624 111 637 q 82 602 94 610 q 53 593 71 593 q 31 602 35 593 q 26 627 26 610 q 45 690 26 661 q 92 743 64 720 q 153 781 119 766 q 217 795 187 795 q 260 785 241 795 q 295 762 279 776 q 326 733 311 749 q 357 704 340 718 q 395 682 374 690 q 442 673 416 673 q 485 684 467 673 q 519 707 503 694 q 550 731 534 720 q 587 742 566 742 q 618 732 610 742 q 633 700 627 722 q 607 669 625 689 q 566 630 589 650 q 520 596 544 610 q 477 582 496 582 q 412 592 442 582 q 357 616 382 602 q 309 648 331 631 q 269 679 288 665 q 234 703 250 693 q 205 713 218 713 z "},"":{"ha":442,"x_min":0,"x_max":0,"o":""},"":{"ha":225,"x_min":71,"x_max":247,"o":"m 101 749 q 105 641 105 688 q 102 556 105 594 q 93 482 99 517 q 83 407 88 446 q 75 322 78 369 q 72 214 72 275 l 72 205 q 72 190 72 197 q 73 175 73 182 l 73 164 q 80 156 74 162 q 92 145 85 151 q 104 134 99 139 q 112 128 110 129 q 123 133 114 128 l 139 140 l 153 152 q 157 204 154 173 q 162 269 159 234 q 166 340 164 304 q 172 410 169 376 q 176 475 174 445 q 180 527 177 506 q 181 549 181 531 q 180 587 181 566 q 180 627 180 608 l 180 650 q 182 670 181 657 q 186 699 184 683 q 189 730 188 715 l 192 749 q 174 770 184 766 q 146 774 164 774 q 120 770 131 774 q 101 749 108 766 m 85 1032 q 93 1005 85 1017 q 114 984 101 993 q 142 972 126 976 q 174 969 158 969 q 203 976 191 969 q 226 993 216 982 q 241 1018 236 1004 q 246 1046 246 1032 q 238 1071 246 1060 q 216 1090 230 1081 q 186 1102 201 1098 q 161 1107 172 1107 q 104 1085 123 1107 q 85 1032 85 1064 z "},"":{"ha":620,"x_min":14,"x_max":613,"o":"m 14 281 q 31 357 14 327 q 77 409 49 388 q 141 443 104 430 q 217 463 178 456 q 220 497 218 484 q 224 522 222 510 q 228 549 227 534 q 228 591 229 564 q 232 603 229 595 q 239 616 235 610 q 249 627 243 623 q 260 632 255 632 q 292 617 282 632 q 304 578 302 602 q 304 526 307 555 q 302 471 302 498 l 334 471 q 359 470 346 471 q 381 469 372 469 l 399 469 q 433 454 426 465 q 441 423 441 442 q 427 388 441 401 q 392 374 412 374 q 373 380 378 374 q 364 391 368 385 q 355 400 361 396 q 336 404 350 404 q 318 404 327 404 q 298 403 309 403 q 292 273 297 338 q 285 142 286 209 q 322 138 304 140 q 353 137 340 137 q 421 149 388 137 q 486 174 454 160 q 549 199 518 189 q 613 210 581 210 q 585 132 613 160 q 515 90 557 103 q 426 75 473 77 q 340 72 378 72 q 313 73 327 72 q 285 73 298 73 q 285 33 285 53 l 285 4 q 283 -33 288 -12 q 268 -68 278 -53 q 245 -90 258 -84 q 220 -81 232 -96 q 201 -28 209 -66 q 191 88 193 11 q 125 111 157 96 q 67 150 92 126 q 28 206 42 174 q 14 281 14 239 m 94 269 q 101 234 94 250 q 122 205 109 218 q 154 182 136 193 q 193 165 172 172 q 201 279 195 225 q 212 388 206 334 q 167 372 189 381 q 128 348 145 362 q 102 314 111 334 q 94 269 94 294 z "},"":{"ha":564,"x_min":-66,"x_max":538,"o":"m -54 304 q -66 326 -66 316 q -53 342 -65 335 q -20 354 -41 350 q 27 361 1 358 l 27 396 q 33 513 27 465 q 56 587 38 562 q 112 616 75 613 q 212 593 149 618 q 300 553 273 568 q 332 528 328 537 q 321 515 336 518 q 280 511 305 511 q 224 514 255 511 q 168 520 194 517 q 122 525 141 524 l 104 526 l 106 365 q 162 365 134 365 q 213 363 190 365 q 252 359 236 361 q 273 354 267 357 q 275 338 273 347 q 278 321 278 330 q 275 307 278 312 q 259 302 271 302 l 106 302 l 106 133 q 113 113 106 118 q 132 111 121 109 q 157 121 142 114 q 187 136 172 129 q 214 149 202 142 q 236 156 227 156 q 300 151 278 156 q 336 137 323 145 q 359 120 350 129 q 382 104 368 111 q 418 91 396 96 q 480 85 439 85 q 538 75 526 85 q 538 53 551 65 q 496 31 526 41 q 427 20 465 20 q 352 35 389 20 q 288 85 315 50 q 223 77 258 88 q 155 51 189 65 q 94 24 122 37 q 48 7 66 11 q 23 17 30 4 q 27 66 16 30 l 27 98 q 26 148 27 122 q 26 198 26 174 l 26 302 l -54 304 z "},"":{"ha":753,"x_min":96,"x_max":669,"o":"m 132 300 q 149 399 132 349 q 198 488 165 449 q 159 539 178 515 q 134 576 141 563 q 134 582 134 578 q 133 587 133 586 q 141 608 133 604 q 161 613 149 613 q 170 612 164 613 q 178 612 176 612 q 186 600 180 609 q 201 577 193 590 q 220 551 210 564 l 241 524 q 324 551 278 551 q 488 506 435 551 q 530 534 505 517 q 579 564 555 551 q 623 582 604 576 q 644 574 642 587 q 635 541 644 557 q 610 508 627 524 q 573 477 594 492 q 530 449 552 463 q 551 321 551 397 q 551 308 551 317 q 551 288 551 298 q 550 268 551 278 q 549 254 549 258 q 572 233 560 244 q 597 213 583 222 q 623 196 610 203 q 650 189 636 189 q 669 182 661 189 q 669 152 677 175 q 661 129 670 134 q 635 126 651 123 q 602 138 620 129 q 566 158 583 146 q 536 180 549 170 q 518 198 524 191 q 482 175 503 184 q 439 161 461 165 q 394 154 416 156 q 354 152 372 152 q 276 157 316 152 q 202 180 236 163 q 170 139 187 159 q 140 108 153 119 q 115 96 126 96 q 96 111 103 95 q 111 170 96 142 q 149 224 126 197 q 136 258 141 240 q 132 300 132 275 m 495 327 q 464 429 486 392 q 414 481 442 467 q 354 493 385 496 q 293 473 323 490 q 237 432 263 457 q 197 378 212 407 q 181 320 183 350 q 195 267 179 290 q 250 227 212 243 q 350 212 288 212 q 399 214 380 212 q 433 222 418 216 q 460 241 448 228 q 494 278 473 254 q 495 302 495 289 l 495 327 z "},"":{"ha":568,"x_min":0,"x_max":555,"o":"m 133 233 q 191 233 159 235 q 250 235 222 231 l 258 235 l 258 273 q 218 273 240 273 l 149 273 q 122 298 122 273 q 140 333 122 321 q 186 349 157 345 q 250 354 214 354 l 252 354 q 251 365 252 359 q 210 411 235 388 q 156 460 184 434 q 100 515 127 487 q 50 573 73 543 q 14 635 27 604 q 0 700 0 666 q 6 734 0 726 q 33 743 12 743 q 42 743 34 743 q 53 741 50 742 q 80 689 65 720 l 114 624 q 153 552 133 587 q 195 488 172 517 q 241 441 217 460 q 294 423 266 423 q 300 425 296 423 q 307 426 305 426 q 370 526 346 472 q 414 631 393 579 q 460 732 435 684 q 522 821 484 781 l 524 819 l 526 819 q 528 818 526 818 q 534 814 530 818 q 543 807 538 811 q 551 799 548 803 q 555 793 555 795 q 518 690 541 745 q 468 580 495 635 q 413 472 441 525 q 363 374 385 419 q 350 347 355 363 q 384 343 368 346 q 434 342 414 342 q 465 342 457 342 q 473 338 473 342 q 468 320 472 334 q 464 279 464 307 q 391 279 419 279 q 342 278 363 278 q 334 277 338 278 q 330 243 332 260 q 328 233 330 239 q 372 235 349 235 l 426 235 q 465 233 450 235 q 483 215 473 228 q 492 194 492 202 q 490 188 492 191 q 487 180 488 184 q 483 172 486 175 q 479 167 480 168 q 391 170 426 170 q 334 170 357 171 q 323 168 327 170 l 323 157 q 317 79 319 115 q 313 20 316 42 q 304 -3 309 -3 q 283 -3 292 -3 q 267 -4 274 -4 q 257 0 260 -4 q 254 12 254 4 q 256 76 254 35 q 258 165 258 117 l 258 165 l 247 165 q 193 163 224 164 q 113 163 161 163 q 114 174 113 165 q 116 191 115 182 q 118 209 117 201 q 119 218 119 217 q 125 228 119 222 q 133 233 130 233 z "},"":{"ha":172,"x_min":22,"x_max":149,"o":"m 103 312 q 96 233 98 262 q 96 178 95 203 q 100 121 96 152 q 106 39 103 91 q 22 -3 75 -3 q 22 35 22 8 q 24 91 23 61 q 26 147 26 121 q 27 184 27 174 q 25 252 27 222 q 28 298 23 281 q 50 319 34 315 q 103 312 66 323 m 33 365 q 38 423 34 388 q 47 496 42 458 q 58 567 53 533 q 66 620 64 601 q 91 684 73 662 q 149 705 109 705 q 146 627 149 671 q 137 538 142 582 q 123 454 132 494 q 102 387 115 414 q 73 353 90 361 q 33 365 56 346 z "},"":{"ha":529,"x_min":53,"x_max":492,"o":"m 53 84 q 55 104 53 96 q 64 122 57 113 q 89 96 80 110 q 103 69 98 81 q 115 46 109 57 q 136 27 122 35 q 176 15 149 19 q 244 11 202 11 q 271 11 254 11 q 307 14 288 11 q 346 22 327 16 q 381 37 365 27 q 408 60 397 46 q 419 96 419 75 q 418 105 419 99 q 416 111 418 111 l 373 170 l 292 197 q 238 199 267 197 q 178 214 209 202 q 117 251 146 227 q 62 323 87 275 q 82 381 62 357 q 132 421 102 406 q 197 445 161 437 q 264 457 233 453 l 103 514 q 92 522 96 517 q 86 535 88 528 q 84 551 84 543 l 84 566 q 100 621 84 598 q 142 660 117 644 q 201 685 168 675 q 264 699 233 694 q 322 705 296 703 q 365 707 349 707 l 373 707 q 388 707 380 707 q 403 707 396 707 l 412 707 q 420 694 419 703 q 422 678 422 686 q 405 655 422 662 q 362 644 388 648 q 304 635 336 639 q 242 625 273 632 q 186 606 212 618 q 146 571 160 593 l 164 559 l 420 469 q 450 449 437 465 q 473 412 464 433 q 487 370 481 392 q 492 328 492 347 q 470 255 492 281 q 415 216 448 229 q 438 190 427 206 q 456 155 449 174 q 468 118 464 137 q 472 84 472 99 q 451 14 472 41 q 401 -26 430 -12 q 339 -43 372 -39 q 282 -47 307 -47 q 217 -45 256 -47 q 141 -31 178 -43 q 79 7 104 -19 q 53 84 53 34 m 391 415 q 359 401 380 406 q 313 394 338 397 q 258 387 288 391 q 204 377 229 384 q 157 359 179 370 q 125 327 136 347 q 168 275 140 293 q 232 250 197 258 q 304 248 267 243 q 372 265 342 252 q 422 297 403 278 q 441 340 441 316 q 441 349 441 343 q 439 357 441 355 l 396 412 l 391 415 z "},"":{"ha":738,"x_min":84,"x_max":564,"o":"m 84 764 q 98 791 84 780 q 132 810 113 803 q 172 819 152 817 q 202 821 191 821 q 233 810 218 821 q 258 783 247 799 q 277 751 270 768 q 283 722 283 734 q 283 701 283 711 q 280 682 282 690 q 271 665 278 673 q 252 654 264 656 q 244 653 250 654 q 233 652 239 652 q 221 652 227 652 q 213 651 216 651 q 166 658 190 651 q 125 678 142 665 q 96 713 107 692 q 84 764 84 734 m 366 760 q 381 789 366 777 q 415 806 396 800 q 454 815 434 812 q 484 818 473 818 q 513 806 499 818 q 538 780 526 795 q 557 748 549 765 q 564 718 564 731 q 564 696 564 707 q 560 677 563 686 q 551 661 557 669 q 533 650 544 654 q 525 650 530 650 q 513 650 519 650 q 501 649 507 650 q 494 648 495 648 q 448 654 471 648 q 406 674 425 661 q 377 709 388 688 q 366 760 366 730 z "},"":{"ha":848,"x_min":28,"x_max":802,"o":"m 28 415 q 47 516 28 468 q 99 606 66 564 q 174 680 132 647 q 262 738 216 713 q 356 775 309 762 q 446 788 403 788 q 602 755 536 788 q 713 665 669 723 q 779 527 757 606 q 802 354 802 448 q 725 119 802 195 q 495 42 648 42 q 400 54 452 42 q 296 87 349 65 q 196 140 244 109 q 111 214 148 172 q 51 306 73 255 q 28 415 28 357 m 96 416 q 117 336 96 374 q 170 265 137 298 q 245 204 203 232 q 332 156 288 176 q 416 125 376 136 q 488 115 457 115 q 637 155 572 115 q 728 275 701 195 q 680 239 711 252 q 615 220 650 227 q 545 212 581 213 q 479 212 509 212 q 372 219 429 212 q 266 250 315 227 q 185 314 217 273 q 153 419 153 355 q 167 488 153 458 q 204 539 180 518 q 259 574 228 560 q 323 595 290 587 q 391 607 357 604 q 457 610 426 610 q 474 610 463 610 q 498 609 486 609 q 522 608 510 609 q 537 608 533 608 q 572 592 564 604 q 581 563 581 581 q 566 528 581 541 q 530 514 552 514 q 511 519 517 514 q 503 529 506 524 q 494 539 499 534 q 475 544 488 544 q 429 542 454 544 q 376 534 403 540 q 322 519 349 528 q 277 494 296 510 q 245 458 258 479 q 232 408 232 437 q 246 361 232 381 q 283 327 260 342 q 336 302 307 312 q 393 287 365 293 q 448 278 422 281 q 491 275 473 275 q 561 286 526 275 q 629 312 595 297 q 693 341 663 327 q 746 363 723 355 q 727 500 751 435 q 661 612 703 564 q 561 687 618 659 q 442 715 503 715 q 373 703 411 715 q 296 671 335 692 q 222 623 258 651 q 157 562 186 595 q 113 491 129 528 q 96 416 96 454 z "},"":{"ha":362,"x_min":4,"x_max":342,"o":"m 194 354 q 172 351 183 354 q 150 342 161 347 q 126 334 138 338 q 102 331 114 331 q 33 357 61 331 q 4 430 4 384 q 16 468 4 450 q 43 497 27 486 q 80 515 60 509 q 117 521 100 521 q 146 519 126 521 q 184 510 165 517 q 218 492 203 503 q 235 465 233 481 q 234 452 235 461 q 232 433 233 444 q 230 414 231 423 q 229 403 229 406 l 229 397 q 235 373 229 381 q 251 362 241 365 q 273 359 260 359 l 305 359 q 310 360 309 359 q 312 361 311 361 l 326 361 q 338 357 334 361 q 342 342 342 354 q 334 324 342 330 q 318 317 327 319 q 298 317 309 316 q 283 317 288 317 q 254 323 267 317 q 230 335 241 328 q 210 348 218 342 q 194 354 201 354 m 42 423 q 50 395 42 406 q 67 380 57 385 q 90 374 77 376 q 114 373 102 373 q 130 374 119 373 q 152 377 140 374 q 173 384 164 380 q 184 396 182 388 l 197 450 q 189 465 198 458 q 169 474 180 471 q 146 479 157 477 q 132 480 134 480 q 104 477 119 480 q 75 469 88 475 q 52 452 61 464 q 42 423 42 441 z "},"":{"ha":974,"x_min":-1,"x_max":947,"o":"m -1 423 q 5 446 -1 437 q 27 464 11 454 q 154 525 98 496 q 264 580 210 553 q 378 632 319 606 q 515 688 437 658 q 518 688 517 688 q 522 689 519 689 q 547 675 537 689 q 556 648 556 662 q 550 624 556 633 q 528 608 544 614 l 180 454 l 198 437 q 212 429 198 435 q 250 412 227 423 q 302 389 273 401 q 360 363 331 376 q 416 338 389 350 q 463 317 444 327 q 501 307 476 311 q 550 298 526 304 q 592 283 574 293 q 610 251 610 273 q 596 222 610 232 q 564 212 582 212 q 513 219 547 212 q 437 239 480 227 q 345 270 395 252 q 247 305 296 288 q 153 342 198 323 q 74 376 109 361 q 19 404 39 392 q -1 423 -1 416 m 336 445 q 342 469 336 460 q 365 486 347 477 q 492 547 435 518 q 602 602 548 575 q 714 654 655 628 q 852 709 773 680 q 856 710 854 709 q 859 711 857 711 q 884 697 875 711 q 894 670 894 684 q 888 647 894 656 q 865 631 882 637 l 517 477 l 536 457 q 551 450 537 457 q 587 433 564 444 q 640 410 610 423 q 698 385 669 397 q 753 359 727 372 q 800 339 780 347 q 838 330 814 334 q 886 321 863 327 q 928 305 910 316 q 947 273 947 294 q 932 243 947 254 q 901 233 918 233 q 850 241 883 233 q 774 261 818 248 q 682 292 731 274 q 584 327 633 309 q 490 363 534 345 q 412 398 446 381 q 357 427 377 415 q 336 445 336 439 z "},"":{"ha":620,"x_min":80,"x_max":601,"o":"m 430 471 q 524 450 488 473 q 578 388 560 426 q 600 306 597 350 q 593 225 604 262 q 559 166 582 189 q 509 149 537 144 q 511 189 510 178 q 515 210 513 201 q 517 231 517 218 q 519 269 518 243 q 521 306 519 288 q 521 340 522 324 q 513 371 519 357 q 492 395 507 385 q 424 400 461 400 q 346 398 387 400 q 265 395 305 396 q 189 398 225 395 q 125 412 153 401 q 80 444 96 423 q 90 461 80 454 q 106 469 100 468 q 193 463 152 463 q 271 466 233 464 q 349 470 309 468 q 430 471 388 472 z "},"":{"ha":408,"x_min":28,"x_max":372,"o":"m 39 317 q 28 343 24 332 q 51 361 33 354 q 98 372 69 368 q 159 378 126 376 q 227 379 193 380 q 290 377 260 378 q 340 373 319 376 q 368 368 361 370 q 370 351 368 361 q 372 334 372 342 q 368 321 372 327 q 354 316 365 316 l 39 317 z "},"":{"ha":840,"x_min":11,"x_max":796,"o":"m 11 370 q 31 469 11 422 q 83 557 50 517 q 157 631 115 597 q 246 688 199 665 q 340 724 293 711 q 430 736 388 736 q 587 705 518 736 q 703 615 656 673 q 772 479 749 557 q 796 308 796 400 q 713 80 796 156 q 480 4 631 4 q 384 16 435 4 q 280 48 332 27 q 180 101 228 69 q 94 173 132 133 q 34 262 57 213 q 11 370 11 312 m 85 365 q 96 311 85 336 q 124 262 106 285 q 166 218 142 239 q 216 180 190 197 q 216 184 216 183 l 216 256 q 227 389 216 331 q 269 489 237 448 q 355 555 300 530 q 500 586 411 579 q 543 557 528 579 q 557 510 557 534 q 544 466 557 487 q 511 427 530 445 q 468 395 491 410 q 425 367 445 380 q 393 344 406 354 q 380 327 380 334 q 398 293 380 311 q 441 261 416 275 q 491 236 467 247 q 526 220 515 225 l 544 220 q 569 219 556 220 q 594 218 582 218 l 610 218 q 663 222 639 218 q 711 228 686 227 q 731 319 726 264 q 710 451 735 391 q 640 555 685 511 q 537 625 595 600 q 418 650 479 650 q 349 638 387 650 q 275 608 312 627 q 205 562 239 589 q 144 505 171 536 q 102 438 118 473 q 85 365 85 403 m 274 202 q 271 199 274 202 q 262 191 267 195 q 252 182 258 186 q 243 176 247 178 q 240 175 241 175 l 235 175 q 222 176 227 175 q 292 139 256 156 q 362 112 327 122 q 429 95 397 102 q 486 88 461 88 q 596 106 548 88 q 677 164 644 125 q 617 157 647 157 l 572 157 q 498 171 534 157 q 427 207 463 184 q 357 256 392 229 q 288 311 323 283 l 274 202 m 288 389 q 297 375 288 378 q 316 372 307 372 q 367 384 336 372 q 426 415 397 396 q 473 458 454 434 q 492 506 492 481 q 488 525 492 518 q 468 532 484 532 q 405 522 437 532 q 347 494 373 513 q 304 450 320 476 q 288 389 288 423 z "},"":{"ha":511,"x_min":30,"x_max":471,"o":"m 30 650 q 50 684 30 671 q 100 702 69 696 q 170 709 132 708 q 245 707 209 709 q 315 703 282 705 q 365 701 347 701 q 409 700 389 701 q 443 691 429 699 q 464 669 457 684 q 471 627 471 654 q 355 626 404 627 q 261 625 307 625 q 168 623 216 624 q 57 623 119 623 q 30 650 30 623 z "},"":{"ha":231,"x_min":26,"x_max":184,"o":"m 26 340 q 31 372 26 355 q 45 404 35 389 q 67 428 54 419 q 98 437 80 437 q 165 416 146 437 q 184 347 184 395 l 184 320 q 172 300 180 309 q 151 285 163 290 q 127 276 140 279 q 107 273 115 273 q 80 277 95 273 q 54 288 65 281 q 34 308 42 296 q 26 340 26 320 m 62 343 q 70 319 62 327 q 90 311 77 312 q 115 315 102 311 q 142 328 129 319 q 149 360 148 345 q 146 386 149 376 q 131 399 142 396 q 98 396 119 403 q 73 376 83 393 q 62 343 62 358 z "},"":{"ha":595,"x_min":11,"x_max":557,"o":"m 39 12 q 30 20 33 14 q 26 33 27 26 q 26 46 26 39 q 26 57 26 53 q 39 85 26 77 q 73 96 53 94 q 113 96 92 98 q 145 95 133 95 q 189 94 167 95 q 231 94 212 94 q 225 140 228 115 q 220 186 222 164 q 215 225 218 208 q 212 251 212 243 q 209 268 212 258 q 204 287 206 278 q 199 304 202 296 l 198 311 l 27 311 q 16 317 19 311 q 12 332 14 324 q 11 347 11 340 l 11 357 q 11 365 11 358 q 12 378 11 372 q 16 391 12 385 q 27 396 19 396 l 201 396 q 199 428 201 407 q 199 474 198 449 q 202 525 199 499 q 211 573 205 551 q 229 609 217 595 q 258 623 240 623 q 286 612 281 623 q 292 578 292 602 q 283 507 292 541 q 275 434 275 472 q 279 407 275 418 q 301 396 283 396 q 353 397 334 396 q 387 398 372 397 q 419 399 401 399 q 469 399 437 399 l 491 399 q 520 397 506 399 q 546 387 534 395 q 557 365 557 380 l 556 363 q 556 361 556 363 q 555 358 555 359 q 549 352 553 357 q 541 342 545 347 q 534 335 537 338 q 529 332 530 332 l 304 317 q 294 313 297 317 q 290 304 292 309 q 289 294 289 298 l 289 285 q 297 204 289 243 q 305 123 305 165 q 305 111 305 119 q 305 90 305 102 q 411 85 357 88 q 528 80 465 83 q 536 76 530 79 q 545 68 541 73 q 551 60 548 64 q 555 53 555 56 q 550 41 555 50 q 541 27 545 31 q 536 20 541 26 q 528 12 530 14 q 484 5 503 8 q 448 1 465 3 q 412 0 430 0 l 372 0 q 285 3 327 0 q 277 0 281 1 q 271 -1 274 -1 l 267 -1 q 264 0 264 -1 q 258 4 263 1 q 149 12 203 8 q 39 12 95 15 z "},"":{"ha":475,"x_min":19,"x_max":446,"o":"m 20 207 q 20 218 20 213 q 22 227 20 223 q 26 235 23 231 q 35 244 29 240 l 194 407 q 212 430 200 414 q 234 465 223 445 q 253 504 245 484 q 262 535 262 523 q 257 551 262 544 q 246 562 253 558 q 232 569 240 567 q 216 571 224 571 q 179 563 197 571 q 146 542 162 554 q 118 516 131 531 q 94 490 105 502 q 74 470 84 478 q 57 461 64 461 q 43 469 45 461 q 41 487 41 476 q 50 519 41 504 q 75 549 59 535 q 108 575 90 563 q 145 597 126 587 q 181 613 164 606 q 209 624 198 620 q 215 625 210 624 q 220 625 219 625 q 251 616 236 625 q 278 593 266 607 q 298 562 290 578 q 305 528 305 545 q 297 484 305 507 q 275 438 289 461 q 245 393 262 415 q 212 352 229 372 q 178 315 194 332 q 151 284 162 298 l 159 275 q 177 270 160 275 q 215 259 193 265 q 259 247 236 253 q 296 236 283 240 q 305 236 298 236 q 316 236 313 236 q 350 242 333 236 q 382 253 366 247 q 414 264 398 259 q 446 270 430 270 q 432 223 446 240 q 398 197 419 206 q 351 186 377 189 q 301 183 325 183 l 296 183 l 129 230 q 124 230 128 230 q 118 230 120 230 q 94 223 105 230 q 73 207 82 216 q 54 190 63 197 q 35 182 45 182 q 22 189 24 182 q 20 207 20 196 z "},"":{"ha":316,"x_min":19,"x_max":282,"o":"m 33 240 q 59 237 47 240 q 83 231 71 234 q 107 225 95 228 q 132 222 119 222 q 162 225 144 222 q 196 233 180 227 q 224 250 212 239 q 235 277 235 260 q 226 313 235 298 q 202 338 217 328 q 168 354 187 348 q 130 361 149 359 q 93 362 111 363 q 61 361 75 362 q 49 369 52 365 q 46 381 46 374 q 59 398 46 392 q 89 410 71 404 q 130 421 108 416 q 170 435 152 427 q 201 455 188 443 q 213 485 213 467 q 204 513 213 506 q 175 520 194 520 q 136 514 156 520 q 97 499 116 507 q 60 484 77 491 q 30 477 43 477 q 24 478 26 477 q 20 483 21 480 q 19 490 20 486 q 19 496 19 493 q 21 509 19 504 q 33 520 22 515 q 67 533 49 526 q 105 547 86 540 q 143 557 124 553 q 181 561 163 561 q 214 555 200 561 q 237 538 228 549 q 251 512 247 527 q 255 477 255 496 q 248 449 255 458 q 231 433 241 439 q 211 421 222 427 q 192 402 200 414 q 211 381 201 391 q 232 363 222 372 q 251 344 242 354 q 267 324 260 335 q 277 299 273 313 q 281 268 281 285 q 265 225 281 242 q 226 198 249 208 q 178 185 203 189 q 132 181 152 181 q 101 183 118 181 q 68 191 83 185 q 43 209 53 197 q 33 240 33 220 z "},"":{"ha":738,"x_min":195,"x_max":572,"o":"m 195 627 q 207 655 195 644 q 233 673 218 666 q 319 696 285 689 q 382 709 353 703 q 444 727 411 715 q 526 766 477 739 q 536 776 529 769 q 545 785 543 783 l 548 785 q 549 786 548 785 q 551 787 549 787 q 568 775 563 787 q 572 754 572 764 q 557 724 572 736 q 526 704 541 711 q 493 688 503 693 q 475 680 483 684 q 447 670 465 677 q 404 655 429 663 q 350 639 378 647 q 293 626 321 631 q 239 621 264 621 q 195 627 214 620 z "},"":{"ha":589,"x_min":33,"x_max":552,"o":"m 475 102 q 434 49 463 76 q 362 6 406 22 q 263 -7 319 -9 q 140 27 208 -4 q 136 10 136 27 q 137 -33 136 -7 q 140 -88 138 -58 q 143 -143 142 -118 q 144 -186 144 -168 q 142 -202 144 -203 q 109 -232 125 -235 q 81 -201 94 -229 q 60 -127 69 -174 q 43 -27 50 -81 q 34 85 37 27 q 33 193 31 142 l 33 231 q 33 283 33 255 q 38 342 34 312 q 50 397 42 372 q 68 439 57 422 q 99 463 80 457 q 116 458 109 465 q 129 443 123 452 q 137 424 134 434 q 138 410 140 414 q 123 352 132 385 q 110 283 115 319 q 105 210 104 247 q 116 145 106 174 q 146 98 126 117 q 205 77 167 80 q 316 96 262 77 q 408 152 370 115 q 460 240 445 189 q 456 357 476 292 q 458 374 456 365 q 466 391 461 382 q 477 404 471 399 q 495 410 484 410 q 511 398 503 418 q 528 344 519 378 q 543 264 536 309 q 552 178 549 220 q 552 100 555 136 q 541 50 549 65 q 503 42 517 42 q 481 47 488 42 q 473 60 475 52 q 473 78 472 69 q 476 94 475 87 q 475 102 477 100 z "},"":{"ha":718,"x_min":37,"x_max":665,"o":"m 665 722 q 655 555 665 637 q 636 389 646 472 q 620 224 627 307 q 620 57 613 141 q 583 23 604 34 q 534 12 563 12 q 535 50 534 23 q 536 107 536 77 q 539 163 537 137 q 541 201 541 190 q 545 275 541 231 q 554 368 549 319 q 564 464 559 416 q 574 550 570 511 q 579 612 578 589 q 581 636 581 636 q 522 637 549 636 q 472 642 495 639 q 495 568 495 612 q 488 433 495 499 l 479 298 q 469 164 473 232 q 468 27 465 96 q 444 5 458 12 q 415 -1 430 -1 q 403 -1 410 -1 q 390 2 396 0 q 379 7 384 4 q 374 19 374 11 q 377 119 374 71 q 384 216 380 168 q 392 312 388 264 q 403 410 396 359 l 403 423 q 396 437 401 427 q 388 449 391 448 q 385 449 388 449 l 382 449 l 381 450 q 378 450 380 450 q 374 449 377 449 q 320 426 350 439 q 263 410 290 412 q 256 409 262 410 q 241 408 250 408 q 223 408 232 408 q 209 407 214 407 q 146 413 178 407 q 91 435 115 419 q 52 476 66 450 q 37 541 37 502 q 56 631 37 597 q 109 684 76 666 q 182 708 141 703 q 267 713 224 713 q 336 712 307 713 q 390 709 365 711 q 440 707 415 708 q 496 707 465 707 q 566 711 526 708 q 665 722 606 713 z "},"":{"ha":292,"x_min":72,"x_max":217,"o":"m 72 357 q 82 380 72 372 q 106 393 92 388 q 135 401 121 399 q 157 403 149 403 q 180 394 170 403 q 198 373 190 385 q 212 347 206 361 q 217 326 217 334 q 214 294 217 309 q 195 271 212 278 q 180 271 191 271 q 165 270 170 270 q 131 275 148 270 q 101 290 114 279 q 80 317 88 301 q 72 357 72 334 z "},"":{"ha":738,"x_min":99,"x_max":528,"o":"m 157 35 q 172 -22 157 3 q 206 -64 186 -47 q 250 -90 227 -81 q 290 -103 273 -99 q 334 -111 302 -106 q 399 -123 365 -117 q 465 -136 434 -130 q 510 -142 496 -141 q 522 -161 515 -148 q 528 -182 528 -174 q 510 -223 528 -203 q 465 -259 492 -243 q 402 -288 437 -275 q 334 -310 368 -301 q 272 -323 301 -319 q 227 -327 243 -327 q 205 -315 216 -327 q 195 -286 195 -304 q 201 -262 195 -270 q 217 -252 208 -255 q 236 -250 227 -250 q 252 -248 245 -250 q 293 -237 269 -243 q 340 -224 317 -231 q 378 -213 362 -218 l 396 -209 l 396 -193 q 348 -189 377 -193 q 286 -174 319 -184 q 220 -147 254 -164 q 160 -106 187 -130 q 116 -50 133 -81 q 99 23 99 -19 l 157 35 z "},"":{"ha":172,"x_min":20,"x_max":134,"o":"m 135 582 q 127 485 135 533 q 111 389 120 437 q 96 293 101 341 q 96 195 91 245 q 22 171 69 171 q 22 192 22 177 q 24 225 23 208 q 26 258 25 242 q 27 279 27 273 q 31 338 28 305 q 38 403 34 370 q 48 470 42 436 q 61 533 53 503 q 83 570 67 557 q 135 582 99 582 z "},"":{"ha":260,"x_min":26,"x_max":233,"o":"m 26 323 q 33 361 26 342 q 52 398 39 381 q 81 426 64 415 q 121 437 99 437 q 209 412 184 437 q 233 332 233 387 l 233 298 q 217 275 229 285 q 190 257 205 264 q 159 246 175 250 q 133 243 144 243 q 96 247 115 243 q 62 260 77 251 q 36 285 46 270 q 26 323 26 300 m 73 327 q 83 300 73 309 q 109 289 94 290 q 143 293 125 288 q 178 308 161 298 q 188 347 186 328 q 184 377 190 365 q 162 393 178 389 q 119 388 146 397 q 103 380 111 387 q 87 365 95 373 q 77 346 80 357 q 73 327 73 335 z "},"":{"ha":741,"x_min":11,"x_max":1078,"o":"m 144 160 l 144 201 q 146 214 144 209 q 155 224 149 218 q 172 236 160 229 l 515 475 q 543 488 532 477 q 555 515 553 499 q 526 524 545 518 q 481 536 506 529 q 429 553 457 544 q 376 568 401 562 l 332 583 q 304 594 312 590 q 284 603 298 595 q 249 619 270 610 q 204 640 228 628 q 157 663 180 651 q 112 684 133 674 q 80 700 91 693 q 57 712 69 705 q 35 728 45 719 q 18 749 26 738 q 11 772 11 760 q 13 788 11 780 q 20 804 15 796 q 30 816 24 811 q 46 821 35 821 q 47 820 46 821 q 50 819 49 819 q 53 818 52 818 q 60 814 56 818 q 68 807 64 811 q 75 799 72 803 q 80 792 79 795 q 224 722 153 750 q 368 671 296 693 q 511 627 439 648 q 661 581 583 606 q 699 555 684 572 q 715 513 715 538 q 711 495 715 503 q 688 488 707 487 l 184 133 q 180 132 183 132 l 174 132 q 155 136 161 132 q 146 146 149 140 q 144 160 144 152 m 507 213 l 507 252 q 509 266 507 260 q 517 276 511 271 q 534 289 522 281 l 879 526 q 905 540 894 529 q 918 567 917 551 q 889 575 909 570 q 844 588 869 581 q 792 604 819 595 q 740 621 765 613 q 695 636 715 629 q 666 647 675 643 q 648 655 662 648 q 612 671 633 662 q 566 692 591 681 q 518 714 541 703 q 475 736 495 726 q 442 751 454 746 q 420 764 433 757 q 398 781 408 772 q 381 800 388 789 q 374 825 374 811 q 376 841 374 833 q 382 857 378 849 q 393 868 387 864 q 410 872 399 872 q 410 872 410 872 q 412 872 411 872 q 416 872 415 872 q 422 867 418 871 q 430 860 426 864 q 438 851 434 856 q 442 845 442 846 q 588 774 517 803 q 730 723 659 746 q 874 679 802 700 q 1024 633 947 658 q 1063 608 1047 627 q 1078 564 1078 590 q 1074 547 1078 555 q 1048 541 1070 540 l 548 184 q 544 183 547 183 l 537 183 q 519 187 525 183 q 510 198 513 191 q 507 213 507 205 z "},"":{"ha":665,"x_min":22,"x_max":513,"o":"m 131 592 q 124 492 131 541 q 108 392 117 442 q 94 293 99 343 q 94 192 89 243 q 22 167 67 167 q 23 189 22 173 q 25 223 24 205 q 27 257 26 241 q 27 279 27 273 q 31 339 28 306 q 38 407 34 373 q 47 476 42 441 q 61 541 52 511 q 81 579 66 566 q 131 592 96 592 m 30 14 q 39 75 30 46 q 60 130 47 103 q 87 184 73 157 q 111 239 100 210 q 117 263 111 244 q 129 304 122 282 q 142 347 136 327 q 151 370 148 366 q 170 416 156 385 q 202 487 184 448 q 240 570 220 526 q 279 652 260 613 q 312 723 297 692 q 335 768 327 754 q 341 777 336 774 q 352 781 346 780 q 364 782 358 783 q 374 781 370 781 q 408 774 400 781 q 415 741 415 766 q 414 727 415 738 q 414 715 414 716 q 323 550 365 640 q 244 366 281 460 q 177 181 208 273 q 122 14 146 90 q 104 -19 114 -11 q 69 -27 95 -27 q 38 -18 46 -27 q 30 14 30 -8 m 194 172 q 175 177 181 172 q 167 192 169 183 q 164 213 164 201 q 164 234 164 224 q 168 304 164 272 q 182 367 173 336 q 204 430 192 399 q 230 500 216 462 q 238 509 232 508 q 250 510 245 510 q 263 504 259 510 q 267 486 267 499 l 267 481 q 262 461 266 474 q 252 431 257 447 q 241 395 246 415 q 230 359 235 376 q 221 328 225 342 q 216 308 217 314 q 211 292 213 299 q 209 279 210 286 q 207 267 207 273 q 207 252 207 261 q 207 246 207 250 q 207 238 207 242 q 210 231 208 234 q 216 226 211 228 l 222 226 q 232 226 227 226 q 242 226 237 226 l 258 226 q 280 226 269 226 q 302 229 292 227 q 312 235 311 230 l 326 390 q 330 406 327 402 q 341 409 334 409 q 348 408 344 409 q 355 405 352 407 q 360 399 358 403 q 363 390 363 395 l 363 235 l 488 235 q 505 225 499 235 q 512 203 512 215 q 511 190 512 197 q 502 181 510 183 q 487 181 499 181 q 463 181 476 181 q 438 181 450 181 q 422 181 426 181 q 406 179 416 181 q 387 177 396 178 q 370 174 378 176 q 363 172 363 172 l 356 162 l 356 -7 q 346 -6 353 -7 q 334 -1 340 -4 q 323 6 328 1 q 319 17 319 10 l 304 172 l 194 172 z "},"":{"ha":789,"x_min":22,"x_max":656,"o":"m 131 598 q 124 496 131 546 q 108 396 117 446 q 94 296 99 346 q 94 193 89 245 q 22 168 67 168 q 23 191 22 174 q 25 225 24 207 q 27 259 26 243 q 27 282 27 275 q 31 343 28 309 q 38 411 34 376 q 47 481 42 446 q 61 546 52 516 q 81 585 66 572 q 131 598 96 598 m 65 5 q 74 66 65 38 q 96 122 83 95 q 122 176 109 149 q 146 231 136 202 q 152 255 146 236 q 164 296 157 274 q 177 338 171 319 q 186 362 183 358 q 205 408 191 377 q 237 479 220 439 q 275 562 255 518 q 314 644 296 605 q 347 715 332 684 q 370 760 362 746 q 376 769 372 766 q 387 773 381 772 q 399 774 393 774 q 410 773 406 773 q 443 766 435 773 q 450 732 450 758 q 450 719 450 730 q 449 707 449 708 q 358 542 400 632 q 279 358 316 452 q 212 173 243 264 q 157 5 182 81 q 140 -27 149 -19 q 104 -35 130 -35 q 73 -26 81 -35 q 65 5 65 -16 m 183 31 q 183 41 183 37 q 185 49 183 46 q 190 57 187 53 q 199 66 193 61 l 377 219 q 396 240 383 225 q 420 273 408 255 q 442 310 432 291 q 451 339 451 328 q 446 354 451 347 q 434 365 441 360 q 418 371 427 369 q 401 373 409 373 q 360 365 379 373 q 323 346 340 357 q 292 321 306 335 q 266 297 277 308 q 243 278 254 285 q 224 270 232 270 q 209 276 211 270 q 207 294 207 283 q 217 324 207 309 q 244 352 227 338 q 281 377 261 365 q 322 397 301 388 q 362 412 343 406 q 393 423 381 419 q 399 423 394 423 q 405 424 404 424 q 440 415 423 424 q 470 393 456 406 q 491 364 483 380 q 499 332 499 348 q 490 291 499 312 q 466 248 481 269 q 433 206 451 226 q 396 167 415 185 q 359 132 377 148 q 329 103 341 116 l 337 95 q 357 90 339 95 q 399 80 375 85 q 449 68 423 74 q 490 58 475 62 q 499 58 491 58 q 512 58 508 58 q 549 63 531 58 q 585 74 568 68 q 621 84 603 79 q 655 90 638 90 q 641 46 655 62 q 602 22 626 30 q 551 11 579 13 q 495 8 522 8 l 490 8 l 305 52 q 299 52 303 52 q 292 52 295 52 q 265 46 277 52 q 241 30 252 39 q 221 14 231 22 q 199 7 211 7 q 185 14 188 7 q 183 31 183 20 z "},"":{"ha":911,"x_min":20,"x_max":711,"o":"m 37 243 q 67 239 53 243 q 95 232 82 236 q 123 226 109 229 q 151 222 136 222 q 186 225 165 222 q 226 235 207 228 q 258 254 245 242 q 271 285 271 266 q 260 327 271 310 q 232 355 250 343 q 193 373 215 366 q 150 381 172 379 q 107 383 127 383 q 69 381 86 382 q 56 391 59 385 q 52 404 52 396 q 67 423 52 416 q 102 437 82 431 q 149 450 123 444 q 195 466 174 457 q 231 489 217 475 q 245 523 245 503 q 234 555 245 547 q 201 563 223 563 q 156 555 179 563 q 111 539 133 548 q 68 521 88 529 q 33 513 49 513 q 26 515 29 513 q 23 521 23 517 q 21 528 22 524 q 21 536 21 532 q 23 551 21 545 q 37 562 25 557 q 77 578 56 570 q 120 593 98 586 q 165 605 142 600 q 208 609 187 609 q 247 603 231 609 q 273 584 263 596 q 289 553 284 571 q 294 513 294 536 q 286 481 294 492 q 266 463 277 470 q 243 449 255 457 q 221 428 231 442 q 243 404 231 415 q 267 383 255 394 q 289 362 278 373 q 307 339 299 352 q 320 310 315 326 q 324 275 324 294 q 306 226 324 245 q 261 195 287 206 q 204 180 234 184 q 152 176 175 176 q 116 178 136 176 q 78 187 96 180 q 49 207 60 194 q 37 243 37 220 m 256 39 q 265 100 256 72 q 287 156 274 129 q 313 210 300 183 q 338 264 327 236 q 343 289 338 270 q 355 330 349 308 q 368 372 362 353 q 377 396 374 392 q 397 442 382 411 q 429 513 411 473 q 467 595 446 552 q 505 678 487 639 q 538 749 524 718 q 562 793 553 780 q 568 803 563 800 q 578 807 572 806 q 591 808 585 808 q 601 807 597 807 q 634 800 627 807 q 642 766 642 792 q 641 753 642 764 q 640 741 640 742 q 549 576 591 666 q 471 392 507 486 q 404 207 434 298 q 349 39 373 115 q 331 7 340 15 q 296 -1 321 -1 q 264 8 273 -1 q 256 39 256 18 m 351 166 q 330 171 337 166 q 321 185 323 176 q 318 204 318 194 q 317 224 317 214 q 323 288 317 258 q 339 346 328 318 q 363 405 349 375 q 392 468 376 434 q 402 477 395 476 q 415 478 409 478 q 430 473 425 478 q 434 455 434 467 l 434 451 q 428 433 433 445 q 417 405 423 420 q 404 372 410 390 q 392 339 398 355 q 382 310 386 323 q 376 292 378 297 q 371 277 373 283 q 368 266 369 271 q 367 254 367 260 q 367 240 367 249 q 366 235 367 238 q 367 227 366 231 q 369 221 368 224 q 376 216 371 218 l 383 216 q 395 216 389 216 q 406 216 400 216 l 424 216 q 449 216 436 216 q 473 219 462 217 q 485 225 484 220 l 501 368 q 506 382 502 379 q 517 385 509 385 q 526 384 521 385 q 533 381 530 383 q 539 376 537 380 q 542 368 542 372 l 542 225 l 684 225 q 703 215 696 225 q 710 195 710 206 q 709 183 710 189 q 700 175 708 176 q 683 175 696 175 q 655 175 670 175 q 627 175 641 175 q 609 175 614 175 q 591 173 603 175 q 569 171 579 172 q 551 169 559 170 q 542 166 543 167 l 534 157 l 534 2 q 524 3 531 2 q 509 7 516 4 q 498 13 503 9 q 492 24 492 17 l 476 166 l 351 166 z "},"":{"ha":555,"x_min":24,"x_max":517,"o":"m 73 354 q 101 292 73 319 q 169 238 129 264 q 257 189 210 212 q 346 144 305 167 q 413 97 386 120 q 440 46 440 73 q 423 9 440 24 q 380 -15 405 -6 q 328 -28 355 -24 q 281 -32 300 -32 q 202 -17 241 -32 q 131 15 163 -3 q 76 47 99 32 q 44 62 53 62 q 32 58 36 62 q 26 50 28 55 q 24 39 24 45 l 24 29 q 39 -7 24 10 q 77 -39 53 -24 q 130 -65 100 -53 q 189 -85 160 -77 q 244 -98 218 -93 q 290 -103 270 -103 q 364 -91 323 -103 q 438 -60 404 -80 q 494 -12 471 -40 q 516 47 516 16 q 489 114 516 84 q 422 170 462 144 q 333 219 381 196 q 245 265 286 242 q 178 311 205 288 q 151 361 151 333 q 156 380 151 371 q 169 397 162 389 q 183 413 176 405 q 189 431 189 421 q 179 441 189 440 q 163 443 169 443 q 126 434 143 443 q 98 413 109 426 q 80 384 86 400 q 73 354 73 368 m 62 591 q 70 570 62 579 q 90 555 79 561 q 117 547 102 549 q 145 545 131 545 q 191 560 178 545 q 203 599 203 575 q 187 631 203 623 q 143 640 171 640 q 117 637 131 640 q 90 629 102 634 q 70 614 79 624 q 62 591 62 605 z "},"":{"ha":608,"x_min":11,"x_max":595,"o":"m 488 12 q 479 59 483 30 q 471 123 475 88 q 462 193 467 157 q 452 262 457 229 q 440 319 448 294 q 423 357 433 345 l 410 357 q 390 357 400 357 q 370 357 380 357 l 357 357 q 305 357 328 357 q 260 353 282 357 q 214 345 239 350 q 157 330 190 340 q 142 315 149 327 q 131 288 136 302 q 123 260 126 274 q 119 237 119 247 q 117 203 119 228 q 113 152 115 179 q 109 100 111 125 q 104 66 106 75 q 77 38 95 50 q 39 26 60 26 q 16 34 22 26 q 11 60 11 42 q 12 69 11 61 q 12 80 12 77 q 84 444 33 264 q 212 793 136 623 q 215 799 212 795 q 223 807 218 803 q 232 814 228 811 q 237 818 236 818 q 241 819 240 818 q 243 819 243 819 l 244 821 q 304 798 275 821 q 361 742 334 776 q 410 665 388 708 q 448 582 431 623 q 475 505 465 541 q 488 449 486 469 q 519 436 503 441 q 549 425 534 431 q 576 410 564 419 q 595 382 587 401 q 595 377 595 381 q 591 369 594 373 q 587 361 589 365 q 582 357 585 357 q 569 353 579 355 q 549 348 559 350 q 528 345 538 346 q 515 343 518 343 l 515 336 q 526 207 515 274 q 555 80 537 140 q 557 75 555 79 q 562 66 559 71 q 566 58 564 62 q 568 53 567 53 l 568 46 q 551 11 568 23 q 515 -1 534 -1 q 499 1 506 -1 q 488 12 492 3 m 172 419 q 233 422 198 419 q 302 431 267 426 q 366 441 336 437 q 410 449 396 446 q 401 480 408 457 q 385 529 393 503 q 369 577 377 555 q 357 608 361 600 q 345 627 354 613 q 325 655 336 642 q 300 679 313 669 q 278 689 288 689 q 263 688 270 689 q 251 673 256 686 l 172 449 l 172 419 m 535 688 q 483 682 513 682 q 419 688 453 683 q 352 701 386 693 q 288 717 317 708 q 236 732 258 725 q 202 742 213 740 q 193 746 197 744 q 182 750 188 747 q 164 756 175 753 l 139 767 q 122 776 131 771 q 104 786 113 780 q 90 800 95 792 q 85 817 85 808 q 87 827 85 822 q 92 838 89 833 q 100 846 95 843 q 113 849 105 849 q 114 849 114 849 q 116 848 114 848 q 119 847 117 847 q 124 845 120 847 q 130 839 127 843 q 136 833 132 836 q 139 829 139 831 q 210 799 179 810 q 265 781 240 788 q 313 770 290 775 q 362 762 337 766 q 418 752 387 758 q 490 733 448 745 q 522 717 510 729 q 535 688 535 705 z "},"":{"ha":608,"x_min":11,"x_max":595,"o":"m 488 12 q 479 59 483 30 q 471 123 475 88 q 462 193 467 157 q 452 262 457 229 q 440 319 448 294 q 423 357 433 345 l 410 357 q 390 357 400 357 q 370 357 380 357 l 357 357 q 305 357 328 357 q 260 353 282 357 q 214 345 239 350 q 157 330 190 340 q 142 315 149 327 q 131 288 136 302 q 123 260 126 274 q 119 237 119 247 q 117 203 119 228 q 113 152 115 179 q 109 100 111 125 q 104 66 106 75 q 77 38 95 50 q 39 26 60 26 q 16 34 22 26 q 11 60 11 42 q 12 69 11 61 q 12 80 12 77 q 84 444 33 264 q 212 793 136 623 q 215 799 212 795 q 223 807 218 803 q 232 814 228 811 q 237 818 236 818 q 241 819 240 818 q 243 819 243 819 l 244 821 q 304 798 275 821 q 361 742 334 776 q 410 665 388 708 q 448 582 431 623 q 475 505 465 541 q 488 449 486 469 q 519 436 503 441 q 549 425 534 431 q 576 410 564 419 q 595 382 587 401 q 595 377 595 381 q 591 369 594 373 q 587 361 589 365 q 582 357 585 357 q 569 353 579 355 q 549 348 559 350 q 528 345 538 346 q 515 343 518 343 l 515 336 q 526 207 515 274 q 555 80 537 140 q 557 75 555 79 q 562 66 559 71 q 566 58 564 62 q 568 53 567 53 l 568 46 q 551 11 568 23 q 515 -1 534 -1 q 499 1 506 -1 q 488 12 492 3 m 172 419 q 233 422 198 419 q 302 431 267 426 q 366 441 336 437 q 410 449 396 446 q 401 480 408 457 q 385 529 393 503 q 369 577 377 555 q 357 608 361 600 q 345 627 354 613 q 325 655 336 642 q 300 679 313 669 q 278 689 288 689 q 263 688 270 689 q 251 673 256 686 l 172 449 l 172 419 m 117 849 q 128 878 117 867 q 155 895 140 888 q 240 918 206 911 q 303 931 274 925 q 366 949 332 937 q 448 989 399 962 q 457 998 450 991 q 467 1008 464 1005 l 469 1008 q 470 1008 469 1008 q 472 1009 471 1009 q 489 998 484 1009 q 494 977 494 986 q 478 946 494 959 q 448 926 463 933 q 414 911 425 916 q 396 902 404 906 q 368 892 387 899 q 325 878 350 886 q 271 861 300 869 q 214 848 243 853 q 161 843 186 844 q 117 849 136 842 z "},"":{"ha":608,"x_min":11,"x_max":595,"o":"m 488 12 q 479 59 483 30 q 471 123 475 88 q 462 193 467 157 q 452 262 457 229 q 440 319 448 294 q 423 357 433 345 l 410 357 q 390 357 400 357 q 370 357 380 357 l 357 357 q 305 357 328 357 q 260 353 282 357 q 214 345 239 350 q 157 330 190 340 q 142 315 149 327 q 131 288 136 302 q 123 260 126 274 q 119 237 119 247 q 117 203 119 228 q 113 152 115 179 q 109 100 111 125 q 104 66 106 75 q 77 38 95 50 q 39 26 60 26 q 16 34 22 26 q 11 60 11 42 q 12 69 11 61 q 12 80 12 77 q 84 444 33 264 q 212 793 136 623 q 215 799 212 795 q 223 807 218 803 q 232 814 228 811 q 237 818 236 818 q 241 819 240 818 q 243 819 243 819 l 244 821 q 304 798 275 821 q 361 742 334 776 q 410 665 388 708 q 448 582 431 623 q 475 505 465 541 q 488 449 486 469 q 519 436 503 441 q 549 425 534 431 q 576 410 564 419 q 595 382 587 401 q 595 377 595 381 q 591 369 594 373 q 587 361 589 365 q 582 357 585 357 q 569 353 579 355 q 549 348 559 350 q 528 345 538 346 q 515 343 518 343 l 515 336 q 526 207 515 274 q 555 80 537 140 q 557 75 555 79 q 562 66 559 71 q 566 58 564 62 q 568 53 567 53 l 568 46 q 551 11 568 23 q 515 -1 534 -1 q 499 1 506 -1 q 488 12 492 3 m 172 419 q 233 422 198 419 q 302 431 267 426 q 366 441 336 437 q 410 449 396 446 q 401 480 408 457 q 385 529 393 503 q 369 577 377 555 q 357 608 361 600 q 345 627 354 613 q 325 655 336 642 q 300 679 313 669 q 278 689 288 689 q 263 688 270 689 q 251 673 256 686 l 172 449 l 172 419 m 104 830 q 113 887 104 853 q 134 958 121 921 q 165 1031 146 994 q 207 1097 184 1067 q 255 1143 229 1126 q 308 1161 281 1161 q 326 1162 316 1161 q 345 1160 335 1162 q 361 1152 354 1157 q 372 1134 368 1147 q 391 1055 378 1095 q 422 976 404 1015 q 461 901 441 937 q 503 830 481 864 q 480 799 490 810 q 452 788 471 788 q 418 808 434 788 q 388 858 401 829 q 361 922 374 887 q 338 987 349 956 q 317 1037 327 1017 q 298 1057 307 1057 q 260 1036 274 1057 q 237 985 245 1016 q 220 917 228 954 q 203 849 213 880 q 177 798 194 818 q 133 777 160 777 q 121 784 126 777 q 113 800 117 791 q 106 817 109 808 q 104 830 104 826 z "},"":{"ha":608,"x_min":1,"x_max":609,"o":"m 488 12 q 479 59 483 30 q 471 123 475 88 q 462 193 467 157 q 452 262 457 229 q 440 319 448 294 q 423 357 433 345 l 410 357 q 390 357 400 357 q 370 357 380 357 l 357 357 q 305 357 328 357 q 260 353 282 357 q 214 345 239 350 q 157 330 190 340 q 142 315 149 327 q 131 288 136 302 q 123 260 126 274 q 119 237 119 247 q 117 203 119 228 q 113 152 115 179 q 109 100 111 125 q 104 66 106 75 q 77 38 95 50 q 39 26 60 26 q 16 34 22 26 q 11 60 11 42 q 12 69 11 61 q 12 80 12 77 q 84 444 33 264 q 212 793 136 623 q 215 799 212 795 q 223 807 218 803 q 232 814 228 811 q 237 818 236 818 q 241 819 240 818 q 243 819 243 819 l 244 821 q 304 798 275 821 q 361 742 334 776 q 410 665 388 708 q 448 582 431 623 q 475 505 465 541 q 488 449 486 469 q 519 436 503 441 q 549 425 534 431 q 576 410 564 419 q 595 382 587 401 q 595 377 595 381 q 591 369 594 373 q 587 361 589 365 q 582 357 585 357 q 569 353 579 355 q 549 348 559 350 q 528 345 538 346 q 515 343 518 343 l 515 336 q 526 207 515 274 q 555 80 537 140 q 557 75 555 79 q 562 66 559 71 q 566 58 564 62 q 568 53 567 53 l 568 46 q 551 11 568 23 q 515 -1 534 -1 q 499 1 506 -1 q 488 12 492 3 m 172 419 q 233 422 198 419 q 302 431 267 426 q 366 441 336 437 q 410 449 396 446 q 401 480 408 457 q 385 529 393 503 q 369 577 377 555 q 357 608 361 600 q 345 627 354 613 q 325 655 336 642 q 300 679 313 669 q 278 689 288 689 q 263 688 270 689 q 251 673 256 686 l 172 449 l 172 419 m 180 936 q 142 927 157 936 q 116 905 127 918 q 96 876 104 891 q 78 846 87 860 q 58 824 69 833 q 28 815 46 815 q 6 824 11 815 q 1 849 1 833 q 20 913 1 883 q 67 966 39 943 q 129 1003 95 989 q 193 1017 163 1017 q 236 1008 217 1017 q 271 985 255 998 q 301 956 286 971 q 333 926 316 940 q 371 904 350 913 q 418 895 392 895 q 460 906 442 895 q 494 930 479 917 q 526 954 510 943 q 563 964 541 964 q 594 954 586 964 q 609 922 602 944 q 583 892 601 911 q 542 852 564 872 q 496 819 519 833 q 453 804 472 804 q 388 814 418 804 q 332 839 358 825 q 285 870 307 853 q 244 901 263 887 q 210 926 225 916 q 180 936 194 936 z "},"":{"ha":608,"x_min":11,"x_max":595,"o":"m 488 12 q 479 59 483 30 q 471 123 475 88 q 462 193 467 157 q 452 262 457 229 q 440 319 448 294 q 423 357 433 345 l 410 357 q 390 357 400 357 q 370 357 380 357 l 357 357 q 305 357 328 357 q 260 353 282 357 q 214 345 239 350 q 157 330 190 340 q 142 315 149 327 q 131 288 136 302 q 123 260 126 274 q 119 237 119 247 q 117 203 119 228 q 113 152 115 179 q 109 100 111 125 q 104 66 106 75 q 77 38 95 50 q 39 26 60 26 q 16 34 22 26 q 11 60 11 42 q 12 69 11 61 q 12 80 12 77 q 84 444 33 264 q 212 793 136 623 q 215 799 212 795 q 223 807 218 803 q 232 814 228 811 q 237 818 236 818 q 241 819 240 818 q 243 819 243 819 l 244 821 q 304 798 275 821 q 361 742 334 776 q 410 665 388 708 q 448 582 431 623 q 475 505 465 541 q 488 449 486 469 q 519 436 503 441 q 549 425 534 431 q 576 410 564 419 q 595 382 587 401 q 595 377 595 381 q 591 369 594 373 q 587 361 589 365 q 582 357 585 357 q 569 353 579 355 q 549 348 559 350 q 528 345 538 346 q 515 343 518 343 l 515 336 q 526 207 515 274 q 555 80 537 140 q 557 75 555 79 q 562 66 559 71 q 566 58 564 62 q 568 53 567 53 l 568 46 q 551 11 568 23 q 515 -1 534 -1 q 499 1 506 -1 q 488 12 492 3 m 172 419 q 233 422 198 419 q 302 431 267 426 q 366 441 336 437 q 410 449 396 446 q 401 480 408 457 q 385 529 393 503 q 369 577 377 555 q 357 608 361 600 q 345 627 354 613 q 325 655 336 642 q 300 679 313 669 q 278 689 288 689 q 263 688 270 689 q 251 673 256 686 l 172 449 l 172 419 m 65 986 q 79 1014 65 1002 q 113 1032 94 1025 q 153 1041 133 1039 q 183 1043 172 1043 q 214 1032 199 1043 q 239 1006 228 1021 q 258 973 251 990 q 264 944 264 956 q 264 923 264 933 q 261 904 263 913 q 252 887 259 895 q 233 876 245 879 q 225 876 231 876 q 214 875 220 875 q 202 874 208 875 q 194 873 197 873 q 147 880 171 873 q 106 901 123 887 q 77 935 88 914 q 65 986 65 956 m 347 982 q 362 1011 347 1000 q 396 1029 377 1023 q 435 1038 415 1035 q 465 1040 454 1040 q 494 1029 480 1040 q 519 1002 507 1017 q 538 970 530 987 q 545 940 545 954 q 545 919 545 929 q 541 900 544 909 q 532 884 538 891 q 514 872 525 876 q 506 872 511 872 q 494 872 500 872 q 482 871 488 872 q 475 871 476 871 q 429 877 452 871 q 387 897 406 883 q 358 931 369 910 q 347 982 347 952 z "},"":{"ha":608,"x_min":11,"x_max":595,"o":"m 103 890 q 113 954 103 921 q 141 1015 122 987 q 186 1061 160 1043 q 247 1080 213 1080 q 326 1069 293 1080 q 378 1038 358 1059 q 408 983 399 1016 q 416 905 416 949 l 416 895 q 416 878 416 887 q 416 863 416 869 l 416 850 q 392 812 410 827 q 354 789 374 798 q 324 781 339 785 q 361 742 343 765 q 410 665 388 708 q 448 582 431 623 q 475 505 465 541 q 488 449 486 469 q 519 436 503 441 q 549 425 534 431 q 576 410 564 419 q 595 382 587 401 q 595 377 595 381 q 591 369 594 373 q 587 361 589 365 q 582 357 585 357 q 569 353 579 355 q 549 348 559 350 q 528 345 538 346 q 515 343 518 343 l 515 336 q 526 207 515 274 q 555 80 537 140 q 557 75 555 79 q 562 66 559 71 q 566 58 564 62 q 568 53 567 53 l 568 46 q 551 11 568 23 q 515 -1 534 -1 q 499 1 506 -1 q 488 12 492 3 q 479 59 483 30 q 471 123 475 88 q 462 193 467 157 q 452 262 457 229 q 440 319 448 294 q 423 357 433 345 l 410 357 q 390 357 400 357 q 370 357 380 357 l 357 357 q 305 357 328 357 q 260 353 282 357 q 214 345 239 350 q 157 330 190 340 q 142 315 149 327 q 131 288 136 302 q 123 260 126 274 q 119 237 119 247 q 117 203 119 228 q 113 152 115 179 q 109 100 111 125 q 104 66 106 75 q 77 38 95 50 q 39 26 60 26 q 16 34 22 26 q 11 60 11 42 q 12 69 11 61 q 12 80 12 77 q 84 444 33 264 q 206 781 134 617 q 159 795 180 785 q 119 829 134 807 q 103 890 103 852 m 172 419 q 233 422 198 419 q 302 431 267 426 q 366 441 336 437 q 410 449 396 446 q 401 480 408 457 q 385 529 393 503 q 369 577 377 555 q 357 608 361 600 q 345 627 354 613 q 325 655 336 642 q 300 679 313 669 q 278 689 288 689 q 263 688 270 689 q 251 673 256 686 l 172 449 l 172 419 m 144 901 q 157 861 144 876 q 190 836 171 845 q 229 825 209 827 q 266 822 250 822 q 292 823 281 822 q 315 825 304 823 q 338 834 327 827 q 366 850 350 841 q 374 880 374 865 q 374 910 374 895 q 364 966 374 941 q 335 1006 354 990 q 290 1026 316 1021 q 235 1024 264 1031 q 205 1007 221 1021 q 176 975 189 993 q 153 936 163 956 q 144 901 144 916 z "},"":{"ha":1111,"x_min":11,"x_max":1059,"o":"m 488 12 q 479 59 483 30 q 471 123 475 88 q 462 193 467 157 q 452 262 457 229 q 440 319 448 294 q 423 357 433 345 l 410 357 q 390 357 400 357 q 370 357 380 357 l 357 357 q 305 357 328 357 q 260 353 282 357 q 214 345 239 350 q 157 330 190 340 q 142 315 149 327 q 131 288 136 302 q 123 260 126 274 q 119 237 119 247 q 117 203 119 228 q 113 152 115 179 q 109 100 111 125 q 104 66 106 75 q 77 38 95 50 q 39 26 60 26 q 16 34 22 26 q 11 60 11 42 q 12 69 11 61 q 12 80 12 77 q 84 444 33 264 q 212 793 136 623 q 215 799 212 795 q 223 807 218 803 q 232 814 228 811 q 237 818 236 818 q 241 819 240 818 l 243 819 l 244 821 q 304 798 275 821 q 361 742 334 776 q 410 665 388 708 q 448 582 431 623 q 475 505 465 541 q 488 454 484 473 q 503 587 495 524 q 532 633 507 614 q 592 663 556 651 q 673 682 628 675 q 760 692 718 689 q 841 695 803 694 q 902 696 879 696 q 925 696 910 696 q 957 696 940 696 q 992 696 974 697 q 1026 690 1010 694 q 1050 675 1042 685 q 1059 651 1059 666 q 1055 634 1059 642 q 1032 627 1050 627 q 804 623 918 640 q 582 574 690 606 q 583 562 583 571 l 583 522 q 582 509 583 513 q 581 498 582 506 q 576 481 579 491 q 572 465 574 472 q 570 456 570 457 q 575 449 570 454 q 582 442 581 444 l 595 442 q 628 446 604 444 q 686 450 652 448 q 755 455 719 453 q 825 461 792 457 q 882 467 857 465 q 914 468 906 468 l 918 468 q 930 469 925 468 q 941 469 935 469 l 949 469 q 984 465 974 469 q 994 434 994 460 q 975 404 994 412 q 926 391 956 395 q 857 389 895 388 q 776 390 818 389 q 695 388 734 391 q 626 375 656 385 q 576 345 595 365 q 557 290 557 326 q 575 214 557 243 q 622 170 593 186 q 689 149 651 155 q 768 144 727 144 q 850 147 810 145 q 926 149 891 149 q 984 157 958 149 q 1039 165 1010 165 q 1053 161 1048 165 q 1058 150 1057 157 q 1059 136 1059 142 l 1059 123 q 1057 96 1059 107 q 1032 85 1055 85 l 650 85 q 571 100 604 85 q 545 114 557 106 l 555 80 q 557 75 555 79 q 562 66 559 71 q 566 58 564 62 q 568 53 567 53 l 568 46 q 551 11 568 23 q 515 -1 534 -1 q 499 1 506 -1 q 488 12 492 3 m 172 419 q 233 422 198 419 q 302 431 267 426 q 366 441 336 437 q 410 449 396 446 q 401 480 408 457 q 385 529 393 503 q 369 577 377 555 q 357 608 361 600 q 345 627 354 613 q 325 655 336 642 q 300 679 313 669 q 278 689 288 689 q 263 688 270 689 q 251 673 256 686 l 172 449 l 172 419 z "},"":{"ha":713,"x_min":11,"x_max":689,"o":"m 11 271 q 38 365 11 324 q 107 436 65 406 q 203 487 149 467 q 312 519 258 507 q 417 536 366 532 q 505 541 468 541 q 532 530 519 541 q 544 503 544 519 q 541 477 544 488 q 528 449 537 465 q 456 453 499 453 q 366 448 412 453 q 273 429 319 442 q 189 394 227 416 q 127 340 151 372 q 104 264 104 309 q 118 195 104 224 q 155 144 132 165 q 208 111 178 123 q 271 90 237 98 q 338 80 304 83 q 403 77 372 77 q 473 79 438 77 q 540 84 507 80 q 606 96 572 88 q 673 119 640 103 q 688 105 688 115 q 689 84 689 95 q 672 42 689 58 q 627 16 655 26 q 566 3 600 7 q 499 -2 532 -1 q 439 -2 467 -3 q 396 -1 411 -1 q 311 4 355 -1 q 281 8 296 5 q 311 -27 293 -12 q 355 -54 331 -43 q 396 -66 378 -64 q 439 -75 408 -69 q 506 -87 471 -81 q 572 -99 541 -94 q 616 -106 604 -104 q 627 -124 620 -111 q 633 -145 633 -137 q 616 -187 633 -168 q 570 -222 598 -206 q 507 -252 541 -239 q 439 -274 473 -266 q 378 -286 406 -282 q 334 -290 350 -290 q 311 -279 321 -290 q 301 -250 301 -269 q 307 -227 301 -235 q 321 -216 312 -220 q 340 -213 331 -213 q 357 -212 350 -213 q 399 -200 374 -206 q 446 -188 423 -194 q 484 -176 468 -182 l 500 -172 l 500 -157 q 453 -153 481 -157 q 391 -138 425 -148 q 325 -111 358 -127 q 265 -71 292 -95 q 221 -14 239 -46 q 208 27 212 4 q 142 57 172 39 q 75 107 103 77 q 28 178 46 137 q 11 271 11 218 z "},"":{"ha":633,"x_min":11,"x_max":595,"o":"m 11 190 q 20 347 11 264 q 39 503 30 429 q 66 547 42 529 q 127 578 91 566 q 208 597 164 590 q 295 606 252 604 q 376 610 338 609 q 437 610 414 610 q 460 610 445 610 q 492 611 475 610 q 529 610 510 612 q 562 604 548 609 q 586 590 576 600 q 595 566 595 581 q 591 549 595 556 q 568 541 586 541 q 340 538 454 555 q 119 488 227 521 q 119 475 119 486 l 119 437 q 119 423 119 426 q 117 413 119 420 q 112 397 114 406 q 107 380 110 388 q 104 370 104 372 q 110 363 104 368 q 119 357 115 358 l 133 357 q 164 359 140 357 q 221 364 189 361 q 290 370 254 368 q 359 376 327 373 q 417 380 392 378 q 449 382 442 381 l 454 382 q 466 383 460 382 q 476 384 472 384 l 486 384 q 520 379 510 384 q 530 349 530 374 q 511 318 530 327 q 462 306 492 309 q 392 303 431 302 q 312 304 353 304 q 231 302 271 305 q 161 290 191 300 q 112 260 130 281 q 94 205 94 240 q 111 129 94 157 q 159 85 129 100 q 227 64 189 69 q 304 59 264 58 q 385 62 345 60 q 461 65 426 65 q 520 73 494 65 q 575 80 547 80 q 588 75 583 80 q 594 64 593 71 q 595 50 595 57 l 595 38 q 593 11 595 22 q 568 0 590 0 l 184 0 q 106 14 140 0 q 53 54 73 28 q 22 115 33 80 q 11 190 11 149 m 593 682 q 528 673 566 673 q 450 682 491 674 q 366 701 408 689 q 286 724 323 712 q 222 747 250 736 q 180 762 194 758 q 168 767 174 765 q 155 773 163 769 q 133 783 146 777 l 102 799 q 81 811 92 804 q 58 827 69 818 q 41 847 47 836 q 35 872 35 859 q 37 887 35 879 q 43 903 39 895 q 54 915 47 910 q 69 920 60 920 q 71 919 71 920 q 73 918 71 918 q 77 917 75 917 q 83 913 79 917 q 90 905 87 910 q 98 897 94 901 q 102 890 102 892 q 189 846 152 863 q 258 820 227 830 q 318 804 289 810 q 378 791 347 798 q 448 776 410 785 q 537 749 486 766 q 577 724 562 742 q 593 682 593 707 z "},"":{"ha":633,"x_min":11,"x_max":595,"o":"m 11 190 q 20 347 11 264 q 39 503 30 429 q 66 547 42 529 q 127 578 91 566 q 208 597 164 590 q 295 606 252 604 q 376 610 338 609 q 437 610 414 610 q 460 610 445 610 q 492 611 475 610 q 529 610 510 612 q 562 604 548 609 q 586 590 576 600 q 595 566 595 581 q 591 549 595 556 q 568 541 586 541 q 340 538 454 555 q 119 488 227 521 q 119 475 119 486 l 119 437 q 119 423 119 426 q 117 413 119 420 q 112 397 114 406 q 107 380 110 388 q 104 370 104 372 q 110 363 104 368 q 119 357 115 358 l 133 357 q 164 359 140 357 q 221 364 189 361 q 290 370 254 368 q 359 376 327 373 q 417 380 392 378 q 449 382 442 381 l 454 382 q 466 383 460 382 q 476 384 472 384 l 486 384 q 520 379 510 384 q 530 349 530 374 q 511 318 530 327 q 462 306 492 309 q 392 303 431 302 q 312 304 353 304 q 231 302 271 305 q 161 290 191 300 q 112 260 130 281 q 94 205 94 240 q 111 129 94 157 q 159 85 129 100 q 227 64 189 69 q 304 59 264 58 q 385 62 345 60 q 461 65 426 65 q 520 73 494 65 q 575 80 547 80 q 588 75 583 80 q 594 64 593 71 q 595 50 595 57 l 595 38 q 593 11 595 22 q 568 0 590 0 l 184 0 q 106 14 140 0 q 53 54 73 28 q 22 115 33 80 q 11 190 11 149 m 102 681 q 113 709 102 699 q 140 727 125 720 q 225 750 191 743 q 288 763 259 757 q 351 781 317 769 q 433 821 384 793 q 442 830 435 823 q 452 840 449 837 l 454 840 q 455 840 454 840 q 457 841 456 841 q 474 829 469 841 q 479 808 479 818 q 463 778 479 791 q 433 758 448 765 q 399 743 410 747 q 381 734 389 738 q 353 724 372 731 q 310 709 335 718 q 256 693 285 701 q 199 680 228 685 q 146 675 171 675 q 102 681 121 674 z "},"":{"ha":633,"x_min":11,"x_max":595,"o":"m 11 190 q 20 347 11 264 q 39 503 30 429 q 66 547 42 529 q 127 578 91 566 q 208 597 164 590 q 295 606 252 604 q 376 610 338 609 q 437 610 414 610 q 460 610 445 610 q 492 611 475 610 q 529 610 510 612 q 562 604 548 609 q 586 590 576 600 q 595 566 595 581 q 591 549 595 556 q 568 541 586 541 q 340 538 454 555 q 119 488 227 521 q 119 475 119 486 l 119 437 q 119 423 119 426 q 117 413 119 420 q 112 397 114 406 q 107 380 110 388 q 104 370 104 372 q 110 363 104 368 q 119 357 115 358 l 133 357 q 164 359 140 357 q 221 364 189 361 q 290 370 254 368 q 359 376 327 373 q 417 380 392 378 q 449 382 442 381 l 454 382 q 466 383 460 382 q 476 384 472 384 l 486 384 q 520 379 510 384 q 530 349 530 374 q 511 318 530 327 q 462 306 492 309 q 392 303 431 302 q 312 304 353 304 q 231 302 271 305 q 161 290 191 300 q 112 260 130 281 q 94 205 94 240 q 111 129 94 157 q 159 85 129 100 q 227 64 189 69 q 304 59 264 58 q 385 62 345 60 q 461 65 426 65 q 520 73 494 65 q 575 80 547 80 q 588 75 583 80 q 594 64 593 71 q 595 50 595 57 l 595 38 q 593 11 595 22 q 568 0 590 0 l 184 0 q 106 14 140 0 q 53 54 73 28 q 22 115 33 80 q 11 190 11 149 m 102 727 q 110 784 102 750 q 131 854 118 818 q 163 928 144 891 q 204 994 182 964 q 252 1040 227 1023 q 305 1058 278 1058 q 323 1059 313 1058 q 342 1057 332 1059 q 358 1049 351 1054 q 369 1031 365 1044 q 389 951 376 991 q 420 873 401 911 q 458 798 438 834 q 500 727 479 761 q 477 696 487 707 q 449 685 468 685 q 415 705 431 685 q 385 755 399 726 q 359 819 372 784 q 335 884 346 853 q 314 934 324 914 q 296 954 304 954 q 257 933 271 954 q 234 882 243 913 q 218 814 225 850 q 201 746 210 777 q 174 694 191 715 q 130 674 157 674 q 119 681 123 674 q 110 696 114 688 q 104 714 106 705 q 102 727 102 723 z "},"":{"ha":633,"x_min":11,"x_max":595,"o":"m 11 190 q 20 347 11 264 q 39 503 30 429 q 66 547 42 529 q 127 578 91 566 q 208 597 164 590 q 295 606 252 604 q 376 610 338 609 q 437 610 414 610 q 460 610 445 610 q 492 611 475 610 q 529 610 510 612 q 562 604 548 609 q 586 590 576 600 q 595 566 595 581 q 591 549 595 556 q 568 541 586 541 q 340 538 454 555 q 119 488 227 521 q 119 475 119 486 l 119 437 q 119 423 119 426 q 117 413 119 420 q 112 397 114 406 q 107 380 110 388 q 104 370 104 372 q 110 363 104 368 q 119 357 115 358 l 133 357 q 164 359 140 357 q 221 364 189 361 q 290 370 254 368 q 359 376 327 373 q 417 380 392 378 q 449 382 442 381 l 454 382 q 466 383 460 382 q 476 384 472 384 l 486 384 q 520 379 510 384 q 530 349 530 374 q 511 318 530 327 q 462 306 492 309 q 392 303 431 302 q 312 304 353 304 q 231 302 271 305 q 161 290 191 300 q 112 260 130 281 q 94 205 94 240 q 111 129 94 157 q 159 85 129 100 q 227 64 189 69 q 304 59 264 58 q 385 62 345 60 q 461 65 426 65 q 520 73 494 65 q 575 80 547 80 q 588 75 583 80 q 594 64 593 71 q 595 50 595 57 l 595 38 q 593 11 595 22 q 568 0 590 0 l 184 0 q 106 14 140 0 q 53 54 73 28 q 22 115 33 80 q 11 190 11 149 m 69 806 q 83 833 69 822 q 117 852 98 845 q 157 861 137 859 q 187 863 176 863 q 218 852 203 863 q 243 825 232 841 q 262 793 255 810 q 269 764 269 776 q 268 743 269 753 q 265 724 267 732 q 256 707 263 715 q 237 696 250 699 q 229 695 235 696 q 218 694 224 694 q 206 694 212 694 q 198 693 201 693 q 151 700 175 693 q 110 720 127 707 q 81 755 92 734 q 69 806 69 776 m 351 802 q 366 831 351 819 q 400 848 381 842 q 439 857 419 854 q 469 860 458 860 q 498 848 484 860 q 523 822 511 837 q 542 790 534 807 q 549 760 549 773 q 549 739 549 749 q 545 720 548 728 q 536 703 543 711 q 518 692 529 696 q 510 692 515 692 q 498 692 505 692 q 486 691 492 692 q 479 690 480 690 q 433 696 456 690 q 391 716 410 703 q 362 751 373 730 q 351 802 351 772 z "},"":{"ha":172,"x_min":-186,"x_max":372,"o":"m 11 457 q 11 495 11 473 q 15 536 11 517 q 29 569 19 556 q 62 582 39 582 q 81 563 73 582 q 92 513 88 544 q 99 446 96 483 q 102 376 102 410 q 104 315 103 342 q 104 278 104 288 q 115 207 107 243 q 130 134 122 171 q 143 62 137 98 q 149 -5 149 27 q 73 15 102 -5 q 31 69 45 35 q 12 147 16 103 q 9 237 8 191 q 13 328 11 282 q 12 410 15 373 l 12 416 q 12 430 12 423 q 11 444 11 437 l 11 457 m 372 682 q 307 673 345 673 q 229 682 270 674 q 144 701 187 689 q 65 724 102 712 q 1 747 28 736 q -41 762 -27 758 q -53 767 -47 765 q -66 773 -58 769 q -88 783 -75 777 l -119 799 q -140 811 -129 804 q -163 827 -152 818 q -180 847 -174 836 q -186 872 -186 859 q -184 887 -186 879 q -178 903 -182 895 q -168 915 -174 910 q -152 920 -161 920 q -151 919 -151 920 q -148 918 -151 918 q -144 917 -146 917 q -138 913 -142 917 q -131 905 -134 910 q -123 897 -127 901 q -119 890 -119 892 q -32 846 -69 863 q 37 820 5 830 q 97 804 68 810 q 157 791 126 798 q 227 776 189 785 q 316 749 264 766 q 356 724 340 742 q 372 682 372 707 z "},"":{"ha":172,"x_min":-151,"x_max":247,"o":"m 11 457 q 11 495 11 473 q 15 536 11 517 q 29 569 19 556 q 62 582 39 582 q 81 563 73 582 q 92 513 88 544 q 99 446 96 483 q 102 376 102 410 q 104 315 103 342 q 104 278 104 288 q 115 207 107 243 q 130 134 122 171 q 143 62 137 98 q 149 -5 149 27 q 73 15 102 -5 q 31 69 45 35 q 12 147 16 103 q 9 237 8 191 q 13 328 11 282 q 12 410 15 373 l 12 416 q 12 430 12 423 q 11 444 11 437 l 11 457 m -150 641 q -138 678 -150 664 q -110 700 -126 692 q -20 730 -56 721 q 46 747 16 739 q 112 770 77 755 q 198 821 147 786 q 208 833 201 824 q 218 845 215 842 l 221 845 q 222 846 221 845 q 224 847 222 847 q 242 832 237 847 q 247 805 247 817 q 230 766 247 782 q 198 741 214 749 q 163 720 174 727 q 144 709 152 714 q 115 697 134 706 q 69 678 95 688 q 13 657 43 667 q -47 640 -17 646 q -104 633 -77 634 q -150 641 -130 632 z "},"":{"ha":172,"x_min":-117,"x_max":282,"o":"m 11 457 q 11 495 11 473 q 15 536 11 517 q 29 569 19 556 q 62 582 39 582 q 81 563 73 582 q 92 513 88 544 q 99 446 96 483 q 102 376 102 410 q 104 315 103 342 q 104 278 104 288 q 115 207 107 243 q 130 134 122 171 q 143 62 137 98 q 149 -5 149 27 q 73 15 102 -5 q 31 69 45 35 q 12 147 16 103 q 9 237 8 191 q 13 328 11 282 q 12 410 15 373 l 12 416 q 12 430 12 423 q 11 444 11 437 l 11 457 m -117 617 q -109 674 -117 640 q -87 745 -100 708 q -56 818 -75 781 q -14 884 -37 854 q 34 930 8 913 q 87 948 60 948 q 104 949 95 948 q 123 947 114 949 q 140 939 133 944 q 151 921 146 935 q 170 842 157 882 q 201 763 183 802 q 240 688 220 724 q 282 617 260 651 q 259 586 269 597 q 231 575 250 575 q 197 595 213 575 q 167 645 180 616 q 140 709 153 674 q 117 774 127 743 q 96 824 106 804 q 77 844 85 844 q 39 823 53 844 q 16 772 24 803 q -1 704 7 741 q -18 636 -8 667 q -44 585 -27 605 q -88 564 -61 564 q -100 571 -95 564 q -109 587 -104 578 q -115 604 -113 595 q -117 617 -117 613 z "},"":{"ha":172,"x_min":-61,"x_max":283,"o":"m 11 457 q 11 495 11 473 q 15 536 11 517 q 29 569 19 556 q 62 582 39 582 q 81 563 73 582 q 92 513 88 544 q 99 446 96 483 q 102 376 102 410 q 104 315 103 342 q 104 278 104 288 q 115 207 107 243 q 130 134 122 171 q 143 62 137 98 q 149 -5 149 27 q 73 15 102 -5 q 31 69 45 35 q 12 147 16 103 q 9 237 8 191 q 13 328 11 282 q 12 410 15 373 l 12 416 q 12 430 12 423 q 11 444 11 437 l 11 457 m -61 767 q -50 797 -61 784 q -26 816 -40 809 q 2 826 -12 824 q 24 828 16 828 q 45 816 35 828 q 64 788 56 805 q 77 753 72 771 q 82 722 82 735 q 81 699 82 710 q 79 679 81 688 q 73 661 78 669 q 60 649 68 652 q 54 648 58 649 q 45 648 50 648 q 37 647 41 648 q 31 646 33 646 q -2 653 15 646 q -32 675 -19 661 q -52 712 -44 690 q -61 767 -61 735 m 141 763 q 152 794 141 781 q 176 813 162 806 q 203 822 189 819 q 225 825 218 825 q 246 813 236 825 q 264 784 255 800 q 277 750 272 768 q 282 717 282 732 q 282 695 282 706 q 280 675 281 684 q 273 657 278 665 q 260 645 268 649 q 254 645 258 645 q 246 645 250 645 q 237 644 242 645 q 232 643 233 643 q 199 650 216 643 q 170 671 183 656 q 149 708 156 685 q 141 763 141 731 z "},"":{"ha":595,"x_min":-23,"x_max":568,"o":"m 27 201 l 27 235 l -19 227 l -23 316 l -3 319 q 27 323 11 320 q 31 380 28 350 q 43 469 35 426 q 66 555 50 513 q 42 552 50 549 q 30 562 34 555 q 25 577 26 568 q 24 593 24 586 q 30 618 24 610 q 45 630 35 627 q 67 634 54 633 q 94 635 80 635 q 196 627 142 635 q 302 602 250 618 q 403 558 355 585 q 488 494 450 532 q 547 411 525 457 q 568 305 568 365 q 540 176 568 233 q 463 81 511 119 q 351 20 415 42 q 220 -1 288 -1 q 140 14 176 -1 q 79 55 104 28 q 40 119 53 81 q 27 201 27 157 m 119 119 q 146 95 129 103 q 183 83 164 87 q 222 78 202 79 q 258 77 241 77 q 347 94 304 77 q 422 141 389 111 q 473 212 454 171 q 491 301 491 254 q 475 372 491 339 q 432 434 458 406 q 371 485 406 463 q 298 523 336 507 q 222 547 260 538 q 149 555 184 555 l 145 555 q 116 500 125 534 q 105 427 107 465 q 104 350 103 388 q 104 334 104 342 l 114 334 q 180 343 149 339 q 232 350 212 347 q 254 353 252 353 q 283 353 270 353 q 304 351 296 354 q 317 340 312 347 q 321 316 321 332 q 319 294 321 302 q 294 285 316 285 l 106 250 q 109 235 107 243 q 111 191 110 214 q 115 146 113 167 q 119 119 118 126 z "},"":{"ha":845,"x_min":12,"x_max":821,"o":"m 12 264 q 26 300 19 277 q 37 351 33 323 q 49 409 42 380 q 63 463 56 438 q 81 502 71 487 q 104 517 91 517 q 113 516 107 517 q 119 515 118 515 q 397 315 250 404 q 700 157 544 227 q 707 157 703 157 q 713 157 711 157 q 728 159 722 157 q 741 172 735 160 q 709 262 723 212 q 684 363 694 312 q 666 463 673 415 q 659 548 659 511 q 661 563 659 553 q 666 583 663 572 q 674 600 669 593 q 688 608 680 608 q 704 606 693 608 q 726 598 715 604 q 746 585 738 593 q 754 568 754 578 q 747 539 754 553 q 741 510 741 525 l 741 503 q 743 487 741 499 q 747 462 745 475 q 750 437 749 449 q 753 423 751 426 l 753 410 q 774 338 762 377 q 797 257 787 298 q 814 173 807 216 q 821 91 821 130 q 819 66 821 77 q 813 45 818 54 q 799 31 808 35 q 774 26 789 26 q 742 31 758 26 q 711 47 726 37 q 684 68 696 57 q 661 91 671 80 l 145 370 l 140 370 l 140 372 q 125 359 132 372 q 115 331 119 346 q 107 304 110 316 q 104 290 104 292 q 106 271 104 285 q 109 238 107 258 q 111 197 110 218 q 114 157 113 176 q 117 124 115 138 q 119 104 119 110 l 119 12 q 111 3 117 5 q 97 -1 104 0 q 82 -2 90 -3 q 73 -1 75 -1 q 56 -1 68 -1 q 39 0 43 0 l 12 264 m 255 715 q 217 706 232 715 q 191 684 202 697 q 170 654 179 670 q 153 625 161 639 q 132 603 144 612 q 103 594 121 594 q 81 603 85 594 q 76 628 76 612 q 95 692 76 662 q 142 745 114 722 q 203 782 170 768 q 267 796 237 796 q 311 787 292 796 q 345 764 330 777 q 376 734 361 750 q 408 705 391 719 q 446 683 425 692 q 492 674 467 674 q 535 685 517 674 q 569 709 553 696 q 600 732 585 722 q 637 743 616 743 q 669 733 661 743 q 684 701 677 723 q 657 671 675 690 q 616 631 639 651 q 570 597 594 612 q 528 583 547 583 q 463 593 492 583 q 407 618 433 604 q 359 649 381 632 q 319 680 338 666 q 284 705 300 694 q 255 715 269 715 z "},"":{"ha":673,"x_min":12,"x_max":650,"o":"m 12 278 q 28 352 12 316 q 70 419 43 388 q 131 475 96 450 q 203 518 165 500 q 279 546 241 536 q 351 556 317 556 q 479 531 425 556 q 572 463 534 506 q 630 359 610 419 q 650 229 650 300 q 583 56 650 113 q 392 -1 515 -1 q 315 7 357 -1 q 231 33 273 16 q 149 73 189 49 q 80 127 110 96 q 31 195 50 157 q 12 278 12 233 m 104 275 q 135 193 104 229 q 210 130 165 156 q 302 91 254 104 q 387 77 350 77 q 467 85 430 77 q 530 111 503 92 q 574 160 557 129 q 595 237 590 191 q 581 336 600 292 q 529 411 563 380 q 450 458 495 442 q 357 475 406 475 q 274 460 319 475 q 192 418 229 445 q 130 355 155 392 q 104 275 104 319 m 544 578 q 493 571 522 570 q 431 577 464 571 q 365 593 398 583 q 302 612 331 602 q 251 630 273 622 q 219 643 229 639 q 209 646 213 645 q 198 651 205 648 q 181 659 192 655 l 157 672 q 140 682 149 677 q 122 695 131 688 q 109 711 114 702 q 104 732 104 721 q 106 744 104 737 q 111 756 107 750 q 119 766 114 762 q 131 770 123 770 q 132 770 132 770 q 134 769 132 769 q 137 768 135 768 q 142 765 138 768 q 148 759 145 762 q 153 751 150 755 q 157 746 157 748 q 226 711 196 724 q 280 689 255 698 q 327 676 304 681 q 375 666 350 671 q 429 654 399 661 q 500 632 459 646 q 531 612 519 626 q 544 578 544 598 z "},"":{"ha":673,"x_min":12,"x_max":650,"o":"m 12 278 q 28 352 12 316 q 70 419 43 388 q 131 475 96 450 q 203 518 165 500 q 279 546 241 536 q 351 556 317 556 q 479 531 425 556 q 572 463 534 506 q 630 359 610 419 q 650 229 650 300 q 583 56 650 113 q 392 -1 515 -1 q 315 7 357 -1 q 231 33 273 16 q 149 73 189 49 q 80 127 110 96 q 31 195 50 157 q 12 278 12 233 m 104 275 q 135 193 104 229 q 210 130 165 156 q 302 91 254 104 q 387 77 350 77 q 467 85 430 77 q 530 111 503 92 q 574 160 557 129 q 595 237 590 191 q 581 336 600 292 q 529 411 563 380 q 450 458 495 442 q 357 475 406 475 q 274 460 319 475 q 192 418 229 445 q 130 355 155 392 q 104 275 104 319 m 64 516 q 78 555 64 540 q 108 579 91 569 q 207 610 168 601 q 280 627 246 619 q 352 652 313 636 q 447 705 390 669 q 458 718 450 709 q 468 731 465 727 l 472 731 q 472 732 472 731 q 475 733 473 733 q 494 717 489 733 q 500 689 500 702 q 482 647 500 665 q 447 621 464 630 q 408 600 420 606 q 387 588 396 593 q 355 575 376 584 q 305 555 334 566 q 243 533 276 544 q 177 515 210 522 q 115 508 144 509 q 64 516 86 507 z "},"":{"ha":673,"x_min":12,"x_max":650,"o":"m 12 278 q 28 352 12 316 q 70 419 43 388 q 131 475 96 450 q 203 518 165 500 q 279 546 241 536 q 351 556 317 556 q 479 531 425 556 q 572 463 534 506 q 630 359 610 419 q 650 229 650 300 q 583 56 650 113 q 392 -1 515 -1 q 315 7 357 -1 q 231 33 273 16 q 149 73 189 49 q 80 127 110 96 q 31 195 50 157 q 12 278 12 233 m 104 275 q 135 193 104 229 q 210 130 165 156 q 302 91 254 104 q 387 77 350 77 q 467 85 430 77 q 530 111 503 92 q 574 160 557 129 q 595 237 590 191 q 581 336 600 292 q 529 411 563 380 q 450 458 495 442 q 357 475 406 475 q 274 460 319 475 q 192 418 229 445 q 130 355 155 392 q 104 275 104 319 m 137 667 q 145 724 137 690 q 166 795 153 758 q 198 868 179 831 q 239 934 217 905 q 288 981 262 963 q 340 998 313 998 q 358 999 349 998 q 377 997 368 1000 q 393 989 387 994 q 404 971 400 985 q 424 892 411 932 q 455 813 437 852 q 494 738 473 774 q 536 667 514 701 q 513 636 522 647 q 484 625 503 625 q 450 646 467 625 q 420 695 434 666 q 394 759 407 724 q 370 824 381 793 q 349 874 359 854 q 331 894 339 894 q 292 873 307 894 q 269 822 278 853 q 253 754 260 791 q 236 686 245 718 q 210 635 227 655 q 165 614 193 614 q 154 621 159 614 q 145 637 149 628 q 139 654 141 646 q 137 667 137 663 z "},"":{"ha":673,"x_min":12,"x_max":650,"o":"m 12 278 q 28 352 12 316 q 70 419 43 388 q 131 475 96 450 q 203 518 165 500 q 279 546 241 536 q 351 556 317 556 q 479 531 425 556 q 572 463 534 506 q 630 359 610 419 q 650 229 650 300 q 583 56 650 113 q 392 -1 515 -1 q 315 7 357 -1 q 231 33 273 16 q 149 73 189 49 q 80 127 110 96 q 31 195 50 157 q 12 278 12 233 m 104 275 q 135 193 104 229 q 210 130 165 156 q 302 91 254 104 q 387 77 350 77 q 467 85 430 77 q 530 111 503 92 q 574 160 557 129 q 595 237 590 191 q 581 336 600 292 q 529 411 563 380 q 450 458 495 442 q 357 475 406 475 q 274 460 319 475 q 192 418 229 445 q 130 355 155 392 q 104 275 104 319 m 210 738 q 172 729 187 738 q 146 707 157 720 q 125 677 134 693 q 108 648 117 662 q 87 626 99 635 q 58 617 76 617 q 36 626 41 617 q 31 651 31 635 q 50 715 31 685 q 97 768 69 745 q 159 805 125 791 q 222 819 193 819 q 266 810 247 819 q 300 787 285 800 q 331 758 316 773 q 363 728 346 742 q 401 706 380 715 q 448 697 422 697 q 490 708 472 697 q 524 732 509 719 q 555 755 540 745 q 593 766 571 766 q 624 756 616 766 q 639 724 632 746 q 612 694 631 713 q 572 654 594 674 q 526 621 549 635 q 483 606 502 606 q 418 616 448 606 q 362 641 388 627 q 315 672 336 655 q 274 703 293 689 q 239 728 255 718 q 210 738 224 738 z "},"":{"ha":673,"x_min":12,"x_max":650,"o":"m 12 278 q 28 352 12 316 q 70 419 43 388 q 131 475 96 450 q 203 518 165 500 q 279 546 241 536 q 351 556 317 556 q 479 531 425 556 q 572 463 534 506 q 630 359 610 419 q 650 229 650 300 q 583 56 650 113 q 392 -1 515 -1 q 315 7 357 -1 q 231 33 273 16 q 149 73 189 49 q 80 127 110 96 q 31 195 50 157 q 12 278 12 233 m 104 275 q 135 193 104 229 q 210 130 165 156 q 302 91 254 104 q 387 77 350 77 q 467 85 430 77 q 530 111 503 92 q 574 160 557 129 q 595 237 590 191 q 581 336 600 292 q 529 411 563 380 q 450 458 495 442 q 357 475 406 475 q 274 460 319 475 q 192 418 229 445 q 130 355 155 392 q 104 275 104 319 m 75 722 q 89 749 75 738 q 123 768 103 761 q 162 777 142 774 q 193 779 182 779 q 223 768 209 779 q 249 741 237 757 q 267 709 260 726 q 274 680 274 692 q 273 659 274 669 q 271 640 273 648 q 262 623 269 631 q 243 612 255 614 q 235 611 240 612 q 223 610 229 610 q 212 610 217 610 q 203 609 206 609 q 157 616 180 609 q 115 636 133 623 q 86 671 98 650 q 75 722 75 692 m 357 718 q 372 747 357 735 q 406 764 387 758 q 444 773 425 770 q 475 776 464 776 q 503 764 490 776 q 528 738 517 753 q 547 706 540 723 q 555 675 555 689 q 554 654 555 665 q 551 635 553 644 q 541 619 548 627 q 524 608 534 612 q 515 608 521 608 q 504 608 510 608 q 492 607 498 608 q 484 606 486 606 q 438 612 461 606 q 397 632 415 618 q 368 667 378 646 q 357 718 357 688 z "},"":{"ha":511,"x_min":119,"x_max":414,"o":"m 202 328 q 172 366 191 343 q 142 410 153 388 q 133 450 130 433 q 167 475 136 468 q 171 475 168 475 q 176 475 174 475 q 183 460 178 471 q 193 437 189 449 q 203 416 198 426 q 212 403 209 406 q 220 389 214 396 q 230 374 225 381 q 238 361 235 366 q 241 357 241 357 l 247 357 q 279 391 260 372 q 317 427 297 410 q 355 458 336 444 q 389 483 374 473 l 406 483 q 411 438 422 460 q 376 395 400 416 q 321 352 351 373 q 271 309 292 331 q 292 287 281 300 q 317 262 304 274 q 343 243 330 251 q 372 236 357 236 q 388 241 381 236 q 403 247 395 247 q 414 241 410 247 q 412 218 418 236 q 410 212 412 216 q 406 203 408 208 q 399 195 403 198 q 396 191 396 191 q 363 162 377 165 q 335 172 350 159 q 299 210 320 184 q 243 264 278 235 q 229 260 236 264 q 217 249 222 256 q 205 233 212 241 q 194 218 199 225 q 180 203 189 212 q 165 185 172 194 q 151 170 157 176 l 146 164 l 119 190 q 128 235 119 217 q 151 269 137 254 q 178 297 164 283 q 202 328 191 311 z "},"":{"ha":673,"x_min":12,"x_max":650,"o":"m 157 -45 q 167 15 157 -12 q 180 54 172 35 q 149 73 164 64 q 80 127 110 96 q 31 195 50 157 q 12 278 12 233 q 28 352 12 316 q 70 419 43 388 q 131 475 96 450 q 203 518 165 500 q 279 546 241 536 q 351 556 317 556 q 388 555 370 556 q 406 593 397 574 q 440 663 426 632 q 463 709 454 694 q 469 718 465 715 q 479 722 473 720 q 492 724 486 724 q 503 723 498 723 q 535 715 528 723 q 543 682 543 707 q 542 669 543 680 q 541 655 541 658 q 472 534 505 600 q 480 530 476 533 q 572 463 534 506 q 630 359 610 419 q 650 229 650 300 q 583 56 650 113 q 392 -1 515 -1 q 315 8 357 -1 q 271 19 293 11 q 250 -45 260 -15 q 232 -78 241 -71 q 197 -85 222 -85 q 165 -77 174 -85 q 157 -45 157 -68 m 302 91 q 387 77 350 77 q 467 85 430 77 q 530 111 503 92 q 574 160 557 129 q 595 237 590 191 q 581 336 600 292 q 529 411 563 380 q 450 457 495 442 l 437 464 q 372 307 403 387 q 304 122 335 213 q 296 92 300 107 l 302 91 m 104 275 q 135 193 104 229 q 209 129 165 156 q 216 126 212 127 q 239 180 228 152 q 245 203 240 184 q 257 245 250 222 q 270 287 264 267 q 278 312 275 307 q 298 357 283 327 q 330 427 312 388 q 351 475 340 450 q 274 460 316 475 q 192 418 229 445 q 130 355 155 392 q 104 275 104 319 z "},"":{"ha":633,"x_min":9,"x_max":610,"o":"m 11 426 l 11 456 q 13 496 11 475 q 19 541 15 518 q 31 581 23 563 q 50 611 38 600 q 80 623 62 623 q 96 616 91 623 q 104 600 102 610 q 107 581 107 590 l 107 563 q 106 537 107 548 q 104 515 106 526 q 100 491 103 503 q 94 463 98 479 q 102 373 98 419 q 115 284 107 327 q 137 204 123 241 q 174 139 151 167 q 235 94 198 111 q 324 77 271 77 q 381 81 350 77 q 442 94 412 84 q 496 122 472 103 q 528 172 519 141 q 528 193 528 178 q 529 224 529 208 q 530 256 529 241 q 530 278 530 271 q 524 342 530 311 q 509 405 517 374 q 494 465 500 435 q 488 528 488 495 q 492 557 488 545 q 515 568 495 568 q 556 549 540 568 q 583 500 572 530 q 599 434 594 471 q 607 362 604 397 q 610 298 610 327 l 610 258 q 587 138 610 187 q 522 58 563 88 q 422 14 480 27 q 297 0 365 0 q 199 18 241 0 q 125 68 157 37 q 72 142 94 100 q 37 233 50 184 q 17 330 23 281 q 11 426 11 380 m 567 646 q 503 637 540 636 q 424 645 465 637 q 340 664 382 652 q 260 688 297 675 q 196 711 224 700 q 155 726 168 722 q 142 730 148 728 q 129 736 137 732 q 107 746 121 741 l 76 762 q 55 774 66 768 q 33 790 43 781 q 16 810 22 799 q 9 836 9 822 q 12 850 9 842 q 18 866 14 859 q 28 878 22 873 q 43 883 34 883 q 45 882 45 883 q 47 882 45 882 q 52 880 49 880 q 57 877 53 880 q 64 869 61 873 q 72 860 68 864 q 76 853 76 856 q 163 810 126 826 q 232 783 201 793 q 292 767 263 773 q 353 755 321 761 q 422 739 384 749 q 511 712 460 730 q 551 688 536 705 q 567 646 567 670 z "},"":{"ha":633,"x_min":11,"x_max":610,"o":"m 11 426 l 11 456 q 13 496 11 475 q 19 541 15 518 q 31 581 23 563 q 50 611 38 600 q 80 623 62 623 q 96 616 91 623 q 104 600 102 610 q 107 581 107 590 l 107 563 q 106 537 107 548 q 104 515 106 526 q 100 491 103 503 q 94 463 98 479 q 102 373 98 419 q 115 284 107 327 q 137 204 123 241 q 174 139 151 167 q 235 94 198 111 q 324 77 271 77 q 381 81 350 77 q 442 94 412 84 q 496 122 472 103 q 528 172 519 141 q 528 193 528 178 q 529 224 529 208 q 530 256 529 241 q 530 278 530 271 q 524 342 530 311 q 509 405 517 374 q 494 465 500 435 q 488 528 488 495 q 492 557 488 545 q 515 568 495 568 q 556 549 540 568 q 583 500 572 530 q 599 434 594 471 q 607 362 604 397 q 610 298 610 327 l 610 258 q 587 138 610 187 q 522 58 563 88 q 422 14 480 27 q 297 0 365 0 q 199 18 241 0 q 125 68 157 37 q 72 142 94 100 q 37 233 50 184 q 17 330 23 281 q 11 426 11 380 m 48 617 q 63 659 48 643 q 95 685 77 675 q 201 719 159 709 q 279 738 243 729 q 357 766 316 747 q 459 824 398 784 q 470 838 462 828 q 482 852 479 848 l 485 852 q 486 853 485 852 q 489 854 487 854 q 510 837 504 854 q 516 806 516 820 q 496 761 516 780 q 459 731 477 741 q 417 708 430 715 q 395 695 405 701 q 360 681 383 691 q 306 659 337 671 q 240 635 275 647 q 169 616 205 623 q 103 608 134 609 q 48 617 72 607 z "},"":{"ha":633,"x_min":11,"x_max":610,"o":"m 11 426 l 11 456 q 13 496 11 475 q 19 541 15 518 q 31 581 23 563 q 50 611 38 600 q 80 623 62 623 q 96 616 91 623 q 104 600 102 610 q 107 581 107 590 l 107 563 q 106 537 107 548 q 104 515 106 526 q 100 491 103 503 q 94 463 98 479 q 102 373 98 419 q 115 284 107 327 q 137 204 123 241 q 174 139 151 167 q 235 94 198 111 q 324 77 271 77 q 381 81 350 77 q 442 94 412 84 q 496 122 472 103 q 528 172 519 141 q 528 193 528 178 q 529 224 529 208 q 530 256 529 241 q 530 278 530 271 q 524 342 530 311 q 509 405 517 374 q 494 465 500 435 q 488 528 488 495 q 492 557 488 545 q 515 568 495 568 q 556 549 540 568 q 583 500 572 530 q 599 434 594 471 q 607 362 604 397 q 610 298 610 327 l 610 258 q 587 138 610 187 q 522 58 563 88 q 422 14 480 27 q 297 0 365 0 q 199 18 241 0 q 125 68 157 37 q 72 142 94 100 q 37 233 50 184 q 17 330 23 281 q 11 426 11 380 m 115 708 q 123 765 115 731 q 144 836 132 799 q 176 909 157 872 q 218 975 195 945 q 266 1021 240 1004 q 319 1039 292 1039 q 336 1040 327 1039 q 355 1038 346 1040 q 372 1030 365 1035 q 382 1012 378 1025 q 402 932 389 972 q 433 854 415 892 q 472 779 452 815 q 514 708 492 742 q 491 677 500 688 q 463 666 481 666 q 429 686 445 666 q 399 736 412 707 q 372 800 385 765 q 349 865 359 834 q 328 915 338 895 q 309 935 317 935 q 271 914 285 935 q 248 863 256 894 q 231 795 239 831 q 214 727 224 758 q 188 675 205 696 q 144 655 171 655 q 132 662 137 655 q 123 677 127 669 q 117 695 119 686 q 115 708 115 704 z "},"":{"ha":633,"x_min":11,"x_max":610,"o":"m 11 426 l 11 456 q 13 496 11 475 q 19 541 15 518 q 31 581 23 563 q 50 611 38 600 q 80 623 62 623 q 96 616 91 623 q 104 600 102 610 q 107 581 107 590 l 107 563 q 106 537 107 548 q 104 515 106 526 q 100 491 103 503 q 94 463 98 479 q 102 373 98 419 q 115 284 107 327 q 137 204 123 241 q 174 139 151 167 q 235 94 198 111 q 324 77 271 77 q 381 81 350 77 q 442 94 412 84 q 496 122 472 103 q 528 172 519 141 q 528 193 528 178 q 529 224 529 208 q 530 256 529 241 q 530 278 530 271 q 524 342 530 311 q 509 405 517 374 q 494 465 500 435 q 488 528 488 495 q 492 557 488 545 q 515 568 495 568 q 556 549 540 568 q 583 500 572 530 q 599 434 594 471 q 607 362 604 397 q 610 298 610 327 l 610 258 q 587 138 610 187 q 522 58 563 88 q 422 14 480 27 q 297 0 365 0 q 199 18 241 0 q 125 68 157 37 q 72 142 94 100 q 37 233 50 184 q 17 330 23 281 q 11 426 11 380 m 65 800 q 79 828 65 817 q 113 846 94 840 q 153 855 133 853 q 183 857 172 857 q 214 846 199 857 q 239 820 228 836 q 258 787 251 804 q 264 758 264 770 q 264 737 264 747 q 261 718 263 727 q 252 701 259 709 q 233 690 245 693 q 225 690 231 690 q 214 689 220 689 q 202 688 208 689 q 194 688 197 688 q 147 694 171 688 q 106 715 123 701 q 77 749 88 728 q 65 800 65 770 m 347 796 q 362 825 347 814 q 396 843 377 837 q 435 852 415 849 q 465 854 454 854 q 494 843 480 854 q 519 817 507 831 q 538 785 530 802 q 545 754 545 768 q 545 733 545 743 q 541 714 544 723 q 532 698 538 705 q 514 686 525 690 q 506 686 511 686 q 494 686 500 686 q 482 686 488 686 q 475 685 476 685 q 429 691 452 685 q 387 711 406 697 q 358 745 369 724 q 347 796 347 766 z "},"":{"ha":568,"x_min":0,"x_max":555,"o":"m 132 46 q 132 62 132 50 q 133 80 133 75 q 147 108 137 88 q 171 153 157 127 q 199 205 184 178 q 227 256 213 232 q 250 300 240 281 q 264 330 260 320 q 270 343 266 334 q 278 363 274 353 q 286 382 282 373 q 290 396 289 392 q 245 440 273 419 q 184 484 217 461 q 119 530 152 506 q 60 581 87 555 q 17 637 34 608 q 0 700 0 666 q 6 734 0 726 q 33 743 12 743 q 42 743 34 743 q 53 741 50 742 q 83 693 65 720 q 123 636 102 666 q 170 578 145 606 q 221 526 195 549 q 275 489 247 503 q 330 475 302 475 q 337 475 332 475 q 343 475 342 475 q 360 507 349 484 q 384 555 372 530 q 408 603 396 581 q 423 633 419 625 q 431 660 426 642 q 443 699 437 678 q 457 741 449 719 q 475 780 465 762 q 496 809 484 798 q 522 821 507 821 l 524 819 l 526 819 q 528 818 526 818 q 534 814 530 818 q 543 807 538 811 q 551 799 548 803 q 555 793 555 795 q 492 598 529 694 q 410 410 456 502 l 410 382 q 378 338 400 372 q 331 262 357 305 q 277 174 305 220 q 225 89 250 127 q 183 24 201 50 q 160 -1 165 -1 q 134 12 137 -1 q 132 46 132 26 m 98 849 q 109 878 98 867 q 136 895 121 888 q 221 918 187 911 q 284 931 255 925 q 347 949 313 937 q 429 989 380 962 q 438 998 431 991 q 448 1008 445 1005 l 450 1008 q 451 1008 450 1008 q 453 1009 452 1009 q 470 998 465 1009 q 475 977 475 986 q 459 946 475 959 q 429 926 444 933 q 395 911 406 916 q 377 902 385 906 q 349 892 368 899 q 306 878 331 886 q 252 861 281 869 q 195 848 224 853 q 142 843 167 844 q 98 849 117 842 z "},"":{"ha":589,"x_min":7,"x_max":562,"o":"m 132 231 q 142 93 145 157 q 127 -11 140 28 q 100 -60 115 -50 q 71 -37 84 -69 q 54 78 58 -4 q 61 302 50 160 q 54 348 58 316 q 45 421 50 380 q 34 509 39 463 q 24 597 28 555 q 14 674 19 640 q 8 726 9 708 q 7 735 8 727 q 7 747 7 743 q 15 773 7 766 q 42 780 23 780 q 78 761 66 780 q 94 714 90 742 q 100 653 99 686 q 104 592 102 620 q 116 545 107 564 q 144 526 125 526 q 321 556 244 559 q 451 528 399 553 q 531 460 503 502 q 561 372 559 418 q 538 286 563 327 q 459 220 513 244 q 324 195 406 195 q 132 231 243 195 m 140 388 q 162 302 140 330 q 244 274 184 274 l 279 274 q 328 277 302 274 q 378 283 353 279 q 426 296 404 288 q 460 318 448 305 q 473 350 473 331 q 446 443 473 410 q 363 476 418 476 q 304 474 334 476 q 245 467 274 472 q 190 450 217 461 q 140 422 163 439 q 140 406 140 418 q 140 388 140 393 z "},"":{"ha":648,"x_min":8,"x_max":605,"o":"m 109 -144 l 45 -148 q 43 -122 43 -148 q 41 -58 42 -96 q 40 26 41 -19 q 38 111 39 72 q 36 176 37 149 q 35 205 35 203 q 25 309 28 254 q 20 420 22 365 q 20 530 19 476 q 23 628 22 583 q 9 640 11 633 q 8 655 8 646 q 35 720 8 700 q 98 746 61 741 q 176 750 136 751 q 244 749 217 749 q 302 709 279 732 q 337 660 324 686 q 353 607 350 633 q 355 555 357 581 q 345 510 353 530 q 328 479 338 490 q 384 463 354 472 q 444 439 414 453 q 505 409 475 426 q 557 370 534 392 q 592 322 579 349 q 605 266 605 296 q 577 127 605 182 q 507 43 549 73 q 414 7 465 12 q 317 16 363 1 q 237 63 271 30 q 195 144 203 96 l 183 205 q 213 206 199 213 q 239 185 227 199 q 266 151 252 171 q 295 115 279 132 q 330 85 311 98 q 373 73 349 73 q 423 90 396 73 q 473 132 450 106 q 511 187 495 157 q 526 243 526 217 q 509 313 526 285 q 461 360 491 342 q 393 389 431 378 q 313 404 354 399 q 231 410 273 410 q 155 410 189 410 q 149 451 142 437 q 172 473 156 465 q 211 488 189 481 q 254 507 233 495 q 287 538 274 518 q 298 595 300 559 q 288 627 297 612 q 267 653 279 642 q 241 672 255 665 q 218 680 228 680 q 147 677 174 680 q 108 666 121 674 q 92 644 95 658 q 90 608 88 631 q 94 553 91 586 q 98 479 98 521 l 99 410 l 109 -144 z "},"":{"ha":690,"x_min":11,"x_max":709,"o":"m 403 66 q 357 60 381 66 q 311 46 334 54 q 262 32 288 38 q 212 26 237 26 q 136 38 172 26 q 71 75 99 50 q 27 134 43 99 q 11 212 11 168 q 35 282 11 250 q 94 336 58 315 q 170 370 129 358 q 243 382 210 382 q 280 380 258 382 q 329 374 302 378 q 382 361 355 369 q 432 342 410 354 q 470 314 454 330 q 488 278 486 298 q 486 254 488 271 q 481 218 483 237 q 478 182 480 199 q 475 157 476 165 l 475 149 q 488 104 475 119 q 522 83 502 90 q 563 77 541 77 l 606 77 q 632 78 627 77 q 640 79 637 79 q 646 79 642 79 q 673 80 651 80 q 700 73 690 80 q 709 45 709 66 q 694 12 709 22 q 659 -1 680 3 q 618 -3 639 -4 q 587 -1 598 -1 q 528 9 556 -1 q 477 33 500 20 q 435 56 454 46 q 403 66 416 66 m 91 198 q 105 146 91 165 q 140 117 119 126 q 187 106 161 109 q 237 104 213 104 q 269 106 247 104 q 316 112 292 107 q 360 125 340 117 q 382 145 380 133 l 410 251 q 404 270 412 262 q 382 283 396 278 q 351 293 368 289 q 317 300 334 297 q 288 304 301 302 q 273 305 275 305 q 216 300 248 305 q 157 284 184 296 q 110 252 129 273 q 91 198 91 232 m 461 421 q 418 413 443 413 q 366 420 394 414 q 311 436 339 426 q 259 456 283 446 q 216 475 235 466 q 189 488 198 484 q 181 492 185 490 q 172 497 178 493 q 158 505 167 500 l 137 519 q 124 529 131 523 q 109 542 116 534 q 98 559 102 549 q 94 580 94 569 q 95 593 94 586 q 99 606 96 599 q 106 616 102 612 q 116 620 110 620 q 117 619 117 620 q 119 619 117 619 q 121 618 120 618 q 125 615 122 618 q 130 608 128 612 q 135 600 132 604 q 137 595 137 597 q 195 558 170 572 q 240 536 220 545 q 280 523 261 528 q 320 512 299 517 q 365 499 340 507 q 424 476 390 491 q 450 456 440 471 q 461 421 461 441 z "},"":{"ha":690,"x_min":11,"x_max":709,"o":"m 403 66 q 357 60 381 66 q 311 46 334 54 q 262 32 288 38 q 212 26 237 26 q 136 38 172 26 q 71 75 99 50 q 27 134 43 99 q 11 212 11 168 q 35 282 11 250 q 94 336 58 315 q 170 370 129 358 q 243 382 210 382 q 280 380 258 382 q 329 374 302 378 q 382 361 355 369 q 432 342 410 354 q 470 314 454 330 q 488 278 486 298 q 486 254 488 271 q 481 218 483 237 q 478 182 480 199 q 475 157 476 165 l 475 149 q 488 104 475 119 q 522 83 502 90 q 563 77 541 77 l 606 77 q 632 78 627 77 q 640 79 637 79 q 646 79 642 79 q 673 80 651 80 q 700 73 690 80 q 709 45 709 66 q 694 12 709 22 q 659 -1 680 3 q 618 -3 639 -4 q 587 -1 598 -1 q 528 9 556 -1 q 477 33 500 20 q 435 56 454 46 q 403 66 416 66 m 91 198 q 105 146 91 165 q 140 117 119 126 q 187 106 161 109 q 237 104 213 104 q 269 106 247 104 q 316 112 292 107 q 360 125 340 117 q 382 145 380 133 l 410 251 q 404 270 412 262 q 382 283 396 278 q 351 293 368 289 q 317 300 334 297 q 288 304 301 302 q 273 305 275 305 q 216 300 248 305 q 157 284 184 296 q 110 252 129 273 q 91 198 91 232 m 81 426 q 93 454 81 444 q 119 472 104 465 q 205 495 171 488 q 268 508 239 502 q 330 526 297 514 q 412 566 363 538 q 422 575 415 568 q 431 585 429 582 l 434 585 q 435 585 434 585 q 437 586 435 586 q 454 574 449 586 q 458 553 458 563 q 443 523 458 536 q 412 503 427 510 q 379 488 389 492 q 361 479 369 483 q 333 469 351 476 q 290 454 315 463 q 236 438 264 446 q 179 425 208 430 q 125 420 151 420 q 81 426 100 419 z "},"":{"ha":690,"x_min":11,"x_max":709,"o":"m 403 66 q 357 60 381 66 q 311 46 334 54 q 262 32 288 38 q 212 26 237 26 q 136 38 172 26 q 71 75 99 50 q 27 134 43 99 q 11 212 11 168 q 35 282 11 250 q 94 336 58 315 q 170 370 129 358 q 243 382 210 382 q 280 380 258 382 q 329 374 302 378 q 382 361 355 369 q 432 342 410 354 q 470 314 454 330 q 488 278 486 298 q 486 254 488 271 q 481 218 483 237 q 478 182 480 199 q 475 157 476 165 l 475 149 q 488 104 475 119 q 522 83 502 90 q 563 77 541 77 l 606 77 q 632 78 627 77 q 640 79 637 79 q 646 79 642 79 q 673 80 651 80 q 700 73 690 80 q 709 45 709 66 q 694 12 709 22 q 659 -1 680 3 q 618 -3 639 -4 q 587 -1 598 -1 q 528 9 556 -1 q 477 33 500 20 q 435 56 454 46 q 403 66 416 66 m 91 198 q 105 146 91 165 q 140 117 119 126 q 187 106 161 109 q 237 104 213 104 q 269 106 247 104 q 316 112 292 107 q 360 125 340 117 q 382 145 380 133 l 410 251 q 404 270 412 262 q 382 283 396 278 q 351 293 368 289 q 317 300 334 297 q 288 304 301 302 q 273 305 275 305 q 216 300 248 305 q 157 284 184 296 q 110 252 129 273 q 91 198 91 232 m 72 514 q 80 571 72 537 q 101 642 88 605 q 133 715 114 678 q 174 781 152 751 q 222 827 197 810 q 275 845 248 845 q 293 846 283 845 q 312 844 302 846 q 328 836 321 841 q 339 818 335 831 q 359 739 346 779 q 390 660 372 699 q 429 585 408 621 q 471 514 449 548 q 448 483 457 494 q 419 472 438 472 q 385 492 401 472 q 355 542 369 513 q 329 606 342 571 q 305 671 316 640 q 284 721 294 701 q 266 741 274 741 q 227 720 241 741 q 204 669 213 700 q 188 601 195 637 q 171 533 180 564 q 144 481 161 502 q 100 461 127 461 q 89 468 94 461 q 80 484 84 475 q 74 501 76 492 q 72 514 72 510 z "},"":{"ha":690,"x_min":11,"x_max":709,"o":"m 403 66 q 357 60 381 66 q 311 46 334 54 q 262 32 288 38 q 212 26 237 26 q 136 38 172 26 q 71 75 99 50 q 27 134 43 99 q 11 212 11 168 q 35 282 11 250 q 94 336 58 315 q 170 370 129 358 q 243 382 210 382 q 280 380 258 382 q 329 374 302 378 q 382 361 355 369 q 432 342 410 354 q 470 314 454 330 q 488 278 486 298 q 486 254 488 271 q 481 218 483 237 q 478 182 480 199 q 475 157 476 165 l 475 149 q 488 104 475 119 q 522 83 502 90 q 563 77 541 77 l 606 77 q 632 78 627 77 q 640 79 637 79 q 646 79 642 79 q 673 80 651 80 q 700 73 690 80 q 709 45 709 66 q 694 12 709 22 q 659 -1 680 3 q 618 -3 639 -4 q 587 -1 598 -1 q 528 9 556 -1 q 477 33 500 20 q 435 56 454 46 q 403 66 416 66 m 91 198 q 105 146 91 165 q 140 117 119 126 q 187 106 161 109 q 237 104 213 104 q 269 106 247 104 q 316 112 292 107 q 360 125 340 117 q 382 145 380 133 l 410 251 q 404 270 412 262 q 382 283 396 278 q 351 293 368 289 q 317 300 334 297 q 288 304 301 302 q 273 305 275 305 q 216 300 248 305 q 157 284 184 296 q 110 252 129 273 q 91 198 91 232 m 210 567 q 172 558 187 567 q 146 536 157 549 q 125 507 134 522 q 108 477 117 491 q 87 455 99 464 q 58 446 76 446 q 36 455 41 446 q 31 480 31 464 q 50 544 31 514 q 97 597 69 574 q 159 634 125 620 q 222 648 193 648 q 266 639 247 648 q 300 616 285 629 q 331 587 316 602 q 363 557 346 571 q 401 535 380 544 q 448 526 422 526 q 490 537 472 526 q 524 561 509 548 q 555 585 540 574 q 593 595 571 595 q 624 585 616 595 q 639 553 632 575 q 612 523 631 543 q 572 484 594 503 q 526 450 549 464 q 483 435 502 435 q 418 446 448 435 q 362 470 388 456 q 315 501 336 484 q 274 532 293 518 q 239 557 255 547 q 210 567 224 567 z "},"":{"ha":690,"x_min":11,"x_max":709,"o":"m 403 66 q 357 60 381 66 q 311 46 334 54 q 262 32 288 38 q 212 26 237 26 q 136 38 172 26 q 71 75 99 50 q 27 134 43 99 q 11 212 11 168 q 35 282 11 250 q 94 336 58 315 q 170 370 129 358 q 243 382 210 382 q 280 380 258 382 q 329 374 302 378 q 382 361 355 369 q 432 342 410 354 q 470 314 454 330 q 488 278 486 298 q 486 254 488 271 q 481 218 483 237 q 478 182 480 199 q 475 157 476 165 l 475 149 q 488 104 475 119 q 522 83 502 90 q 563 77 541 77 l 606 77 q 632 78 627 77 q 640 79 637 79 q 646 79 642 79 q 673 80 651 80 q 700 73 690 80 q 709 45 709 66 q 694 12 709 22 q 659 -1 680 3 q 618 -3 639 -4 q 587 -1 598 -1 q 528 9 556 -1 q 477 33 500 20 q 435 56 454 46 q 403 66 416 66 m 91 198 q 105 146 91 165 q 140 117 119 126 q 187 106 161 109 q 237 104 213 104 q 269 106 247 104 q 316 112 292 107 q 360 125 340 117 q 382 145 380 133 l 410 251 q 404 270 412 262 q 382 283 396 278 q 351 293 368 289 q 317 300 334 297 q 288 304 301 302 q 273 305 275 305 q 216 300 248 305 q 157 284 184 296 q 110 252 129 273 q 91 198 91 232 m 24 528 q 39 555 24 544 q 73 574 53 567 q 112 583 92 581 q 142 585 132 585 q 173 574 159 585 q 199 547 187 563 q 217 515 210 532 q 224 486 224 498 q 223 465 224 475 q 220 446 222 454 q 212 429 218 437 q 193 418 205 420 q 184 417 190 418 q 173 416 179 416 q 161 416 167 416 q 153 415 156 415 q 106 422 130 415 q 65 442 83 429 q 36 477 47 456 q 24 528 24 498 m 307 524 q 321 553 307 541 q 355 570 336 564 q 394 579 374 576 q 425 582 414 582 q 453 570 439 582 q 478 544 467 559 q 497 512 490 529 q 505 481 505 495 q 504 460 505 471 q 500 441 503 450 q 491 425 498 433 q 473 414 484 418 q 465 414 471 414 q 454 414 460 414 q 441 413 448 414 q 434 412 435 412 q 388 418 411 412 q 347 438 365 425 q 317 473 328 452 q 307 524 307 494 z "},"":{"ha":690,"x_min":11,"x_max":709,"o":"m 130 488 q 140 553 130 519 q 169 614 149 587 q 215 661 189 642 q 274 680 241 680 q 353 669 320 680 q 406 636 387 658 q 435 582 426 614 q 444 503 444 549 l 444 494 q 444 477 444 486 q 444 461 444 468 l 444 449 q 420 411 437 426 q 381 389 403 396 q 336 378 359 381 q 312 376 324 377 l 328 373 q 382 361 355 369 q 432 342 410 354 q 470 314 454 330 q 488 278 486 298 q 486 254 488 271 q 481 218 483 237 q 478 182 480 199 q 475 157 476 165 l 475 149 q 488 104 475 119 q 522 83 502 90 q 563 77 541 77 l 606 77 q 632 78 627 77 q 640 79 637 79 q 646 79 642 79 q 673 80 651 80 q 700 73 690 80 q 709 45 709 66 q 694 12 709 22 q 659 -1 680 3 q 618 -3 639 -4 q 587 -1 598 -1 q 528 9 556 -1 q 477 33 500 20 q 435 56 454 46 q 403 66 416 66 q 357 60 381 66 q 311 46 334 54 q 262 32 288 38 q 212 26 237 26 q 136 38 172 26 q 71 75 99 50 q 27 134 43 99 q 11 212 11 168 q 35 282 11 250 q 94 336 58 315 q 170 372 129 358 q 222 381 198 380 q 187 395 203 387 q 146 428 163 406 q 130 488 130 450 m 91 198 q 105 146 91 165 q 140 117 119 126 q 187 106 161 109 q 237 104 213 104 q 269 106 247 104 q 316 112 292 107 q 360 125 340 117 q 382 145 380 133 l 410 251 q 404 270 412 262 q 382 283 396 278 q 351 293 368 289 q 317 300 334 297 q 288 304 301 302 q 273 305 275 305 q 216 300 248 305 q 157 284 184 296 q 110 252 129 273 q 91 198 91 232 m 172 499 q 185 459 172 475 q 217 435 198 444 q 257 423 236 426 q 294 420 278 420 q 321 421 309 420 q 343 424 332 422 q 366 433 354 426 q 395 449 378 439 q 403 479 403 465 q 403 509 403 494 q 392 565 403 541 q 362 604 381 589 q 318 625 343 620 q 262 623 293 629 q 233 606 250 620 q 203 573 217 591 q 181 534 190 555 q 172 499 172 514 z "},"":{"ha":1088,"x_min":11,"x_max":1059,"o":"m 403 66 q 357 60 381 66 q 311 46 334 54 q 262 32 288 38 q 212 26 237 26 q 136 38 172 26 q 71 75 99 50 q 27 134 43 99 q 11 212 11 168 q 35 282 11 250 q 94 336 58 315 q 170 370 129 358 q 243 382 210 382 q 280 380 258 382 q 329 374 302 378 q 382 361 355 369 q 433 342 410 354 q 461 323 449 334 q 472 340 465 332 q 536 416 496 384 q 625 469 576 449 q 718 488 673 488 q 786 479 751 488 q 848 452 821 471 q 892 405 875 434 q 910 338 910 376 q 907 310 910 320 q 898 293 903 300 q 882 279 892 286 q 856 264 872 273 q 831 258 849 262 q 793 248 814 254 q 749 237 772 243 q 707 225 727 231 q 669 216 686 220 q 644 212 651 212 q 627 208 642 210 q 597 205 613 206 q 568 201 582 203 q 551 198 555 198 q 543 191 548 195 q 537 184 537 187 q 553 140 537 157 q 591 110 568 122 q 644 91 614 98 q 701 81 673 84 q 755 78 730 79 q 793 77 780 77 q 927 85 861 77 q 1059 94 993 94 l 1059 81 q 1058 65 1059 73 q 1053 50 1057 57 q 1042 39 1048 42 q 949 24 989 28 q 874 16 910 19 q 801 12 838 12 q 718 11 764 11 l 693 11 q 658 0 678 3 q 618 -3 639 -4 q 587 -1 598 -1 q 528 9 556 -1 q 477 33 500 20 q 435 56 454 46 q 403 66 416 66 m 91 198 q 105 146 91 165 q 140 117 119 126 q 187 106 161 109 q 237 104 213 104 q 269 106 247 104 q 316 112 292 107 q 360 125 340 117 q 382 145 380 133 l 410 251 q 404 270 412 262 q 382 283 396 278 q 351 293 368 289 q 317 300 334 297 q 288 304 301 302 q 273 305 275 305 q 216 300 248 305 q 157 284 184 296 q 110 252 129 273 q 91 198 91 232 m 749 412 q 710 408 732 412 q 664 397 688 404 q 617 378 640 389 q 576 351 594 366 q 546 317 557 336 q 534 274 534 298 l 589 274 q 651 277 620 274 q 712 286 682 281 q 765 305 742 292 q 802 338 788 319 q 817 388 817 358 l 817 396 l 803 410 q 792 410 800 410 q 776 411 784 411 q 760 412 768 411 q 749 412 751 412 z "},"":{"ha":620,"x_min":11,"x_max":612,"o":"m 11 209 q 42 304 11 267 q 119 362 73 342 q 218 390 164 382 q 317 397 271 397 l 334 397 q 356 397 343 397 q 380 396 369 396 l 396 396 q 431 380 423 392 q 439 351 439 369 q 425 316 439 330 q 389 302 411 302 q 371 307 376 302 q 363 317 366 312 q 354 328 359 323 q 334 332 349 332 q 288 330 313 332 q 235 321 262 327 q 182 307 208 316 q 136 282 156 297 q 103 246 115 267 q 91 195 91 225 q 105 151 91 171 q 142 117 119 132 q 195 92 165 102 q 252 76 224 81 q 307 68 281 71 q 350 65 334 65 q 420 77 388 65 q 485 102 453 88 q 548 126 517 115 q 612 137 579 137 q 584 60 612 88 q 514 18 556 31 q 425 1 472 4 q 338 -1 377 -1 q 267 3 305 -1 l 235 5 q 245 -18 240 -5 q 279 -59 259 -42 q 322 -86 298 -76 q 365 -99 346 -96 q 407 -107 376 -102 q 473 -119 438 -113 q 540 -131 509 -126 q 583 -137 571 -136 q 595 -157 589 -144 q 602 -178 602 -170 q 584 -219 602 -199 q 538 -255 566 -239 q 476 -283 510 -271 q 408 -304 442 -296 q 346 -318 374 -313 q 301 -323 317 -323 q 279 -311 289 -323 q 269 -281 269 -300 q 275 -258 269 -266 q 290 -248 281 -251 q 309 -245 298 -245 q 327 -243 319 -244 q 366 -233 342 -239 q 413 -220 391 -227 q 452 -209 435 -213 l 468 -203 l 468 -189 q 421 -184 450 -189 q 359 -170 392 -180 q 294 -143 327 -159 q 233 -103 260 -127 q 189 -46 206 -79 q 172 19 174 -16 q 126 38 148 27 q 67 77 92 53 q 26 133 42 100 q 11 209 11 165 z "},"":{"ha":661,"x_min":26,"x_max":640,"o":"m 26 239 q 52 328 26 285 q 117 404 77 372 q 205 456 157 437 q 297 475 254 475 q 367 466 332 475 q 429 438 401 457 q 473 391 456 419 q 490 326 490 363 q 488 298 490 308 q 479 280 486 288 q 462 267 472 273 q 437 251 452 260 q 412 245 429 250 q 375 235 396 240 q 331 224 354 229 q 287 213 308 218 q 250 203 266 208 q 225 198 233 199 q 208 195 221 197 q 178 192 194 194 q 149 188 163 190 q 133 184 136 186 q 124 178 129 183 q 119 172 119 174 q 134 127 119 145 q 172 96 149 109 q 224 78 195 84 q 282 68 254 72 q 335 65 311 65 q 374 65 359 65 q 507 73 442 65 q 640 80 572 80 l 640 69 q 638 52 640 61 q 632 36 636 43 q 621 27 628 28 q 530 10 570 16 q 454 2 490 4 q 381 -1 419 0 q 297 -1 343 -1 l 274 -1 q 241 -1 259 -1 q 208 0 224 0 l 184 0 q 112 35 142 11 q 62 91 81 58 q 35 161 43 123 q 26 239 26 199 m 330 399 q 290 395 312 399 q 243 385 267 392 q 197 366 220 377 q 156 338 174 354 q 127 304 138 323 q 115 262 115 285 l 171 262 q 232 264 201 262 q 293 273 263 267 q 345 292 323 279 q 382 326 368 305 q 396 376 396 346 l 396 382 l 382 396 q 372 397 380 396 q 357 398 365 397 q 341 399 349 399 q 330 399 334 399 m 504 529 q 452 522 482 521 q 388 528 421 522 q 319 544 354 534 q 254 563 284 553 q 202 582 224 573 q 168 594 179 590 q 158 598 163 596 q 147 603 154 599 q 129 610 140 606 l 104 623 q 87 633 96 628 q 69 646 77 639 q 55 662 60 653 q 50 683 50 672 q 51 695 50 688 q 56 707 53 701 q 65 717 60 714 q 77 721 70 721 q 78 721 78 721 q 81 720 78 720 q 84 719 82 719 q 88 716 85 719 q 94 710 92 714 q 101 703 97 706 q 104 697 104 699 q 175 662 145 675 q 231 640 206 649 q 280 627 257 632 q 330 617 304 622 q 386 605 355 612 q 459 583 417 597 q 492 563 479 577 q 504 529 504 549 z "},"":{"ha":661,"x_min":26,"x_max":640,"o":"m 26 239 q 52 328 26 285 q 117 404 77 372 q 205 456 157 437 q 297 475 254 475 q 367 466 332 475 q 429 438 401 457 q 473 391 456 419 q 490 326 490 363 q 488 298 490 308 q 479 280 486 288 q 462 267 472 273 q 437 251 452 260 q 412 245 429 250 q 375 235 396 240 q 331 224 354 229 q 287 213 308 218 q 250 203 266 208 q 225 198 233 199 q 208 195 221 197 q 178 192 194 194 q 149 188 163 190 q 133 184 136 186 q 124 178 129 183 q 119 172 119 174 q 134 127 119 145 q 172 96 149 109 q 224 78 195 84 q 282 68 254 72 q 335 65 311 65 q 374 65 359 65 q 507 73 442 65 q 640 80 572 80 l 640 69 q 638 52 640 61 q 632 36 636 43 q 621 27 628 28 q 530 10 570 16 q 454 2 490 4 q 381 -1 419 0 q 297 -1 343 -1 l 274 -1 q 241 -1 259 -1 q 208 0 224 0 l 184 0 q 112 35 142 11 q 62 91 81 58 q 35 161 43 123 q 26 239 26 199 m 330 399 q 290 395 312 399 q 243 385 267 392 q 197 366 220 377 q 156 338 174 354 q 127 304 138 323 q 115 262 115 285 l 171 262 q 232 264 201 262 q 293 273 263 267 q 345 292 323 279 q 382 326 368 305 q 396 376 396 346 l 396 382 l 382 396 q 372 397 380 396 q 357 398 365 397 q 341 399 349 399 q 330 399 334 399 m 98 517 q 109 545 98 534 q 136 563 121 556 q 221 586 187 579 q 284 599 255 593 q 347 617 313 605 q 429 656 380 629 q 438 666 431 659 q 448 675 445 673 l 450 675 q 451 676 450 675 q 453 677 452 677 q 470 665 465 677 q 475 644 475 654 q 459 614 475 627 q 429 594 444 601 q 395 578 406 583 q 377 570 385 574 q 349 560 368 567 q 306 545 331 553 q 252 529 281 537 q 195 516 224 521 q 142 511 167 511 q 98 517 117 510 z "},"":{"ha":661,"x_min":26,"x_max":640,"o":"m 26 239 q 52 328 26 285 q 117 404 77 372 q 205 456 157 437 q 297 475 254 475 q 367 466 332 475 q 429 438 401 457 q 473 391 456 419 q 490 326 490 363 q 488 298 490 308 q 479 280 486 288 q 462 267 472 273 q 437 251 452 260 q 412 245 429 250 q 375 235 396 240 q 331 224 354 229 q 287 213 308 218 q 250 203 266 208 q 225 198 233 199 q 208 195 221 197 q 178 192 194 194 q 149 188 163 190 q 133 184 136 186 q 124 178 129 183 q 119 172 119 174 q 134 127 119 145 q 172 96 149 109 q 224 78 195 84 q 282 68 254 72 q 335 65 311 65 q 374 65 359 65 q 507 73 442 65 q 640 80 572 80 l 640 69 q 638 52 640 61 q 632 36 636 43 q 621 27 628 28 q 530 10 570 16 q 454 2 490 4 q 381 -1 419 0 q 297 -1 343 -1 l 274 -1 q 241 -1 259 -1 q 208 0 224 0 l 184 0 q 112 35 142 11 q 62 91 81 58 q 35 161 43 123 q 26 239 26 199 m 330 399 q 290 395 312 399 q 243 385 267 392 q 197 366 220 377 q 156 338 174 354 q 127 304 138 323 q 115 262 115 285 l 171 262 q 232 264 201 262 q 293 273 263 267 q 345 292 323 279 q 382 326 368 305 q 396 376 396 346 l 396 382 l 382 396 q 372 397 380 396 q 357 398 365 397 q 341 399 349 399 q 330 399 334 399 m 121 537 q 129 594 121 560 q 150 665 137 628 q 182 738 163 701 q 223 804 201 774 q 271 850 245 833 q 324 868 297 868 q 342 869 332 868 q 361 867 351 869 q 377 859 370 864 q 388 841 384 854 q 408 762 395 802 q 439 683 420 722 q 477 608 457 644 q 519 537 498 571 q 496 506 506 517 q 468 495 487 495 q 434 515 450 495 q 404 565 418 536 q 378 629 391 594 q 354 694 365 663 q 333 744 343 724 q 315 764 323 764 q 276 743 290 764 q 253 692 262 723 q 237 624 244 661 q 220 556 229 587 q 193 505 210 525 q 149 484 176 484 q 138 491 142 484 q 129 507 133 498 q 123 524 125 515 q 121 537 121 533 z "},"":{"ha":661,"x_min":26,"x_max":640,"o":"m 26 239 q 52 328 26 285 q 117 404 77 372 q 205 456 157 437 q 297 475 254 475 q 367 466 332 475 q 429 438 401 457 q 473 391 456 419 q 490 326 490 363 q 488 298 490 308 q 479 280 486 288 q 462 267 472 273 q 437 251 452 260 q 412 245 429 250 q 375 235 396 240 q 331 224 354 229 q 287 213 308 218 q 250 203 266 208 q 225 198 233 199 q 208 195 221 197 q 178 192 194 194 q 149 188 163 190 q 133 184 136 186 q 124 178 129 183 q 119 172 119 174 q 134 127 119 145 q 172 96 149 109 q 224 78 195 84 q 282 68 254 72 q 335 65 311 65 q 374 65 359 65 q 507 73 442 65 q 640 80 572 80 l 640 69 q 638 52 640 61 q 632 36 636 43 q 621 27 628 28 q 530 10 570 16 q 454 2 490 4 q 381 -1 419 0 q 297 -1 343 -1 l 274 -1 q 241 -1 259 -1 q 208 0 224 0 l 184 0 q 112 35 142 11 q 62 91 81 58 q 35 161 43 123 q 26 239 26 199 m 330 399 q 290 395 312 399 q 243 385 267 392 q 197 366 220 377 q 156 338 174 354 q 127 304 138 323 q 115 262 115 285 l 171 262 q 232 264 201 262 q 293 273 263 267 q 345 292 323 279 q 382 326 368 305 q 396 376 396 346 l 396 382 l 382 396 q 372 397 380 396 q 357 398 365 397 q 341 399 349 399 q 330 399 334 399 m 35 648 q 50 676 35 665 q 83 694 64 688 q 123 703 103 701 q 153 705 142 705 q 184 694 170 705 q 210 668 198 684 q 228 635 221 652 q 235 606 235 618 q 234 585 235 595 q 231 566 233 575 q 222 549 229 557 q 203 538 216 541 q 195 538 201 538 q 184 537 190 537 q 172 536 178 537 q 164 536 167 536 q 117 543 141 536 q 76 563 94 549 q 47 597 58 576 q 35 648 35 618 m 317 644 q 332 673 317 662 q 366 691 347 685 q 405 700 385 697 q 435 703 425 703 q 464 691 450 703 q 489 665 477 680 q 508 633 500 650 q 515 602 515 616 q 515 581 515 591 q 511 562 514 571 q 502 546 509 553 q 484 534 495 538 q 476 534 481 534 q 465 534 471 534 q 452 534 458 534 q 445 533 446 533 q 399 539 422 533 q 357 559 376 545 q 328 593 339 572 q 317 644 317 614 z "},"":{"ha":119,"x_min":-38,"x_max":336,"o":"m 66 12 q 50 71 57 39 q 37 137 42 103 q 30 203 33 171 q 27 264 27 236 q 28 280 27 269 q 32 304 30 292 q 37 328 34 316 q 41 343 39 339 q 53 346 42 345 q 66 347 64 347 q 95 328 84 347 q 114 279 106 309 q 125 214 122 250 q 132 144 129 178 q 134 85 134 111 q 134 50 134 60 q 135 37 134 46 q 134 20 136 28 q 128 5 133 11 q 113 0 123 0 l 107 0 q 99 2 104 0 q 87 6 94 4 q 75 9 80 8 q 66 12 69 11 m 336 536 q 293 529 319 528 q 239 536 267 530 q 183 550 212 541 q 130 569 155 559 q 86 587 104 579 q 60 600 68 595 q 52 604 56 602 q 41 608 47 605 q 27 615 35 610 q 7 627 19 620 q -22 650 -7 636 q -38 685 -38 665 q -33 709 -38 696 q -16 722 -27 722 l -15 720 l -11 720 q -2 711 -8 719 q 7 700 4 703 q 66 665 41 678 q 112 644 91 651 q 152 631 133 636 q 192 622 171 627 q 239 610 213 617 q 298 589 264 604 q 326 569 316 582 q 336 536 336 556 z "},"":{"ha":159,"x_min":-109,"x_max":269,"o":"m 66 12 q 50 71 57 39 q 37 137 42 103 q 30 203 33 171 q 27 264 27 236 q 28 280 27 269 q 32 304 30 292 q 37 328 34 316 q 41 343 39 339 q 53 346 42 345 q 66 347 64 347 q 95 328 84 347 q 114 279 106 309 q 125 214 122 250 q 132 144 129 178 q 134 85 134 111 q 134 50 134 60 q 135 37 134 46 q 134 20 136 28 q 128 5 133 11 q 113 0 123 0 l 107 0 q 99 2 104 0 q 87 6 94 4 q 75 9 80 8 q 66 12 69 11 m -109 532 q -98 561 -109 549 q -72 576 -87 572 q 15 600 -19 594 q 78 613 49 606 q 140 632 107 620 q 222 673 172 644 q 232 681 225 674 q 241 689 239 688 l 243 689 q 244 690 243 689 q 247 690 245 690 q 263 680 258 690 q 269 658 269 669 q 253 629 269 642 q 222 610 237 617 q 189 593 198 597 q 171 586 179 589 q 143 575 161 582 q 99 559 125 568 q 45 543 73 551 q -11 531 18 536 q -64 526 -39 526 q -109 532 -90 525 z "},"":{"ha":159,"x_min":-68,"x_max":225,"o":"m 66 12 q 50 71 57 39 q 37 137 42 103 q 30 203 33 171 q 27 264 27 236 q 28 280 27 269 q 32 304 30 292 q 37 328 34 316 q 41 343 39 339 q 53 346 42 345 q 66 347 64 347 q 95 328 84 347 q 114 279 106 309 q 125 214 122 250 q 132 144 129 178 q 134 85 134 111 q 134 50 134 60 q 135 37 134 46 q 134 20 136 28 q 128 5 133 11 q 113 0 123 0 l 107 0 q 99 2 104 0 q 87 6 94 4 q 75 9 80 8 q 66 12 69 11 m -68 480 q -62 530 -68 500 q -47 593 -57 560 q -23 657 -37 625 q 7 715 -9 689 q 43 756 24 741 q 80 772 61 772 q 95 772 88 772 q 109 770 102 772 q 121 764 115 769 q 129 749 126 758 q 165 608 138 677 q 225 480 193 540 q 209 452 216 461 q 189 444 202 444 q 161 461 174 444 q 139 505 149 479 q 120 562 129 530 q 103 618 111 593 q 87 662 95 644 q 73 680 80 680 q 46 661 57 680 q 28 615 35 643 q 16 556 22 587 q 4 497 11 525 q -15 452 -3 469 q -47 434 -27 434 q -56 439 -52 434 q -62 452 -60 444 q -66 467 -65 460 q -68 480 -68 475 z "},"":{"ha":159,"x_min":-76,"x_max":212,"o":"m 66 12 q 50 71 57 39 q 37 137 42 103 q 30 203 33 171 q 27 264 27 236 q 28 280 27 269 q 32 304 30 292 q 37 328 34 316 q 41 343 39 339 q 53 346 42 345 q 66 347 64 347 q 95 328 84 347 q 114 279 106 309 q 125 214 122 250 q 132 144 129 178 q 134 85 134 111 q 134 50 134 60 q 135 37 134 46 q 134 20 136 28 q 128 5 133 11 q 113 0 123 0 l 107 0 q 99 2 104 0 q 87 6 94 4 q 75 9 80 8 q 66 12 69 11 m -76 576 q -67 601 -76 591 q -47 616 -58 610 q -24 624 -35 621 q -5 627 -12 627 q 12 617 4 627 q 27 594 20 608 q 38 566 34 581 q 42 541 42 551 q 41 506 42 524 q 24 481 39 488 q 13 481 22 481 q 1 481 4 481 q -27 487 -14 481 q -52 504 -41 492 q -70 533 -64 515 q -76 576 -76 551 m 94 574 q 102 598 94 589 q 122 613 111 608 q 145 621 133 618 q 164 623 157 623 q 180 613 172 623 q 196 591 189 604 q 208 563 203 578 q 212 537 212 548 q 210 503 212 519 q 193 480 208 487 q 181 479 190 480 q 170 479 172 479 q 142 484 156 479 q 117 500 127 488 q 100 530 106 511 q 94 574 94 548 z "}}}
